<?xml version="1.0" encoding="utf-8" standalone="no"?>
<!DOCTYPE svg PUBLIC "-//W3C//DTD SVG 1.1//EN"
  "http://www.w3.org/Graphics/SVG/1.1/DTD/svg11.dtd">
<svg xmlns:xlink="http://www.w3.org/1999/xlink" width="180pt" height="180pt" viewBox="0 0 180 180" xmlns="http://www.w3.org/2000/svg" version="1.1">
 <metadata>
  <rdf:RDF xmlns:dc="http://purl.org/dc/elements/1.1/" xmlns:cc="http://creativecommons.org/ns#" xmlns:rdf="http://www.w3.org/1999/02/22-rdf-syntax-ns#">
   <cc:Work>
    <dc:type rdf:resource="http://purl.org/dc/dcmitype/StillImage"/>
    <dc:date>2025-08-06T12:11:24.174545</dc:date>
    <dc:format>image/svg+xml</dc:format>
    <dc:creator>
     <cc:Agent>
      <dc:title>Matplotlib v3.10.0, https://matplotlib.org/</dc:title>
     </cc:Agent>
    </dc:creator>
   </cc:Work>
  </rdf:RDF>
 </metadata>
 <defs>
  <style type="text/css">*{stroke-linejoin: round; stroke-linecap: butt}</style>
 </defs>
 <g id="figure_1">
  <g id="patch_1">
   <path d="M 0 180 
L 180 180 
L 180 0 
L 0 0 
z
" style="fill: #ffffff"/>
  </g>
  <g id="axes_1">
   <g id="patch_2">
    <path d="M 22.5 160.2 
L 162 160.2 
L 162 21.6 
L 22.5 21.6 
z
" style="fill: #ffffff"/>
   </g>
   <g id="matplotlib.axis_1">
    <g id="xtick_1">
     <g id="line2d_1">
      <defs>
       <path id="m16bbd178f7" d="M 0 0 
L 0 -2 
" style="stroke: #000000; stroke-width: 0.5"/>
      </defs>
      <g>
       <use xlink:href="#m16bbd178f7" x="22.5" y="160.2" style="stroke: #000000; stroke-width: 0.5"/>
      </g>
     </g>
     <g id="text_1">
      <!-- 0 -->
      <g transform="translate(20.553672 168.710469) scale(0.07 -0.07)">
       <defs>
        <path id="ArialMT-30" d="M 266 2259 
Q 266 3072 433 3567 
Q 600 4063 929 4331 
Q 1259 4600 1759 4600 
Q 2128 4600 2406 4451 
Q 2684 4303 2865 4023 
Q 3047 3744 3150 3342 
Q 3253 2941 3253 2259 
Q 3253 1453 3087 958 
Q 2922 463 2592 192 
Q 2263 -78 1759 -78 
Q 1097 -78 719 397 
Q 266 969 266 2259 
z
M 844 2259 
Q 844 1131 1108 757 
Q 1372 384 1759 384 
Q 2147 384 2411 759 
Q 2675 1134 2675 2259 
Q 2675 3391 2411 3762 
Q 2147 4134 1753 4134 
Q 1366 4134 1134 3806 
Q 844 3388 844 2259 
z
" transform="scale(0.015625)"/>
       </defs>
       <use xlink:href="#ArialMT-30"/>
      </g>
     </g>
    </g>
    <g id="xtick_2">
     <g id="line2d_2">
      <g>
       <use xlink:href="#m16bbd178f7" x="67.5" y="160.2" style="stroke: #000000; stroke-width: 0.5"/>
      </g>
     </g>
     <g id="text_2">
      <!-- 5 -->
      <g transform="translate(65.553672 168.710469) scale(0.07 -0.07)">
       <defs>
        <path id="ArialMT-35" d="M 266 1200 
L 856 1250 
Q 922 819 1161 601 
Q 1400 384 1738 384 
Q 2144 384 2425 690 
Q 2706 997 2706 1503 
Q 2706 1984 2436 2262 
Q 2166 2541 1728 2541 
Q 1456 2541 1237 2417 
Q 1019 2294 894 2097 
L 366 2166 
L 809 4519 
L 3088 4519 
L 3088 3981 
L 1259 3981 
L 1013 2750 
Q 1425 3038 1878 3038 
Q 2478 3038 2890 2622 
Q 3303 2206 3303 1553 
Q 3303 931 2941 478 
Q 2500 -78 1738 -78 
Q 1113 -78 717 272 
Q 322 622 266 1200 
z
" transform="scale(0.015625)"/>
       </defs>
       <use xlink:href="#ArialMT-35"/>
      </g>
     </g>
    </g>
    <g id="xtick_3">
     <g id="line2d_3">
      <g>
       <use xlink:href="#m16bbd178f7" x="112.5" y="160.2" style="stroke: #000000; stroke-width: 0.5"/>
      </g>
     </g>
     <g id="text_3">
      <!-- 10 -->
      <g transform="translate(108.607344 168.710469) scale(0.07 -0.07)">
       <defs>
        <path id="ArialMT-31" d="M 2384 0 
L 1822 0 
L 1822 3584 
Q 1619 3391 1289 3197 
Q 959 3003 697 2906 
L 697 3450 
Q 1169 3672 1522 3987 
Q 1875 4303 2022 4600 
L 2384 4600 
L 2384 0 
z
" transform="scale(0.015625)"/>
       </defs>
       <use xlink:href="#ArialMT-31"/>
       <use xlink:href="#ArialMT-30" transform="translate(55.615234 0)"/>
      </g>
     </g>
    </g>
    <g id="xtick_4">
     <g id="line2d_4">
      <g>
       <use xlink:href="#m16bbd178f7" x="157.5" y="160.2" style="stroke: #000000; stroke-width: 0.5"/>
      </g>
     </g>
     <g id="text_4">
      <!-- 15 -->
      <g transform="translate(153.607344 168.710469) scale(0.07 -0.07)">
       <use xlink:href="#ArialMT-31"/>
       <use xlink:href="#ArialMT-35" transform="translate(55.615234 0)"/>
      </g>
     </g>
    </g>
    <g id="text_5">
     <!-- Decision Time -->
     <g transform="translate(70.271094 179.112188) scale(0.07 -0.07)">
      <defs>
       <path id="ArialMT-44" d="M 494 0 
L 494 4581 
L 2072 4581 
Q 2606 4581 2888 4516 
Q 3281 4425 3559 4188 
Q 3922 3881 4101 3404 
Q 4281 2928 4281 2316 
Q 4281 1794 4159 1391 
Q 4038 988 3847 723 
Q 3656 459 3429 307 
Q 3203 156 2883 78 
Q 2563 0 2147 0 
L 494 0 
z
M 1100 541 
L 2078 541 
Q 2531 541 2789 625 
Q 3047 709 3200 863 
Q 3416 1078 3536 1442 
Q 3656 1806 3656 2325 
Q 3656 3044 3420 3430 
Q 3184 3816 2847 3947 
Q 2603 4041 2063 4041 
L 1100 4041 
L 1100 541 
z
" transform="scale(0.015625)"/>
       <path id="ArialMT-65" d="M 2694 1069 
L 3275 997 
Q 3138 488 2766 206 
Q 2394 -75 1816 -75 
Q 1088 -75 661 373 
Q 234 822 234 1631 
Q 234 2469 665 2931 
Q 1097 3394 1784 3394 
Q 2450 3394 2872 2941 
Q 3294 2488 3294 1666 
Q 3294 1616 3291 1516 
L 816 1516 
Q 847 969 1125 678 
Q 1403 388 1819 388 
Q 2128 388 2347 550 
Q 2566 713 2694 1069 
z
M 847 1978 
L 2700 1978 
Q 2663 2397 2488 2606 
Q 2219 2931 1791 2931 
Q 1403 2931 1139 2672 
Q 875 2413 847 1978 
z
" transform="scale(0.015625)"/>
       <path id="ArialMT-63" d="M 2588 1216 
L 3141 1144 
Q 3050 572 2676 248 
Q 2303 -75 1759 -75 
Q 1078 -75 664 370 
Q 250 816 250 1647 
Q 250 2184 428 2587 
Q 606 2991 970 3192 
Q 1334 3394 1763 3394 
Q 2303 3394 2647 3120 
Q 2991 2847 3088 2344 
L 2541 2259 
Q 2463 2594 2264 2762 
Q 2066 2931 1784 2931 
Q 1359 2931 1093 2626 
Q 828 2322 828 1663 
Q 828 994 1084 691 
Q 1341 388 1753 388 
Q 2084 388 2306 591 
Q 2528 794 2588 1216 
z
" transform="scale(0.015625)"/>
       <path id="ArialMT-69" d="M 425 3934 
L 425 4581 
L 988 4581 
L 988 3934 
L 425 3934 
z
M 425 0 
L 425 3319 
L 988 3319 
L 988 0 
L 425 0 
z
" transform="scale(0.015625)"/>
       <path id="ArialMT-73" d="M 197 991 
L 753 1078 
Q 800 744 1014 566 
Q 1228 388 1613 388 
Q 2000 388 2187 545 
Q 2375 703 2375 916 
Q 2375 1106 2209 1216 
Q 2094 1291 1634 1406 
Q 1016 1563 777 1677 
Q 538 1791 414 1992 
Q 291 2194 291 2438 
Q 291 2659 392 2848 
Q 494 3038 669 3163 
Q 800 3259 1026 3326 
Q 1253 3394 1513 3394 
Q 1903 3394 2198 3281 
Q 2494 3169 2634 2976 
Q 2775 2784 2828 2463 
L 2278 2388 
Q 2241 2644 2061 2787 
Q 1881 2931 1553 2931 
Q 1166 2931 1000 2803 
Q 834 2675 834 2503 
Q 834 2394 903 2306 
Q 972 2216 1119 2156 
Q 1203 2125 1616 2013 
Q 2213 1853 2448 1751 
Q 2684 1650 2818 1456 
Q 2953 1263 2953 975 
Q 2953 694 2789 445 
Q 2625 197 2315 61 
Q 2006 -75 1616 -75 
Q 969 -75 630 194 
Q 291 463 197 991 
z
" transform="scale(0.015625)"/>
       <path id="ArialMT-6f" d="M 213 1659 
Q 213 2581 725 3025 
Q 1153 3394 1769 3394 
Q 2453 3394 2887 2945 
Q 3322 2497 3322 1706 
Q 3322 1066 3130 698 
Q 2938 331 2570 128 
Q 2203 -75 1769 -75 
Q 1072 -75 642 372 
Q 213 819 213 1659 
z
M 791 1659 
Q 791 1022 1069 705 
Q 1347 388 1769 388 
Q 2188 388 2466 706 
Q 2744 1025 2744 1678 
Q 2744 2294 2464 2611 
Q 2184 2928 1769 2928 
Q 1347 2928 1069 2612 
Q 791 2297 791 1659 
z
" transform="scale(0.015625)"/>
       <path id="ArialMT-6e" d="M 422 0 
L 422 3319 
L 928 3319 
L 928 2847 
Q 1294 3394 1984 3394 
Q 2284 3394 2536 3286 
Q 2788 3178 2913 3003 
Q 3038 2828 3088 2588 
Q 3119 2431 3119 2041 
L 3119 0 
L 2556 0 
L 2556 2019 
Q 2556 2363 2490 2533 
Q 2425 2703 2258 2804 
Q 2091 2906 1866 2906 
Q 1506 2906 1245 2678 
Q 984 2450 984 1813 
L 984 0 
L 422 0 
z
" transform="scale(0.015625)"/>
       <path id="ArialMT-20" transform="scale(0.015625)"/>
       <path id="ArialMT-54" d="M 1659 0 
L 1659 4041 
L 150 4041 
L 150 4581 
L 3781 4581 
L 3781 4041 
L 2266 4041 
L 2266 0 
L 1659 0 
z
" transform="scale(0.015625)"/>
       <path id="ArialMT-6d" d="M 422 0 
L 422 3319 
L 925 3319 
L 925 2853 
Q 1081 3097 1340 3245 
Q 1600 3394 1931 3394 
Q 2300 3394 2536 3241 
Q 2772 3088 2869 2813 
Q 3263 3394 3894 3394 
Q 4388 3394 4653 3120 
Q 4919 2847 4919 2278 
L 4919 0 
L 4359 0 
L 4359 2091 
Q 4359 2428 4304 2576 
Q 4250 2725 4106 2815 
Q 3963 2906 3769 2906 
Q 3419 2906 3187 2673 
Q 2956 2441 2956 1928 
L 2956 0 
L 2394 0 
L 2394 2156 
Q 2394 2531 2256 2718 
Q 2119 2906 1806 2906 
Q 1569 2906 1367 2781 
Q 1166 2656 1075 2415 
Q 984 2175 984 1722 
L 984 0 
L 422 0 
z
" transform="scale(0.015625)"/>
      </defs>
      <use xlink:href="#ArialMT-44"/>
      <use xlink:href="#ArialMT-65" transform="translate(72.216797 0)"/>
      <use xlink:href="#ArialMT-63" transform="translate(127.832031 0)"/>
      <use xlink:href="#ArialMT-69" transform="translate(177.832031 0)"/>
      <use xlink:href="#ArialMT-73" transform="translate(200.048828 0)"/>
      <use xlink:href="#ArialMT-69" transform="translate(250.048828 0)"/>
      <use xlink:href="#ArialMT-6f" transform="translate(272.265625 0)"/>
      <use xlink:href="#ArialMT-6e" transform="translate(327.880859 0)"/>
      <use xlink:href="#ArialMT-20" transform="translate(383.496094 0)"/>
      <use xlink:href="#ArialMT-54" transform="translate(409.529297 0)"/>
      <use xlink:href="#ArialMT-69" transform="translate(466.863281 0)"/>
      <use xlink:href="#ArialMT-6d" transform="translate(489.080078 0)"/>
      <use xlink:href="#ArialMT-65" transform="translate(572.380859 0)"/>
     </g>
    </g>
   </g>
   <g id="matplotlib.axis_2">
    <g id="ytick_1">
     <g id="line2d_5">
      <defs>
       <path id="m92165fef52" d="M 0 0 
L 2 0 
" style="stroke: #000000; stroke-width: 0.5"/>
      </defs>
      <g>
       <use xlink:href="#m92165fef52" x="22.5" y="160.2" style="stroke: #000000; stroke-width: 0.5"/>
      </g>
     </g>
     <g id="text_6">
      <!-- −3 -->
      <g transform="translate(11.018906 162.705234) scale(0.07 -0.07)">
       <defs>
        <path id="ArialMT-2212" d="M 3381 1997 
L 356 1997 
L 356 2522 
L 3381 2522 
L 3381 1997 
z
" transform="scale(0.015625)"/>
        <path id="ArialMT-33" d="M 269 1209 
L 831 1284 
Q 928 806 1161 595 
Q 1394 384 1728 384 
Q 2125 384 2398 659 
Q 2672 934 2672 1341 
Q 2672 1728 2419 1979 
Q 2166 2231 1775 2231 
Q 1616 2231 1378 2169 
L 1441 2663 
Q 1497 2656 1531 2656 
Q 1891 2656 2178 2843 
Q 2466 3031 2466 3422 
Q 2466 3731 2256 3934 
Q 2047 4138 1716 4138 
Q 1388 4138 1169 3931 
Q 950 3725 888 3313 
L 325 3413 
Q 428 3978 793 4289 
Q 1159 4600 1703 4600 
Q 2078 4600 2393 4439 
Q 2709 4278 2876 4000 
Q 3044 3722 3044 3409 
Q 3044 3113 2884 2869 
Q 2725 2625 2413 2481 
Q 2819 2388 3044 2092 
Q 3269 1797 3269 1353 
Q 3269 753 2831 336 
Q 2394 -81 1725 -81 
Q 1122 -81 723 278 
Q 325 638 269 1209 
z
" transform="scale(0.015625)"/>
       </defs>
       <use xlink:href="#ArialMT-2212"/>
       <use xlink:href="#ArialMT-33" transform="translate(58.398438 0)"/>
      </g>
     </g>
    </g>
    <g id="ytick_2">
     <g id="line2d_6">
      <g>
       <use xlink:href="#m92165fef52" x="22.5" y="137.1" style="stroke: #000000; stroke-width: 0.5"/>
      </g>
     </g>
     <g id="text_7">
      <!-- −2 -->
      <g transform="translate(11.018906 139.605234) scale(0.07 -0.07)">
       <defs>
        <path id="ArialMT-32" d="M 3222 541 
L 3222 0 
L 194 0 
Q 188 203 259 391 
Q 375 700 629 1000 
Q 884 1300 1366 1694 
Q 2113 2306 2375 2664 
Q 2638 3022 2638 3341 
Q 2638 3675 2398 3904 
Q 2159 4134 1775 4134 
Q 1369 4134 1125 3890 
Q 881 3647 878 3216 
L 300 3275 
Q 359 3922 746 4261 
Q 1134 4600 1788 4600 
Q 2447 4600 2831 4234 
Q 3216 3869 3216 3328 
Q 3216 3053 3103 2787 
Q 2991 2522 2730 2228 
Q 2469 1934 1863 1422 
Q 1356 997 1212 845 
Q 1069 694 975 541 
L 3222 541 
z
" transform="scale(0.015625)"/>
       </defs>
       <use xlink:href="#ArialMT-2212"/>
       <use xlink:href="#ArialMT-32" transform="translate(58.398438 0)"/>
      </g>
     </g>
    </g>
    <g id="ytick_3">
     <g id="line2d_7">
      <g>
       <use xlink:href="#m92165fef52" x="22.5" y="114" style="stroke: #000000; stroke-width: 0.5"/>
      </g>
     </g>
     <g id="text_8">
      <!-- −1 -->
      <g transform="translate(11.018906 116.505234) scale(0.07 -0.07)">
       <use xlink:href="#ArialMT-2212"/>
       <use xlink:href="#ArialMT-31" transform="translate(58.398438 0)"/>
      </g>
     </g>
    </g>
    <g id="ytick_4">
     <g id="line2d_8">
      <g>
       <use xlink:href="#m92165fef52" x="22.5" y="90.9" style="stroke: #000000; stroke-width: 0.5"/>
      </g>
     </g>
     <g id="text_9">
      <!-- 0 -->
      <g transform="translate(15.107344 93.405234) scale(0.07 -0.07)">
       <use xlink:href="#ArialMT-30"/>
      </g>
     </g>
    </g>
    <g id="ytick_5">
     <g id="line2d_9">
      <g>
       <use xlink:href="#m92165fef52" x="22.5" y="67.8" style="stroke: #000000; stroke-width: 0.5"/>
      </g>
     </g>
     <g id="text_10">
      <!-- 1 -->
      <g transform="translate(15.107344 70.305234) scale(0.07 -0.07)">
       <use xlink:href="#ArialMT-31"/>
      </g>
     </g>
    </g>
    <g id="ytick_6">
     <g id="line2d_10">
      <g>
       <use xlink:href="#m92165fef52" x="22.5" y="44.7" style="stroke: #000000; stroke-width: 0.5"/>
      </g>
     </g>
     <g id="text_11">
      <!-- 2 -->
      <g transform="translate(15.107344 47.205234) scale(0.07 -0.07)">
       <use xlink:href="#ArialMT-32"/>
      </g>
     </g>
    </g>
    <g id="ytick_7">
     <g id="line2d_11">
      <g>
       <use xlink:href="#m92165fef52" x="22.5" y="21.6" style="stroke: #000000; stroke-width: 0.5"/>
      </g>
     </g>
     <g id="text_12">
      <!-- 3 -->
      <g transform="translate(15.107344 24.105234) scale(0.07 -0.07)">
       <use xlink:href="#ArialMT-33"/>
      </g>
     </g>
    </g>
    <g id="text_13">
     <!-- Accumulated Evidence -->
     <g transform="translate(5.627656 126.501562) rotate(-90) scale(0.07 -0.07)">
      <defs>
       <path id="ArialMT-41" d="M -9 0 
L 1750 4581 
L 2403 4581 
L 4278 0 
L 3588 0 
L 3053 1388 
L 1138 1388 
L 634 0 
L -9 0 
z
M 1313 1881 
L 2866 1881 
L 2388 3150 
Q 2169 3728 2063 4100 
Q 1975 3659 1816 3225 
L 1313 1881 
z
" transform="scale(0.015625)"/>
       <path id="ArialMT-75" d="M 2597 0 
L 2597 488 
Q 2209 -75 1544 -75 
Q 1250 -75 995 37 
Q 741 150 617 320 
Q 494 491 444 738 
Q 409 903 409 1263 
L 409 3319 
L 972 3319 
L 972 1478 
Q 972 1038 1006 884 
Q 1059 663 1231 536 
Q 1403 409 1656 409 
Q 1909 409 2131 539 
Q 2353 669 2445 892 
Q 2538 1116 2538 1541 
L 2538 3319 
L 3100 3319 
L 3100 0 
L 2597 0 
z
" transform="scale(0.015625)"/>
       <path id="ArialMT-6c" d="M 409 0 
L 409 4581 
L 972 4581 
L 972 0 
L 409 0 
z
" transform="scale(0.015625)"/>
       <path id="ArialMT-61" d="M 2588 409 
Q 2275 144 1986 34 
Q 1697 -75 1366 -75 
Q 819 -75 525 192 
Q 231 459 231 875 
Q 231 1119 342 1320 
Q 453 1522 633 1644 
Q 813 1766 1038 1828 
Q 1203 1872 1538 1913 
Q 2219 1994 2541 2106 
Q 2544 2222 2544 2253 
Q 2544 2597 2384 2738 
Q 2169 2928 1744 2928 
Q 1347 2928 1158 2789 
Q 969 2650 878 2297 
L 328 2372 
Q 403 2725 575 2942 
Q 747 3159 1072 3276 
Q 1397 3394 1825 3394 
Q 2250 3394 2515 3294 
Q 2781 3194 2906 3042 
Q 3031 2891 3081 2659 
Q 3109 2516 3109 2141 
L 3109 1391 
Q 3109 606 3145 398 
Q 3181 191 3288 0 
L 2700 0 
Q 2613 175 2588 409 
z
M 2541 1666 
Q 2234 1541 1622 1453 
Q 1275 1403 1131 1340 
Q 988 1278 909 1158 
Q 831 1038 831 891 
Q 831 666 1001 516 
Q 1172 366 1500 366 
Q 1825 366 2078 508 
Q 2331 650 2450 897 
Q 2541 1088 2541 1459 
L 2541 1666 
z
" transform="scale(0.015625)"/>
       <path id="ArialMT-74" d="M 1650 503 
L 1731 6 
Q 1494 -44 1306 -44 
Q 1000 -44 831 53 
Q 663 150 594 308 
Q 525 466 525 972 
L 525 2881 
L 113 2881 
L 113 3319 
L 525 3319 
L 525 4141 
L 1084 4478 
L 1084 3319 
L 1650 3319 
L 1650 2881 
L 1084 2881 
L 1084 941 
Q 1084 700 1114 631 
Q 1144 563 1211 522 
Q 1278 481 1403 481 
Q 1497 481 1650 503 
z
" transform="scale(0.015625)"/>
       <path id="ArialMT-64" d="M 2575 0 
L 2575 419 
Q 2259 -75 1647 -75 
Q 1250 -75 917 144 
Q 584 363 401 755 
Q 219 1147 219 1656 
Q 219 2153 384 2558 
Q 550 2963 881 3178 
Q 1213 3394 1622 3394 
Q 1922 3394 2156 3267 
Q 2391 3141 2538 2938 
L 2538 4581 
L 3097 4581 
L 3097 0 
L 2575 0 
z
M 797 1656 
Q 797 1019 1065 703 
Q 1334 388 1700 388 
Q 2069 388 2326 689 
Q 2584 991 2584 1609 
Q 2584 2291 2321 2609 
Q 2059 2928 1675 2928 
Q 1300 2928 1048 2622 
Q 797 2316 797 1656 
z
" transform="scale(0.015625)"/>
       <path id="ArialMT-45" d="M 506 0 
L 506 4581 
L 3819 4581 
L 3819 4041 
L 1113 4041 
L 1113 2638 
L 3647 2638 
L 3647 2100 
L 1113 2100 
L 1113 541 
L 3925 541 
L 3925 0 
L 506 0 
z
" transform="scale(0.015625)"/>
       <path id="ArialMT-76" d="M 1344 0 
L 81 3319 
L 675 3319 
L 1388 1331 
Q 1503 1009 1600 663 
Q 1675 925 1809 1294 
L 2547 3319 
L 3125 3319 
L 1869 0 
L 1344 0 
z
" transform="scale(0.015625)"/>
      </defs>
      <use xlink:href="#ArialMT-41"/>
      <use xlink:href="#ArialMT-63" transform="translate(66.699219 0)"/>
      <use xlink:href="#ArialMT-63" transform="translate(116.699219 0)"/>
      <use xlink:href="#ArialMT-75" transform="translate(166.699219 0)"/>
      <use xlink:href="#ArialMT-6d" transform="translate(222.314453 0)"/>
      <use xlink:href="#ArialMT-75" transform="translate(305.615234 0)"/>
      <use xlink:href="#ArialMT-6c" transform="translate(361.230469 0)"/>
      <use xlink:href="#ArialMT-61" transform="translate(383.447266 0)"/>
      <use xlink:href="#ArialMT-74" transform="translate(439.0625 0)"/>
      <use xlink:href="#ArialMT-65" transform="translate(466.845703 0)"/>
      <use xlink:href="#ArialMT-64" transform="translate(522.460938 0)"/>
      <use xlink:href="#ArialMT-20" transform="translate(578.076172 0)"/>
      <use xlink:href="#ArialMT-45" transform="translate(605.859375 0)"/>
      <use xlink:href="#ArialMT-76" transform="translate(672.558594 0)"/>
      <use xlink:href="#ArialMT-69" transform="translate(722.558594 0)"/>
      <use xlink:href="#ArialMT-64" transform="translate(744.775391 0)"/>
      <use xlink:href="#ArialMT-65" transform="translate(800.390625 0)"/>
      <use xlink:href="#ArialMT-6e" transform="translate(856.005859 0)"/>
      <use xlink:href="#ArialMT-63" transform="translate(911.621094 0)"/>
      <use xlink:href="#ArialMT-65" transform="translate(961.621094 0)"/>
     </g>
    </g>
   </g>
   <g id="LineCollection_1">
    <path d="M 31.5 109.985432 
L 31.5 101.33884 
" clip-path="url(#p3c847753d5)" style="fill: none; stroke: #0000ff; stroke-width: 1.5"/>
    <path d="M 40.5 119.969423 
L 40.5 107.407721 
" clip-path="url(#p3c847753d5)" style="fill: none; stroke: #0000ff; stroke-width: 1.5"/>
    <path d="M 49.5 127.703428 
L 49.5 108.629551 
" clip-path="url(#p3c847753d5)" style="fill: none; stroke: #0000ff; stroke-width: 1.5"/>
    <path d="M 58.5 131.827849 
L 58.5 108.601271 
" clip-path="url(#p3c847753d5)" style="fill: none; stroke: #0000ff; stroke-width: 1.5"/>
    <path d="M 67.5 134.861492 
L 67.5 107.917463 
" clip-path="url(#p3c847753d5)" style="fill: none; stroke: #0000ff; stroke-width: 1.5"/>
    <path d="M 76.5 137.011215 
L 76.5 106.790023 
" clip-path="url(#p3c847753d5)" style="fill: none; stroke: #0000ff; stroke-width: 1.5"/>
    <path d="M 85.5 138.806927 
L 85.5 106.591956 
" clip-path="url(#p3c847753d5)" style="fill: none; stroke: #0000ff; stroke-width: 1.5"/>
    <path d="M 94.5 140.156173 
L 94.5 104.85357 
" clip-path="url(#p3c847753d5)" style="fill: none; stroke: #0000ff; stroke-width: 1.5"/>
    <path d="M 103.5 141.750951 
L 103.5 103.829502 
" clip-path="url(#p3c847753d5)" style="fill: none; stroke: #0000ff; stroke-width: 1.5"/>
    <path d="M 112.5 139.90906 
L 112.5 101.845598 
" clip-path="url(#p3c847753d5)" style="fill: none; stroke: #0000ff; stroke-width: 1.5"/>
    <path d="M 121.5 139.18348 
L 121.5 102.98452 
" clip-path="url(#p3c847753d5)" style="fill: none; stroke: #0000ff; stroke-width: 1.5"/>
    <path d="M 130.5 134.492974 
L 130.5 95.922026 
" clip-path="url(#p3c847753d5)" style="fill: none; stroke: #0000ff; stroke-width: 1.5"/>
    <path d="M 139.5 134.238599 
L 139.5 91.315519 
" clip-path="url(#p3c847753d5)" style="fill: none; stroke: #0000ff; stroke-width: 1.5"/>
    <path d="M 148.5 124.131873 
L 148.5 94.320127 
" clip-path="url(#p3c847753d5)" style="fill: none; stroke: #0000ff; stroke-width: 1.5"/>
    <path d="M 157.5 109.757297 
L 157.5 90.522703 
" clip-path="url(#p3c847753d5)" style="fill: none; stroke: #0000ff; stroke-width: 1.5"/>
   </g>
   <g id="line2d_12">
    <defs>
     <path id="mee999bfae5" d="M 5 0 
L -5 -0 
" style="stroke: #0000ff"/>
    </defs>
    <g clip-path="url(#p3c847753d5)">
     <use xlink:href="#mee999bfae5" x="31.5" y="109.985432" style="fill: #0000ff; stroke: #0000ff"/>
     <use xlink:href="#mee999bfae5" x="40.5" y="119.969423" style="fill: #0000ff; stroke: #0000ff"/>
     <use xlink:href="#mee999bfae5" x="49.5" y="127.703428" style="fill: #0000ff; stroke: #0000ff"/>
     <use xlink:href="#mee999bfae5" x="58.5" y="131.827849" style="fill: #0000ff; stroke: #0000ff"/>
     <use xlink:href="#mee999bfae5" x="67.5" y="134.861492" style="fill: #0000ff; stroke: #0000ff"/>
     <use xlink:href="#mee999bfae5" x="76.5" y="137.011215" style="fill: #0000ff; stroke: #0000ff"/>
     <use xlink:href="#mee999bfae5" x="85.5" y="138.806927" style="fill: #0000ff; stroke: #0000ff"/>
     <use xlink:href="#mee999bfae5" x="94.5" y="140.156173" style="fill: #0000ff; stroke: #0000ff"/>
     <use xlink:href="#mee999bfae5" x="103.5" y="141.750951" style="fill: #0000ff; stroke: #0000ff"/>
     <use xlink:href="#mee999bfae5" x="112.5" y="139.90906" style="fill: #0000ff; stroke: #0000ff"/>
     <use xlink:href="#mee999bfae5" x="121.5" y="139.18348" style="fill: #0000ff; stroke: #0000ff"/>
     <use xlink:href="#mee999bfae5" x="130.5" y="134.492974" style="fill: #0000ff; stroke: #0000ff"/>
     <use xlink:href="#mee999bfae5" x="139.5" y="134.238599" style="fill: #0000ff; stroke: #0000ff"/>
     <use xlink:href="#mee999bfae5" x="148.5" y="124.131873" style="fill: #0000ff; stroke: #0000ff"/>
     <use xlink:href="#mee999bfae5" x="157.5" y="109.757297" style="fill: #0000ff; stroke: #0000ff"/>
    </g>
   </g>
   <g id="line2d_13">
    <g clip-path="url(#p3c847753d5)">
     <use xlink:href="#mee999bfae5" x="31.5" y="101.33884" style="fill: #0000ff; stroke: #0000ff"/>
     <use xlink:href="#mee999bfae5" x="40.5" y="107.407721" style="fill: #0000ff; stroke: #0000ff"/>
     <use xlink:href="#mee999bfae5" x="49.5" y="108.629551" style="fill: #0000ff; stroke: #0000ff"/>
     <use xlink:href="#mee999bfae5" x="58.5" y="108.601271" style="fill: #0000ff; stroke: #0000ff"/>
     <use xlink:href="#mee999bfae5" x="67.5" y="107.917463" style="fill: #0000ff; stroke: #0000ff"/>
     <use xlink:href="#mee999bfae5" x="76.5" y="106.790023" style="fill: #0000ff; stroke: #0000ff"/>
     <use xlink:href="#mee999bfae5" x="85.5" y="106.591956" style="fill: #0000ff; stroke: #0000ff"/>
     <use xlink:href="#mee999bfae5" x="94.5" y="104.85357" style="fill: #0000ff; stroke: #0000ff"/>
     <use xlink:href="#mee999bfae5" x="103.5" y="103.829502" style="fill: #0000ff; stroke: #0000ff"/>
     <use xlink:href="#mee999bfae5" x="112.5" y="101.845598" style="fill: #0000ff; stroke: #0000ff"/>
     <use xlink:href="#mee999bfae5" x="121.5" y="102.98452" style="fill: #0000ff; stroke: #0000ff"/>
     <use xlink:href="#mee999bfae5" x="130.5" y="95.922026" style="fill: #0000ff; stroke: #0000ff"/>
     <use xlink:href="#mee999bfae5" x="139.5" y="91.315519" style="fill: #0000ff; stroke: #0000ff"/>
     <use xlink:href="#mee999bfae5" x="148.5" y="94.320127" style="fill: #0000ff; stroke: #0000ff"/>
     <use xlink:href="#mee999bfae5" x="157.5" y="90.522703" style="fill: #0000ff; stroke: #0000ff"/>
    </g>
   </g>
   <g id="LineCollection_2">
    <path d="M 31.5 80.015776 
L 31.5 71.213024 
" clip-path="url(#p3c847753d5)" style="fill: none; stroke: #ff0000; stroke-width: 1.5"/>
    <path d="M 40.5 74.224169 
L 40.5 61.962188 
" clip-path="url(#p3c847753d5)" style="fill: none; stroke: #ff0000; stroke-width: 1.5"/>
    <path d="M 49.5 73.303074 
L 49.5 54.567585 
" clip-path="url(#p3c847753d5)" style="fill: none; stroke: #ff0000; stroke-width: 1.5"/>
    <path d="M 58.5 73.06592 
L 58.5 50.55187 
" clip-path="url(#p3c847753d5)" style="fill: none; stroke: #ff0000; stroke-width: 1.5"/>
    <path d="M 67.5 73.224575 
L 67.5 47.678524 
" clip-path="url(#p3c847753d5)" style="fill: none; stroke: #ff0000; stroke-width: 1.5"/>
    <path d="M 76.5 74.143985 
L 76.5 46.592351 
" clip-path="url(#p3c847753d5)" style="fill: none; stroke: #ff0000; stroke-width: 1.5"/>
    <path d="M 85.5 75.089683 
L 85.5 44.8896 
" clip-path="url(#p3c847753d5)" style="fill: none; stroke: #ff0000; stroke-width: 1.5"/>
    <path d="M 94.5 75.368106 
L 94.5 40.759679 
" clip-path="url(#p3c847753d5)" style="fill: none; stroke: #ff0000; stroke-width: 1.5"/>
    <path d="M 103.5 77.093671 
L 103.5 40.51367 
" clip-path="url(#p3c847753d5)" style="fill: none; stroke: #ff0000; stroke-width: 1.5"/>
    <path d="M 112.5 75.581327 
L 112.5 40.880717 
" clip-path="url(#p3c847753d5)" style="fill: none; stroke: #ff0000; stroke-width: 1.5"/>
    <path d="M 121.5 74.793191 
L 121.5 38.180655 
" clip-path="url(#p3c847753d5)" style="fill: none; stroke: #ff0000; stroke-width: 1.5"/>
    <path d="M 130.5 81.366754 
L 130.5 42.732395 
" clip-path="url(#p3c847753d5)" style="fill: none; stroke: #ff0000; stroke-width: 1.5"/>
    <path d="M 139.5 88.190515 
L 139.5 49.257485 
" clip-path="url(#p3c847753d5)" style="fill: none; stroke: #ff0000; stroke-width: 1.5"/>
    <path d="M 148.5 82.308511 
L 148.5 52.367489 
" clip-path="url(#p3c847753d5)" style="fill: none; stroke: #ff0000; stroke-width: 1.5"/>
    <path d="M 157.5 89.491984 
L 157.5 58.648016 
" clip-path="url(#p3c847753d5)" style="fill: none; stroke: #ff0000; stroke-width: 1.5"/>
   </g>
   <g id="line2d_14">
    <defs>
     <path id="m267a58f308" d="M 5 0 
L -5 -0 
" style="stroke: #ff0000"/>
    </defs>
    <g clip-path="url(#p3c847753d5)">
     <use xlink:href="#m267a58f308" x="31.5" y="80.015776" style="fill: #ff0000; stroke: #ff0000"/>
     <use xlink:href="#m267a58f308" x="40.5" y="74.224169" style="fill: #ff0000; stroke: #ff0000"/>
     <use xlink:href="#m267a58f308" x="49.5" y="73.303074" style="fill: #ff0000; stroke: #ff0000"/>
     <use xlink:href="#m267a58f308" x="58.5" y="73.06592" style="fill: #ff0000; stroke: #ff0000"/>
     <use xlink:href="#m267a58f308" x="67.5" y="73.224575" style="fill: #ff0000; stroke: #ff0000"/>
     <use xlink:href="#m267a58f308" x="76.5" y="74.143985" style="fill: #ff0000; stroke: #ff0000"/>
     <use xlink:href="#m267a58f308" x="85.5" y="75.089683" style="fill: #ff0000; stroke: #ff0000"/>
     <use xlink:href="#m267a58f308" x="94.5" y="75.368106" style="fill: #ff0000; stroke: #ff0000"/>
     <use xlink:href="#m267a58f308" x="103.5" y="77.093671" style="fill: #ff0000; stroke: #ff0000"/>
     <use xlink:href="#m267a58f308" x="112.5" y="75.581327" style="fill: #ff0000; stroke: #ff0000"/>
     <use xlink:href="#m267a58f308" x="121.5" y="74.793191" style="fill: #ff0000; stroke: #ff0000"/>
     <use xlink:href="#m267a58f308" x="130.5" y="81.366754" style="fill: #ff0000; stroke: #ff0000"/>
     <use xlink:href="#m267a58f308" x="139.5" y="88.190515" style="fill: #ff0000; stroke: #ff0000"/>
     <use xlink:href="#m267a58f308" x="148.5" y="82.308511" style="fill: #ff0000; stroke: #ff0000"/>
     <use xlink:href="#m267a58f308" x="157.5" y="89.491984" style="fill: #ff0000; stroke: #ff0000"/>
    </g>
   </g>
   <g id="line2d_15">
    <g clip-path="url(#p3c847753d5)">
     <use xlink:href="#m267a58f308" x="31.5" y="71.213024" style="fill: #ff0000; stroke: #ff0000"/>
     <use xlink:href="#m267a58f308" x="40.5" y="61.962188" style="fill: #ff0000; stroke: #ff0000"/>
     <use xlink:href="#m267a58f308" x="49.5" y="54.567585" style="fill: #ff0000; stroke: #ff0000"/>
     <use xlink:href="#m267a58f308" x="58.5" y="50.55187" style="fill: #ff0000; stroke: #ff0000"/>
     <use xlink:href="#m267a58f308" x="67.5" y="47.678524" style="fill: #ff0000; stroke: #ff0000"/>
     <use xlink:href="#m267a58f308" x="76.5" y="46.592351" style="fill: #ff0000; stroke: #ff0000"/>
     <use xlink:href="#m267a58f308" x="85.5" y="44.8896" style="fill: #ff0000; stroke: #ff0000"/>
     <use xlink:href="#m267a58f308" x="94.5" y="40.759679" style="fill: #ff0000; stroke: #ff0000"/>
     <use xlink:href="#m267a58f308" x="103.5" y="40.51367" style="fill: #ff0000; stroke: #ff0000"/>
     <use xlink:href="#m267a58f308" x="112.5" y="40.880717" style="fill: #ff0000; stroke: #ff0000"/>
     <use xlink:href="#m267a58f308" x="121.5" y="38.180655" style="fill: #ff0000; stroke: #ff0000"/>
     <use xlink:href="#m267a58f308" x="130.5" y="42.732395" style="fill: #ff0000; stroke: #ff0000"/>
     <use xlink:href="#m267a58f308" x="139.5" y="49.257485" style="fill: #ff0000; stroke: #ff0000"/>
     <use xlink:href="#m267a58f308" x="148.5" y="52.367489" style="fill: #ff0000; stroke: #ff0000"/>
     <use xlink:href="#m267a58f308" x="157.5" y="58.648016" style="fill: #ff0000; stroke: #ff0000"/>
    </g>
   </g>
   <g id="LineCollection_3">
    <path d="M 22.5 90.9 
L 112.5 90.9 
" clip-path="url(#p3c847753d5)" style="fill: none; stroke-dasharray: 1.85,0.8; stroke-dashoffset: 0; stroke: #000000; stroke-width: 0.5"/>
   </g>
   <g id="LineCollection_4">
    <path d="M 112.5 160.2 
L 112.5 21.6 
" clip-path="url(#p3c847753d5)" style="fill: none; stroke-dasharray: 1.85,0.8; stroke-dashoffset: 0; stroke: #000000; stroke-width: 0.5"/>
   </g>
   <g id="line2d_16">
    <path d="M 31.5 105.662136 
L 40.5 113.688572 
L 49.5 118.166489 
L 58.5 120.21456 
L 67.5 121.389477 
L 76.5 121.900619 
L 85.5 122.699441 
L 94.5 122.504871 
L 103.5 122.790227 
L 112.5 120.877329 
L 121.5 121.084 
L 130.5 115.2075 
L 139.5 112.777059 
L 148.5 109.226 
L 157.5 100.14 
" clip-path="url(#p3c847753d5)" style="fill: none; stroke: #0000ff; stroke-width: 1.5; stroke-linecap: square"/>
    <defs>
     <path id="m70804dbdb3" d="M 0 2 
C 0.530406 2 1.03916 1.789267 1.414214 1.414214 
C 1.789267 1.03916 2 0.530406 2 0 
C 2 -0.530406 1.789267 -1.03916 1.414214 -1.414214 
C 1.03916 -1.789267 0.530406 -2 0 -2 
C -0.530406 -2 -1.03916 -1.789267 -1.414214 -1.414214 
C -1.789267 -1.03916 -2 -0.530406 -2 0 
C -2 0.530406 -1.789267 1.03916 -1.414214 1.414214 
C -1.03916 1.789267 -0.530406 2 0 2 
z
" style="stroke: #0000ff"/>
    </defs>
    <g clip-path="url(#p3c847753d5)">
     <use xlink:href="#m70804dbdb3" x="31.5" y="105.662136" style="fill: #0000ff; stroke: #0000ff"/>
     <use xlink:href="#m70804dbdb3" x="40.5" y="113.688572" style="fill: #0000ff; stroke: #0000ff"/>
     <use xlink:href="#m70804dbdb3" x="49.5" y="118.166489" style="fill: #0000ff; stroke: #0000ff"/>
     <use xlink:href="#m70804dbdb3" x="58.5" y="120.21456" style="fill: #0000ff; stroke: #0000ff"/>
     <use xlink:href="#m70804dbdb3" x="67.5" y="121.389477" style="fill: #0000ff; stroke: #0000ff"/>
     <use xlink:href="#m70804dbdb3" x="76.5" y="121.900619" style="fill: #0000ff; stroke: #0000ff"/>
     <use xlink:href="#m70804dbdb3" x="85.5" y="122.699441" style="fill: #0000ff; stroke: #0000ff"/>
     <use xlink:href="#m70804dbdb3" x="94.5" y="122.504871" style="fill: #0000ff; stroke: #0000ff"/>
     <use xlink:href="#m70804dbdb3" x="103.5" y="122.790227" style="fill: #0000ff; stroke: #0000ff"/>
     <use xlink:href="#m70804dbdb3" x="112.5" y="120.877329" style="fill: #0000ff; stroke: #0000ff"/>
     <use xlink:href="#m70804dbdb3" x="121.5" y="121.084" style="fill: #0000ff; stroke: #0000ff"/>
     <use xlink:href="#m70804dbdb3" x="130.5" y="115.2075" style="fill: #0000ff; stroke: #0000ff"/>
     <use xlink:href="#m70804dbdb3" x="139.5" y="112.777059" style="fill: #0000ff; stroke: #0000ff"/>
     <use xlink:href="#m70804dbdb3" x="148.5" y="109.226" style="fill: #0000ff; stroke: #0000ff"/>
     <use xlink:href="#m70804dbdb3" x="157.5" y="100.14" style="fill: #0000ff; stroke: #0000ff"/>
    </g>
   </g>
   <g id="line2d_17">
    <path d="M 31.5 75.6144 
L 40.5 68.093179 
L 49.5 63.93533 
L 58.5 61.808895 
L 67.5 60.451549 
L 76.5 60.368168 
L 85.5 59.989642 
L 94.5 58.063893 
L 103.5 58.803671 
L 112.5 58.231022 
L 121.5 56.486923 
L 130.5 62.049574 
L 139.5 68.724 
L 148.5 67.338 
L 157.5 74.07 
" clip-path="url(#p3c847753d5)" style="fill: none; stroke: #ff0000; stroke-width: 1.5; stroke-linecap: square"/>
    <defs>
     <path id="meec279f969" d="M -2 2 
L 2 2 
L 2 -2 
L -2 -2 
z
" style="stroke: #ff0000; stroke-linejoin: miter"/>
    </defs>
    <g clip-path="url(#p3c847753d5)">
     <use xlink:href="#meec279f969" x="31.5" y="75.6144" style="fill: #ff0000; stroke: #ff0000; stroke-linejoin: miter"/>
     <use xlink:href="#meec279f969" x="40.5" y="68.093179" style="fill: #ff0000; stroke: #ff0000; stroke-linejoin: miter"/>
     <use xlink:href="#meec279f969" x="49.5" y="63.93533" style="fill: #ff0000; stroke: #ff0000; stroke-linejoin: miter"/>
     <use xlink:href="#meec279f969" x="58.5" y="61.808895" style="fill: #ff0000; stroke: #ff0000; stroke-linejoin: miter"/>
     <use xlink:href="#meec279f969" x="67.5" y="60.451549" style="fill: #ff0000; stroke: #ff0000; stroke-linejoin: miter"/>
     <use xlink:href="#meec279f969" x="76.5" y="60.368168" style="fill: #ff0000; stroke: #ff0000; stroke-linejoin: miter"/>
     <use xlink:href="#meec279f969" x="85.5" y="59.989642" style="fill: #ff0000; stroke: #ff0000; stroke-linejoin: miter"/>
     <use xlink:href="#meec279f969" x="94.5" y="58.063893" style="fill: #ff0000; stroke: #ff0000; stroke-linejoin: miter"/>
     <use xlink:href="#meec279f969" x="103.5" y="58.803671" style="fill: #ff0000; stroke: #ff0000; stroke-linejoin: miter"/>
     <use xlink:href="#meec279f969" x="112.5" y="58.231022" style="fill: #ff0000; stroke: #ff0000; stroke-linejoin: miter"/>
     <use xlink:href="#meec279f969" x="121.5" y="56.486923" style="fill: #ff0000; stroke: #ff0000; stroke-linejoin: miter"/>
     <use xlink:href="#meec279f969" x="130.5" y="62.049574" style="fill: #ff0000; stroke: #ff0000; stroke-linejoin: miter"/>
     <use xlink:href="#meec279f969" x="139.5" y="68.724" style="fill: #ff0000; stroke: #ff0000; stroke-linejoin: miter"/>
     <use xlink:href="#meec279f969" x="148.5" y="67.338" style="fill: #ff0000; stroke: #ff0000; stroke-linejoin: miter"/>
     <use xlink:href="#meec279f969" x="157.5" y="74.07" style="fill: #ff0000; stroke: #ff0000; stroke-linejoin: miter"/>
    </g>
   </g>
   <g id="patch_3">
    <path d="M 22.5 160.2 
L 22.5 21.6 
" style="fill: none; stroke: #000000; stroke-width: 0.75; stroke-linejoin: miter; stroke-linecap: square"/>
   </g>
   <g id="patch_4">
    <path d="M 22.5 160.2 
L 162 160.2 
" style="fill: none; stroke: #000000; stroke-width: 0.75; stroke-linejoin: miter; stroke-linecap: square"/>
   </g>
   <g id="text_14">
    <!-- Decision Boundary vs Decision Time -->
    <g transform="translate(27.33625 15.6) scale(0.08 -0.08)">
     <defs>
      <path id="ArialMT-42" d="M 469 0 
L 469 4581 
L 2188 4581 
Q 2713 4581 3030 4442 
Q 3347 4303 3526 4014 
Q 3706 3725 3706 3409 
Q 3706 3116 3547 2856 
Q 3388 2597 3066 2438 
Q 3481 2316 3704 2022 
Q 3928 1728 3928 1328 
Q 3928 1006 3792 729 
Q 3656 453 3456 303 
Q 3256 153 2954 76 
Q 2653 0 2216 0 
L 469 0 
z
M 1075 2656 
L 2066 2656 
Q 2469 2656 2644 2709 
Q 2875 2778 2992 2937 
Q 3109 3097 3109 3338 
Q 3109 3566 3000 3739 
Q 2891 3913 2687 3977 
Q 2484 4041 1991 4041 
L 1075 4041 
L 1075 2656 
z
M 1075 541 
L 2216 541 
Q 2509 541 2628 563 
Q 2838 600 2978 687 
Q 3119 775 3209 942 
Q 3300 1109 3300 1328 
Q 3300 1584 3169 1773 
Q 3038 1963 2805 2039 
Q 2572 2116 2134 2116 
L 1075 2116 
L 1075 541 
z
" transform="scale(0.015625)"/>
      <path id="ArialMT-72" d="M 416 0 
L 416 3319 
L 922 3319 
L 922 2816 
Q 1116 3169 1280 3281 
Q 1444 3394 1641 3394 
Q 1925 3394 2219 3213 
L 2025 2691 
Q 1819 2813 1613 2813 
Q 1428 2813 1281 2702 
Q 1134 2591 1072 2394 
Q 978 2094 978 1738 
L 978 0 
L 416 0 
z
" transform="scale(0.015625)"/>
      <path id="ArialMT-79" d="M 397 -1278 
L 334 -750 
Q 519 -800 656 -800 
Q 844 -800 956 -737 
Q 1069 -675 1141 -563 
Q 1194 -478 1313 -144 
Q 1328 -97 1363 -6 
L 103 3319 
L 709 3319 
L 1400 1397 
Q 1534 1031 1641 628 
Q 1738 1016 1872 1384 
L 2581 3319 
L 3144 3319 
L 1881 -56 
Q 1678 -603 1566 -809 
Q 1416 -1088 1222 -1217 
Q 1028 -1347 759 -1347 
Q 597 -1347 397 -1278 
z
" transform="scale(0.015625)"/>
     </defs>
     <use xlink:href="#ArialMT-44"/>
     <use xlink:href="#ArialMT-65" transform="translate(72.216797 0)"/>
     <use xlink:href="#ArialMT-63" transform="translate(127.832031 0)"/>
     <use xlink:href="#ArialMT-69" transform="translate(177.832031 0)"/>
     <use xlink:href="#ArialMT-73" transform="translate(200.048828 0)"/>
     <use xlink:href="#ArialMT-69" transform="translate(250.048828 0)"/>
     <use xlink:href="#ArialMT-6f" transform="translate(272.265625 0)"/>
     <use xlink:href="#ArialMT-6e" transform="translate(327.880859 0)"/>
     <use xlink:href="#ArialMT-20" transform="translate(383.496094 0)"/>
     <use xlink:href="#ArialMT-42" transform="translate(411.279297 0)"/>
     <use xlink:href="#ArialMT-6f" transform="translate(477.978516 0)"/>
     <use xlink:href="#ArialMT-75" transform="translate(533.59375 0)"/>
     <use xlink:href="#ArialMT-6e" transform="translate(589.208984 0)"/>
     <use xlink:href="#ArialMT-64" transform="translate(644.824219 0)"/>
     <use xlink:href="#ArialMT-61" transform="translate(700.439453 0)"/>
     <use xlink:href="#ArialMT-72" transform="translate(756.054688 0)"/>
     <use xlink:href="#ArialMT-79" transform="translate(789.355469 0)"/>
     <use xlink:href="#ArialMT-20" transform="translate(839.355469 0)"/>
     <use xlink:href="#ArialMT-76" transform="translate(867.138672 0)"/>
     <use xlink:href="#ArialMT-73" transform="translate(917.138672 0)"/>
     <use xlink:href="#ArialMT-20" transform="translate(967.138672 0)"/>
     <use xlink:href="#ArialMT-44" transform="translate(994.921875 0)"/>
     <use xlink:href="#ArialMT-65" transform="translate(1067.138672 0)"/>
     <use xlink:href="#ArialMT-63" transform="translate(1122.753906 0)"/>
     <use xlink:href="#ArialMT-69" transform="translate(1172.753906 0)"/>
     <use xlink:href="#ArialMT-73" transform="translate(1194.970703 0)"/>
     <use xlink:href="#ArialMT-69" transform="translate(1244.970703 0)"/>
     <use xlink:href="#ArialMT-6f" transform="translate(1267.1875 0)"/>
     <use xlink:href="#ArialMT-6e" transform="translate(1322.802734 0)"/>
     <use xlink:href="#ArialMT-20" transform="translate(1378.417969 0)"/>
     <use xlink:href="#ArialMT-54" transform="translate(1404.451172 0)"/>
     <use xlink:href="#ArialMT-69" transform="translate(1461.785156 0)"/>
     <use xlink:href="#ArialMT-6d" transform="translate(1484.001953 0)"/>
     <use xlink:href="#ArialMT-65" transform="translate(1567.302734 0)"/>
    </g>
   </g>
   <g id="legend_1">
    <g id="patch_5">
     <path d="M 74.982344 47.003437 
L 157.1 47.003437 
Q 158.5 47.003437 158.5 45.603437 
L 158.5 26.5 
Q 158.5 25.1 157.1 25.1 
L 74.982344 25.1 
Q 73.582344 25.1 73.582344 26.5 
L 73.582344 45.603437 
Q 73.582344 47.003437 74.982344 47.003437 
z
" style="fill: #ffffff; opacity: 0.8; stroke: #cccccc; stroke-linejoin: miter"/>
    </g>
    <g id="LineCollection_5">
     <path d="M 83.382344 33.960469 
L 83.382344 26.960469 
" style="fill: none; stroke: #0000ff; stroke-width: 1.5"/>
    </g>
    <g id="line2d_18">
     <g>
      <use xlink:href="#mee999bfae5" x="83.382344" y="33.960469" style="fill: #0000ff; stroke: #0000ff"/>
     </g>
    </g>
    <g id="line2d_19">
     <g>
      <use xlink:href="#mee999bfae5" x="83.382344" y="26.960469" style="fill: #0000ff; stroke: #0000ff"/>
     </g>
    </g>
    <g id="line2d_20">
     <path d="M 76.382344 30.460469 
L 90.382344 30.460469 
" style="fill: none; stroke: #0000ff; stroke-width: 1.5; stroke-linecap: square"/>
    </g>
    <g id="line2d_21">
     <g>
      <use xlink:href="#m70804dbdb3" x="83.382344" y="30.460469" style="fill: #0000ff; stroke: #0000ff"/>
     </g>
    </g>
    <g id="text_15">
     <!-- Correct Answer = 0 -->
     <g transform="translate(95.982344 32.910469) scale(0.07 -0.07)">
      <defs>
       <path id="ArialMT-43" d="M 3763 1606 
L 4369 1453 
Q 4178 706 3683 314 
Q 3188 -78 2472 -78 
Q 1731 -78 1267 223 
Q 803 525 561 1097 
Q 319 1669 319 2325 
Q 319 3041 592 3573 
Q 866 4106 1370 4382 
Q 1875 4659 2481 4659 
Q 3169 4659 3637 4309 
Q 4106 3959 4291 3325 
L 3694 3184 
Q 3534 3684 3231 3912 
Q 2928 4141 2469 4141 
Q 1941 4141 1586 3887 
Q 1231 3634 1087 3207 
Q 944 2781 944 2328 
Q 944 1744 1114 1308 
Q 1284 872 1643 656 
Q 2003 441 2422 441 
Q 2931 441 3284 734 
Q 3638 1028 3763 1606 
z
" transform="scale(0.015625)"/>
       <path id="ArialMT-77" d="M 1034 0 
L 19 3319 
L 600 3319 
L 1128 1403 
L 1325 691 
Q 1338 744 1497 1375 
L 2025 3319 
L 2603 3319 
L 3100 1394 
L 3266 759 
L 3456 1400 
L 4025 3319 
L 4572 3319 
L 3534 0 
L 2950 0 
L 2422 1988 
L 2294 2553 
L 1622 0 
L 1034 0 
z
" transform="scale(0.015625)"/>
       <path id="ArialMT-3d" d="M 3381 2694 
L 356 2694 
L 356 3219 
L 3381 3219 
L 3381 2694 
z
M 3381 1303 
L 356 1303 
L 356 1828 
L 3381 1828 
L 3381 1303 
z
" transform="scale(0.015625)"/>
      </defs>
      <use xlink:href="#ArialMT-43"/>
      <use xlink:href="#ArialMT-6f" transform="translate(72.216797 0)"/>
      <use xlink:href="#ArialMT-72" transform="translate(127.832031 0)"/>
      <use xlink:href="#ArialMT-72" transform="translate(161.132812 0)"/>
      <use xlink:href="#ArialMT-65" transform="translate(194.433594 0)"/>
      <use xlink:href="#ArialMT-63" transform="translate(250.048828 0)"/>
      <use xlink:href="#ArialMT-74" transform="translate(300.048828 0)"/>
      <use xlink:href="#ArialMT-20" transform="translate(327.832031 0)"/>
      <use xlink:href="#ArialMT-41" transform="translate(350.115234 0)"/>
      <use xlink:href="#ArialMT-6e" transform="translate(416.814453 0)"/>
      <use xlink:href="#ArialMT-73" transform="translate(472.429688 0)"/>
      <use xlink:href="#ArialMT-77" transform="translate(522.429688 0)"/>
      <use xlink:href="#ArialMT-65" transform="translate(594.646484 0)"/>
      <use xlink:href="#ArialMT-72" transform="translate(650.261719 0)"/>
      <use xlink:href="#ArialMT-20" transform="translate(683.5625 0)"/>
      <use xlink:href="#ArialMT-3d" transform="translate(711.345703 0)"/>
      <use xlink:href="#ArialMT-20" transform="translate(769.744141 0)"/>
      <use xlink:href="#ArialMT-30" transform="translate(797.527344 0)"/>
     </g>
    </g>
    <g id="LineCollection_6">
     <path d="M 83.382344 43.862187 
L 83.382344 36.862187 
" style="fill: none; stroke: #ff0000; stroke-width: 1.5"/>
    </g>
    <g id="line2d_22">
     <g>
      <use xlink:href="#m267a58f308" x="83.382344" y="43.862187" style="fill: #ff0000; stroke: #ff0000"/>
     </g>
    </g>
    <g id="line2d_23">
     <g>
      <use xlink:href="#m267a58f308" x="83.382344" y="36.862187" style="fill: #ff0000; stroke: #ff0000"/>
     </g>
    </g>
    <g id="line2d_24">
     <path d="M 76.382344 40.362187 
L 90.382344 40.362187 
" style="fill: none; stroke: #ff0000; stroke-width: 1.5; stroke-linecap: square"/>
    </g>
    <g id="line2d_25">
     <g>
      <use xlink:href="#meec279f969" x="83.382344" y="40.362187" style="fill: #ff0000; stroke: #ff0000; stroke-linejoin: miter"/>
     </g>
    </g>
    <g id="text_16">
     <!-- Correct Answer = 1 -->
     <g transform="translate(95.982344 42.812187) scale(0.07 -0.07)">
      <use xlink:href="#ArialMT-43"/>
      <use xlink:href="#ArialMT-6f" transform="translate(72.216797 0)"/>
      <use xlink:href="#ArialMT-72" transform="translate(127.832031 0)"/>
      <use xlink:href="#ArialMT-72" transform="translate(161.132812 0)"/>
      <use xlink:href="#ArialMT-65" transform="translate(194.433594 0)"/>
      <use xlink:href="#ArialMT-63" transform="translate(250.048828 0)"/>
      <use xlink:href="#ArialMT-74" transform="translate(300.048828 0)"/>
      <use xlink:href="#ArialMT-20" transform="translate(327.832031 0)"/>
      <use xlink:href="#ArialMT-41" transform="translate(350.115234 0)"/>
      <use xlink:href="#ArialMT-6e" transform="translate(416.814453 0)"/>
      <use xlink:href="#ArialMT-73" transform="translate(472.429688 0)"/>
      <use xlink:href="#ArialMT-77" transform="translate(522.429688 0)"/>
      <use xlink:href="#ArialMT-65" transform="translate(594.646484 0)"/>
      <use xlink:href="#ArialMT-72" transform="translate(650.261719 0)"/>
      <use xlink:href="#ArialMT-20" transform="translate(683.5625 0)"/>
      <use xlink:href="#ArialMT-3d" transform="translate(711.345703 0)"/>
      <use xlink:href="#ArialMT-20" transform="translate(769.744141 0)"/>
      <use xlink:href="#ArialMT-31" transform="translate(797.527344 0)"/>
     </g>
    </g>
   </g>
  </g>
 </g>
 <defs>
  <clipPath id="p3c847753d5">
   <rect x="22.5" y="21.6" width="139.5" height="138.6"/>
  </clipPath>
 </defs>
</svg>
