<?xml version="1.0" encoding="utf-8" standalone="no"?>
<!DOCTYPE svg PUBLIC "-//W3C//DTD SVG 1.1//EN"
  "http://www.w3.org/Graphics/SVG/1.1/DTD/svg11.dtd">
<svg xmlns:xlink="http://www.w3.org/1999/xlink" width="180pt" height="180pt" viewBox="0 0 180 180" xmlns="http://www.w3.org/2000/svg" version="1.1">
 <metadata>
  <rdf:RDF xmlns:dc="http://purl.org/dc/elements/1.1/" xmlns:cc="http://creativecommons.org/ns#" xmlns:rdf="http://www.w3.org/1999/02/22-rdf-syntax-ns#">
   <cc:Work>
    <dc:type rdf:resource="http://purl.org/dc/dcmitype/StillImage"/>
    <dc:date>2025-08-06T12:18:30.736359</dc:date>
    <dc:format>image/svg+xml</dc:format>
    <dc:creator>
     <cc:Agent>
      <dc:title>Matplotlib v3.10.0, https://matplotlib.org/</dc:title>
     </cc:Agent>
    </dc:creator>
   </cc:Work>
  </rdf:RDF>
 </metadata>
 <defs>
  <style type="text/css">*{stroke-linejoin: round; stroke-linecap: butt}</style>
 </defs>
 <g id="figure_1">
  <g id="patch_1">
   <path d="M 0 180 
L 180 180 
L 180 0 
L 0 0 
z
" style="fill: #ffffff"/>
  </g>
  <g id="axes_1">
   <g id="patch_2">
    <path d="M 28.65 148.74 
L 169.2 148.74 
L 169.2 10.8 
L 28.65 10.8 
z
" style="fill: #ffffff"/>
   </g>
   <g id="matplotlib.axis_1">
    <g id="xtick_1">
     <g id="line2d_1">
      <defs>
       <path id="m5b6f07287a" d="M 0 0 
L 0 -2 
" style="stroke: #000000; stroke-width: 0.5"/>
      </defs>
      <g>
       <use xlink:href="#m5b6f07287a" x="33.042188" y="148.74" style="stroke: #000000; stroke-width: 0.5"/>
      </g>
     </g>
     <g id="text_1">
      <!-- 0 -->
      <g transform="translate(31.095859 157.250469) scale(0.07 -0.07)">
       <defs>
        <path id="ArialMT-30" d="M 266 2259 
Q 266 3072 433 3567 
Q 600 4063 929 4331 
Q 1259 4600 1759 4600 
Q 2128 4600 2406 4451 
Q 2684 4303 2865 4023 
Q 3047 3744 3150 3342 
Q 3253 2941 3253 2259 
Q 3253 1453 3087 958 
Q 2922 463 2592 192 
Q 2263 -78 1759 -78 
Q 1097 -78 719 397 
Q 266 969 266 2259 
z
M 844 2259 
Q 844 1131 1108 757 
Q 1372 384 1759 384 
Q 2147 384 2411 759 
Q 2675 1134 2675 2259 
Q 2675 3391 2411 3762 
Q 2147 4134 1753 4134 
Q 1366 4134 1134 3806 
Q 844 3388 844 2259 
z
" transform="scale(0.015625)"/>
       </defs>
       <use xlink:href="#ArialMT-30"/>
      </g>
     </g>
    </g>
    <g id="xtick_2">
     <g id="line2d_2">
      <g>
       <use xlink:href="#m5b6f07287a" x="76.964062" y="148.74" style="stroke: #000000; stroke-width: 0.5"/>
      </g>
     </g>
     <g id="text_2">
      <!-- 5 -->
      <g transform="translate(75.017734 157.250469) scale(0.07 -0.07)">
       <defs>
        <path id="ArialMT-35" d="M 266 1200 
L 856 1250 
Q 922 819 1161 601 
Q 1400 384 1738 384 
Q 2144 384 2425 690 
Q 2706 997 2706 1503 
Q 2706 1984 2436 2262 
Q 2166 2541 1728 2541 
Q 1456 2541 1237 2417 
Q 1019 2294 894 2097 
L 366 2166 
L 809 4519 
L 3088 4519 
L 3088 3981 
L 1259 3981 
L 1013 2750 
Q 1425 3038 1878 3038 
Q 2478 3038 2890 2622 
Q 3303 2206 3303 1553 
Q 3303 931 2941 478 
Q 2500 -78 1738 -78 
Q 1113 -78 717 272 
Q 322 622 266 1200 
z
" transform="scale(0.015625)"/>
       </defs>
       <use xlink:href="#ArialMT-35"/>
      </g>
     </g>
    </g>
    <g id="xtick_3">
     <g id="line2d_3">
      <g>
       <use xlink:href="#m5b6f07287a" x="120.885937" y="148.74" style="stroke: #000000; stroke-width: 0.5"/>
      </g>
     </g>
     <g id="text_3">
      <!-- 10 -->
      <g transform="translate(116.993281 157.250469) scale(0.07 -0.07)">
       <defs>
        <path id="ArialMT-31" d="M 2384 0 
L 1822 0 
L 1822 3584 
Q 1619 3391 1289 3197 
Q 959 3003 697 2906 
L 697 3450 
Q 1169 3672 1522 3987 
Q 1875 4303 2022 4600 
L 2384 4600 
L 2384 0 
z
" transform="scale(0.015625)"/>
       </defs>
       <use xlink:href="#ArialMT-31"/>
       <use xlink:href="#ArialMT-30" transform="translate(55.615234 0)"/>
      </g>
     </g>
    </g>
    <g id="xtick_4">
     <g id="line2d_4">
      <g>
       <use xlink:href="#m5b6f07287a" x="164.807812" y="148.74" style="stroke: #000000; stroke-width: 0.5"/>
      </g>
     </g>
     <g id="text_4">
      <!-- 15 -->
      <g transform="translate(160.915156 157.250469) scale(0.07 -0.07)">
       <use xlink:href="#ArialMT-31"/>
       <use xlink:href="#ArialMT-35" transform="translate(55.615234 0)"/>
      </g>
     </g>
    </g>
    <g id="text_5">
     <!-- Timesteps -->
     <g transform="translate(82.914141 167.652187) scale(0.07 -0.07)">
      <defs>
       <path id="ArialMT-54" d="M 1659 0 
L 1659 4041 
L 150 4041 
L 150 4581 
L 3781 4581 
L 3781 4041 
L 2266 4041 
L 2266 0 
L 1659 0 
z
" transform="scale(0.015625)"/>
       <path id="ArialMT-69" d="M 425 3934 
L 425 4581 
L 988 4581 
L 988 3934 
L 425 3934 
z
M 425 0 
L 425 3319 
L 988 3319 
L 988 0 
L 425 0 
z
" transform="scale(0.015625)"/>
       <path id="ArialMT-6d" d="M 422 0 
L 422 3319 
L 925 3319 
L 925 2853 
Q 1081 3097 1340 3245 
Q 1600 3394 1931 3394 
Q 2300 3394 2536 3241 
Q 2772 3088 2869 2813 
Q 3263 3394 3894 3394 
Q 4388 3394 4653 3120 
Q 4919 2847 4919 2278 
L 4919 0 
L 4359 0 
L 4359 2091 
Q 4359 2428 4304 2576 
Q 4250 2725 4106 2815 
Q 3963 2906 3769 2906 
Q 3419 2906 3187 2673 
Q 2956 2441 2956 1928 
L 2956 0 
L 2394 0 
L 2394 2156 
Q 2394 2531 2256 2718 
Q 2119 2906 1806 2906 
Q 1569 2906 1367 2781 
Q 1166 2656 1075 2415 
Q 984 2175 984 1722 
L 984 0 
L 422 0 
z
" transform="scale(0.015625)"/>
       <path id="ArialMT-65" d="M 2694 1069 
L 3275 997 
Q 3138 488 2766 206 
Q 2394 -75 1816 -75 
Q 1088 -75 661 373 
Q 234 822 234 1631 
Q 234 2469 665 2931 
Q 1097 3394 1784 3394 
Q 2450 3394 2872 2941 
Q 3294 2488 3294 1666 
Q 3294 1616 3291 1516 
L 816 1516 
Q 847 969 1125 678 
Q 1403 388 1819 388 
Q 2128 388 2347 550 
Q 2566 713 2694 1069 
z
M 847 1978 
L 2700 1978 
Q 2663 2397 2488 2606 
Q 2219 2931 1791 2931 
Q 1403 2931 1139 2672 
Q 875 2413 847 1978 
z
" transform="scale(0.015625)"/>
       <path id="ArialMT-73" d="M 197 991 
L 753 1078 
Q 800 744 1014 566 
Q 1228 388 1613 388 
Q 2000 388 2187 545 
Q 2375 703 2375 916 
Q 2375 1106 2209 1216 
Q 2094 1291 1634 1406 
Q 1016 1563 777 1677 
Q 538 1791 414 1992 
Q 291 2194 291 2438 
Q 291 2659 392 2848 
Q 494 3038 669 3163 
Q 800 3259 1026 3326 
Q 1253 3394 1513 3394 
Q 1903 3394 2198 3281 
Q 2494 3169 2634 2976 
Q 2775 2784 2828 2463 
L 2278 2388 
Q 2241 2644 2061 2787 
Q 1881 2931 1553 2931 
Q 1166 2931 1000 2803 
Q 834 2675 834 2503 
Q 834 2394 903 2306 
Q 972 2216 1119 2156 
Q 1203 2125 1616 2013 
Q 2213 1853 2448 1751 
Q 2684 1650 2818 1456 
Q 2953 1263 2953 975 
Q 2953 694 2789 445 
Q 2625 197 2315 61 
Q 2006 -75 1616 -75 
Q 969 -75 630 194 
Q 291 463 197 991 
z
" transform="scale(0.015625)"/>
       <path id="ArialMT-74" d="M 1650 503 
L 1731 6 
Q 1494 -44 1306 -44 
Q 1000 -44 831 53 
Q 663 150 594 308 
Q 525 466 525 972 
L 525 2881 
L 113 2881 
L 113 3319 
L 525 3319 
L 525 4141 
L 1084 4478 
L 1084 3319 
L 1650 3319 
L 1650 2881 
L 1084 2881 
L 1084 941 
Q 1084 700 1114 631 
Q 1144 563 1211 522 
Q 1278 481 1403 481 
Q 1497 481 1650 503 
z
" transform="scale(0.015625)"/>
       <path id="ArialMT-70" d="M 422 -1272 
L 422 3319 
L 934 3319 
L 934 2888 
Q 1116 3141 1344 3267 
Q 1572 3394 1897 3394 
Q 2322 3394 2647 3175 
Q 2972 2956 3137 2557 
Q 3303 2159 3303 1684 
Q 3303 1175 3120 767 
Q 2938 359 2589 142 
Q 2241 -75 1856 -75 
Q 1575 -75 1351 44 
Q 1128 163 984 344 
L 984 -1272 
L 422 -1272 
z
M 931 1641 
Q 931 1000 1190 694 
Q 1450 388 1819 388 
Q 2194 388 2461 705 
Q 2728 1022 2728 1688 
Q 2728 2322 2467 2637 
Q 2206 2953 1844 2953 
Q 1484 2953 1207 2617 
Q 931 2281 931 1641 
z
" transform="scale(0.015625)"/>
      </defs>
      <use xlink:href="#ArialMT-54"/>
      <use xlink:href="#ArialMT-69" transform="translate(57.333984 0)"/>
      <use xlink:href="#ArialMT-6d" transform="translate(79.550781 0)"/>
      <use xlink:href="#ArialMT-65" transform="translate(162.851562 0)"/>
      <use xlink:href="#ArialMT-73" transform="translate(218.466797 0)"/>
      <use xlink:href="#ArialMT-74" transform="translate(268.466797 0)"/>
      <use xlink:href="#ArialMT-65" transform="translate(296.25 0)"/>
      <use xlink:href="#ArialMT-70" transform="translate(351.865234 0)"/>
      <use xlink:href="#ArialMT-73" transform="translate(407.480469 0)"/>
     </g>
    </g>
   </g>
   <g id="matplotlib.axis_2">
    <g id="ytick_1">
     <g id="line2d_5">
      <defs>
       <path id="m454d0bf434" d="M 0 0 
L 2 0 
" style="stroke: #000000; stroke-width: 0.5"/>
      </defs>
      <g>
       <use xlink:href="#m454d0bf434" x="28.65" y="141.299158" style="stroke: #000000; stroke-width: 0.5"/>
      </g>
     </g>
     <g id="text_6">
      <!-- 0 -->
      <g transform="translate(21.257344 143.804392) scale(0.07 -0.07)">
       <use xlink:href="#ArialMT-30"/>
      </g>
     </g>
    </g>
    <g id="ytick_2">
     <g id="line2d_6">
      <g>
       <use xlink:href="#m454d0bf434" x="28.65" y="114.949496" style="stroke: #000000; stroke-width: 0.5"/>
      </g>
     </g>
     <g id="text_7">
      <!-- 2 -->
      <g transform="translate(21.257344 117.45473) scale(0.07 -0.07)">
       <defs>
        <path id="ArialMT-32" d="M 3222 541 
L 3222 0 
L 194 0 
Q 188 203 259 391 
Q 375 700 629 1000 
Q 884 1300 1366 1694 
Q 2113 2306 2375 2664 
Q 2638 3022 2638 3341 
Q 2638 3675 2398 3904 
Q 2159 4134 1775 4134 
Q 1369 4134 1125 3890 
Q 881 3647 878 3216 
L 300 3275 
Q 359 3922 746 4261 
Q 1134 4600 1788 4600 
Q 2447 4600 2831 4234 
Q 3216 3869 3216 3328 
Q 3216 3053 3103 2787 
Q 2991 2522 2730 2228 
Q 2469 1934 1863 1422 
Q 1356 997 1212 845 
Q 1069 694 975 541 
L 3222 541 
z
" transform="scale(0.015625)"/>
       </defs>
       <use xlink:href="#ArialMT-32"/>
      </g>
     </g>
    </g>
    <g id="ytick_3">
     <g id="line2d_7">
      <g>
       <use xlink:href="#m454d0bf434" x="28.65" y="88.599834" style="stroke: #000000; stroke-width: 0.5"/>
      </g>
     </g>
     <g id="text_8">
      <!-- 4 -->
      <g transform="translate(21.257344 91.105068) scale(0.07 -0.07)">
       <defs>
        <path id="ArialMT-34" d="M 2069 0 
L 2069 1097 
L 81 1097 
L 81 1613 
L 2172 4581 
L 2631 4581 
L 2631 1613 
L 3250 1613 
L 3250 1097 
L 2631 1097 
L 2631 0 
L 2069 0 
z
M 2069 1613 
L 2069 3678 
L 634 1613 
L 2069 1613 
z
" transform="scale(0.015625)"/>
       </defs>
       <use xlink:href="#ArialMT-34"/>
      </g>
     </g>
    </g>
    <g id="ytick_4">
     <g id="line2d_8">
      <g>
       <use xlink:href="#m454d0bf434" x="28.65" y="62.250172" style="stroke: #000000; stroke-width: 0.5"/>
      </g>
     </g>
     <g id="text_9">
      <!-- 6 -->
      <g transform="translate(21.257344 64.755406) scale(0.07 -0.07)">
       <defs>
        <path id="ArialMT-36" d="M 3184 3459 
L 2625 3416 
Q 2550 3747 2413 3897 
Q 2184 4138 1850 4138 
Q 1581 4138 1378 3988 
Q 1113 3794 959 3422 
Q 806 3050 800 2363 
Q 1003 2672 1297 2822 
Q 1591 2972 1913 2972 
Q 2475 2972 2870 2558 
Q 3266 2144 3266 1488 
Q 3266 1056 3080 686 
Q 2894 316 2569 119 
Q 2244 -78 1831 -78 
Q 1128 -78 684 439 
Q 241 956 241 2144 
Q 241 3472 731 4075 
Q 1159 4600 1884 4600 
Q 2425 4600 2770 4297 
Q 3116 3994 3184 3459 
z
M 888 1484 
Q 888 1194 1011 928 
Q 1134 663 1356 523 
Q 1578 384 1822 384 
Q 2178 384 2434 671 
Q 2691 959 2691 1453 
Q 2691 1928 2437 2201 
Q 2184 2475 1800 2475 
Q 1419 2475 1153 2201 
Q 888 1928 888 1484 
z
" transform="scale(0.015625)"/>
       </defs>
       <use xlink:href="#ArialMT-36"/>
      </g>
     </g>
    </g>
    <g id="ytick_5">
     <g id="line2d_9">
      <g>
       <use xlink:href="#m454d0bf434" x="28.65" y="35.90051" style="stroke: #000000; stroke-width: 0.5"/>
      </g>
     </g>
     <g id="text_10">
      <!-- 8 -->
      <g transform="translate(21.257344 38.405744) scale(0.07 -0.07)">
       <defs>
        <path id="ArialMT-38" d="M 1131 2484 
Q 781 2613 612 2850 
Q 444 3088 444 3419 
Q 444 3919 803 4259 
Q 1163 4600 1759 4600 
Q 2359 4600 2725 4251 
Q 3091 3903 3091 3403 
Q 3091 3084 2923 2848 
Q 2756 2613 2416 2484 
Q 2838 2347 3058 2040 
Q 3278 1734 3278 1309 
Q 3278 722 2862 322 
Q 2447 -78 1769 -78 
Q 1091 -78 675 323 
Q 259 725 259 1325 
Q 259 1772 486 2073 
Q 713 2375 1131 2484 
z
M 1019 3438 
Q 1019 3113 1228 2906 
Q 1438 2700 1772 2700 
Q 2097 2700 2305 2904 
Q 2513 3109 2513 3406 
Q 2513 3716 2298 3927 
Q 2084 4138 1766 4138 
Q 1444 4138 1231 3931 
Q 1019 3725 1019 3438 
z
M 838 1322 
Q 838 1081 952 856 
Q 1066 631 1291 507 
Q 1516 384 1775 384 
Q 2178 384 2440 643 
Q 2703 903 2703 1303 
Q 2703 1709 2433 1975 
Q 2163 2241 1756 2241 
Q 1359 2241 1098 1978 
Q 838 1716 838 1322 
z
" transform="scale(0.015625)"/>
       </defs>
       <use xlink:href="#ArialMT-38"/>
      </g>
     </g>
    </g>
    <g id="text_11">
     <!-- Decision Weight -->
     <g transform="translate(15.784062 104.995703) rotate(-90) scale(0.07 -0.07)">
      <defs>
       <path id="ArialMT-44" d="M 494 0 
L 494 4581 
L 2072 4581 
Q 2606 4581 2888 4516 
Q 3281 4425 3559 4188 
Q 3922 3881 4101 3404 
Q 4281 2928 4281 2316 
Q 4281 1794 4159 1391 
Q 4038 988 3847 723 
Q 3656 459 3429 307 
Q 3203 156 2883 78 
Q 2563 0 2147 0 
L 494 0 
z
M 1100 541 
L 2078 541 
Q 2531 541 2789 625 
Q 3047 709 3200 863 
Q 3416 1078 3536 1442 
Q 3656 1806 3656 2325 
Q 3656 3044 3420 3430 
Q 3184 3816 2847 3947 
Q 2603 4041 2063 4041 
L 1100 4041 
L 1100 541 
z
" transform="scale(0.015625)"/>
       <path id="ArialMT-63" d="M 2588 1216 
L 3141 1144 
Q 3050 572 2676 248 
Q 2303 -75 1759 -75 
Q 1078 -75 664 370 
Q 250 816 250 1647 
Q 250 2184 428 2587 
Q 606 2991 970 3192 
Q 1334 3394 1763 3394 
Q 2303 3394 2647 3120 
Q 2991 2847 3088 2344 
L 2541 2259 
Q 2463 2594 2264 2762 
Q 2066 2931 1784 2931 
Q 1359 2931 1093 2626 
Q 828 2322 828 1663 
Q 828 994 1084 691 
Q 1341 388 1753 388 
Q 2084 388 2306 591 
Q 2528 794 2588 1216 
z
" transform="scale(0.015625)"/>
       <path id="ArialMT-6f" d="M 213 1659 
Q 213 2581 725 3025 
Q 1153 3394 1769 3394 
Q 2453 3394 2887 2945 
Q 3322 2497 3322 1706 
Q 3322 1066 3130 698 
Q 2938 331 2570 128 
Q 2203 -75 1769 -75 
Q 1072 -75 642 372 
Q 213 819 213 1659 
z
M 791 1659 
Q 791 1022 1069 705 
Q 1347 388 1769 388 
Q 2188 388 2466 706 
Q 2744 1025 2744 1678 
Q 2744 2294 2464 2611 
Q 2184 2928 1769 2928 
Q 1347 2928 1069 2612 
Q 791 2297 791 1659 
z
" transform="scale(0.015625)"/>
       <path id="ArialMT-6e" d="M 422 0 
L 422 3319 
L 928 3319 
L 928 2847 
Q 1294 3394 1984 3394 
Q 2284 3394 2536 3286 
Q 2788 3178 2913 3003 
Q 3038 2828 3088 2588 
Q 3119 2431 3119 2041 
L 3119 0 
L 2556 0 
L 2556 2019 
Q 2556 2363 2490 2533 
Q 2425 2703 2258 2804 
Q 2091 2906 1866 2906 
Q 1506 2906 1245 2678 
Q 984 2450 984 1813 
L 984 0 
L 422 0 
z
" transform="scale(0.015625)"/>
       <path id="ArialMT-20" transform="scale(0.015625)"/>
       <path id="ArialMT-57" d="M 1294 0 
L 78 4581 
L 700 4581 
L 1397 1578 
Q 1509 1106 1591 641 
Q 1766 1375 1797 1488 
L 2669 4581 
L 3400 4581 
L 4056 2263 
Q 4303 1400 4413 641 
Q 4500 1075 4641 1638 
L 5359 4581 
L 5969 4581 
L 4713 0 
L 4128 0 
L 3163 3491 
Q 3041 3928 3019 4028 
Q 2947 3713 2884 3491 
L 1913 0 
L 1294 0 
z
" transform="scale(0.015625)"/>
       <path id="ArialMT-67" d="M 319 -275 
L 866 -356 
Q 900 -609 1056 -725 
Q 1266 -881 1628 -881 
Q 2019 -881 2231 -725 
Q 2444 -569 2519 -288 
Q 2563 -116 2559 434 
Q 2191 0 1641 0 
Q 956 0 581 494 
Q 206 988 206 1678 
Q 206 2153 378 2554 
Q 550 2956 876 3175 
Q 1203 3394 1644 3394 
Q 2231 3394 2613 2919 
L 2613 3319 
L 3131 3319 
L 3131 450 
Q 3131 -325 2973 -648 
Q 2816 -972 2473 -1159 
Q 2131 -1347 1631 -1347 
Q 1038 -1347 672 -1080 
Q 306 -813 319 -275 
z
M 784 1719 
Q 784 1066 1043 766 
Q 1303 466 1694 466 
Q 2081 466 2343 764 
Q 2606 1063 2606 1700 
Q 2606 2309 2336 2618 
Q 2066 2928 1684 2928 
Q 1309 2928 1046 2623 
Q 784 2319 784 1719 
z
" transform="scale(0.015625)"/>
       <path id="ArialMT-68" d="M 422 0 
L 422 4581 
L 984 4581 
L 984 2938 
Q 1378 3394 1978 3394 
Q 2347 3394 2619 3248 
Q 2891 3103 3008 2847 
Q 3125 2591 3125 2103 
L 3125 0 
L 2563 0 
L 2563 2103 
Q 2563 2525 2380 2717 
Q 2197 2909 1863 2909 
Q 1613 2909 1392 2779 
Q 1172 2650 1078 2428 
Q 984 2206 984 1816 
L 984 0 
L 422 0 
z
" transform="scale(0.015625)"/>
      </defs>
      <use xlink:href="#ArialMT-44"/>
      <use xlink:href="#ArialMT-65" transform="translate(72.216797 0)"/>
      <use xlink:href="#ArialMT-63" transform="translate(127.832031 0)"/>
      <use xlink:href="#ArialMT-69" transform="translate(177.832031 0)"/>
      <use xlink:href="#ArialMT-73" transform="translate(200.048828 0)"/>
      <use xlink:href="#ArialMT-69" transform="translate(250.048828 0)"/>
      <use xlink:href="#ArialMT-6f" transform="translate(272.265625 0)"/>
      <use xlink:href="#ArialMT-6e" transform="translate(327.880859 0)"/>
      <use xlink:href="#ArialMT-20" transform="translate(383.496094 0)"/>
      <use xlink:href="#ArialMT-57" transform="translate(411.279297 0)"/>
      <use xlink:href="#ArialMT-65" transform="translate(503.914062 0)"/>
      <use xlink:href="#ArialMT-69" transform="translate(559.529297 0)"/>
      <use xlink:href="#ArialMT-67" transform="translate(581.746094 0)"/>
      <use xlink:href="#ArialMT-68" transform="translate(637.361328 0)"/>
      <use xlink:href="#ArialMT-74" transform="translate(692.976562 0)"/>
     </g>
    </g>
   </g>
   <g id="line2d_10">
    <path d="M 41.826563 17.07 
" clip-path="url(#p6e3bcdddec)" style="fill: none; stroke: #440154; stroke-width: 2; stroke-linecap: square"/>
    <defs>
     <path id="m27b3d7583e" d="M 0 2 
C 0.530406 2 1.03916 1.789267 1.414214 1.414214 
C 1.789267 1.03916 2 0.530406 2 0 
C 2 -0.530406 1.789267 -1.03916 1.414214 -1.414214 
C 1.03916 -1.789267 0.530406 -2 0 -2 
C -0.530406 -2 -1.03916 -1.789267 -1.414214 -1.414214 
C -1.789267 -1.03916 -2 -0.530406 -2 0 
C -2 0.530406 -1.789267 1.03916 -1.414214 1.414214 
C -1.03916 1.789267 -0.530406 2 0 2 
z
" style="stroke: #440154"/>
    </defs>
    <g clip-path="url(#p6e3bcdddec)">
     <use xlink:href="#m27b3d7583e" x="41.826563" y="17.07" style="fill: #440154; stroke: #440154"/>
    </g>
   </g>
   <g id="line2d_11">
    <path d="M 41.826563 44.940544 
L 50.610938 40.5782 
" clip-path="url(#p6e3bcdddec)" style="fill: none; stroke: #481b6d; stroke-width: 2; stroke-linecap: square"/>
    <defs>
     <path id="m4434231f71" d="M 0 2 
C 0.530406 2 1.03916 1.789267 1.414214 1.414214 
C 1.789267 1.03916 2 0.530406 2 0 
C 2 -0.530406 1.789267 -1.03916 1.414214 -1.414214 
C 1.03916 -1.789267 0.530406 -2 0 -2 
C -0.530406 -2 -1.03916 -1.789267 -1.414214 -1.414214 
C -1.789267 -1.03916 -2 -0.530406 -2 0 
C -2 0.530406 -1.789267 1.03916 -1.414214 1.414214 
C -1.03916 1.789267 -0.530406 2 0 2 
z
" style="stroke: #481b6d"/>
    </defs>
    <g clip-path="url(#p6e3bcdddec)">
     <use xlink:href="#m4434231f71" x="41.826563" y="44.940544" style="fill: #481b6d; stroke: #481b6d"/>
     <use xlink:href="#m4434231f71" x="50.610938" y="40.5782" style="fill: #481b6d; stroke: #481b6d"/>
    </g>
   </g>
   <g id="line2d_12">
    <path d="M 41.826563 55.507215 
L 50.610938 51.954555 
L 59.395313 51.152212 
" clip-path="url(#p6e3bcdddec)" style="fill: none; stroke: #46327e; stroke-width: 2; stroke-linecap: square"/>
    <defs>
     <path id="mc1df3162b0" d="M 0 2 
C 0.530406 2 1.03916 1.789267 1.414214 1.414214 
C 1.789267 1.03916 2 0.530406 2 0 
C 2 -0.530406 1.789267 -1.03916 1.414214 -1.414214 
C 1.03916 -1.789267 0.530406 -2 0 -2 
C -0.530406 -2 -1.03916 -1.789267 -1.414214 -1.414214 
C -1.789267 -1.03916 -2 -0.530406 -2 0 
C -2 0.530406 -1.789267 1.03916 -1.414214 1.414214 
C -1.03916 1.789267 -0.530406 2 0 2 
z
" style="stroke: #46327e"/>
    </defs>
    <g clip-path="url(#p6e3bcdddec)">
     <use xlink:href="#mc1df3162b0" x="41.826563" y="55.507215" style="fill: #46327e; stroke: #46327e"/>
     <use xlink:href="#mc1df3162b0" x="50.610938" y="51.954555" style="fill: #46327e; stroke: #46327e"/>
     <use xlink:href="#mc1df3162b0" x="59.395313" y="51.152212" style="fill: #46327e; stroke: #46327e"/>
    </g>
   </g>
   <g id="line2d_13">
    <path d="M 41.826563 65.495065 
L 50.610938 65.431738 
L 59.395313 62.06455 
L 68.179688 61.082653 
" clip-path="url(#p6e3bcdddec)" style="fill: none; stroke: #3f4788; stroke-width: 2; stroke-linecap: square"/>
    <defs>
     <path id="ma3f3d947c8" d="M 0 2 
C 0.530406 2 1.03916 1.789267 1.414214 1.414214 
C 1.789267 1.03916 2 0.530406 2 0 
C 2 -0.530406 1.789267 -1.03916 1.414214 -1.414214 
C 1.03916 -1.789267 0.530406 -2 0 -2 
C -0.530406 -2 -1.03916 -1.789267 -1.414214 -1.414214 
C -1.789267 -1.03916 -2 -0.530406 -2 0 
C -2 0.530406 -1.789267 1.03916 -1.414214 1.414214 
C -1.03916 1.789267 -0.530406 2 0 2 
z
" style="stroke: #3f4788"/>
    </defs>
    <g clip-path="url(#p6e3bcdddec)">
     <use xlink:href="#ma3f3d947c8" x="41.826563" y="65.495065" style="fill: #3f4788; stroke: #3f4788"/>
     <use xlink:href="#ma3f3d947c8" x="50.610938" y="65.431738" style="fill: #3f4788; stroke: #3f4788"/>
     <use xlink:href="#ma3f3d947c8" x="59.395313" y="62.06455" style="fill: #3f4788; stroke: #3f4788"/>
     <use xlink:href="#ma3f3d947c8" x="68.179688" y="61.082653" style="fill: #3f4788; stroke: #3f4788"/>
    </g>
   </g>
   <g id="line2d_14">
    <path d="M 41.826563 77.247073 
L 50.610938 78.321381 
L 59.395313 73.501958 
L 68.179688 71.191846 
L 76.964062 65.242523 
" clip-path="url(#p6e3bcdddec)" style="fill: none; stroke: #365c8d; stroke-width: 2; stroke-linecap: square"/>
    <defs>
     <path id="m1bed20a544" d="M 0 2 
C 0.530406 2 1.03916 1.789267 1.414214 1.414214 
C 1.789267 1.03916 2 0.530406 2 0 
C 2 -0.530406 1.789267 -1.03916 1.414214 -1.414214 
C 1.03916 -1.789267 0.530406 -2 0 -2 
C -0.530406 -2 -1.03916 -1.789267 -1.414214 -1.414214 
C -1.789267 -1.03916 -2 -0.530406 -2 0 
C -2 0.530406 -1.789267 1.03916 -1.414214 1.414214 
C -1.03916 1.789267 -0.530406 2 0 2 
z
" style="stroke: #365c8d"/>
    </defs>
    <g clip-path="url(#p6e3bcdddec)">
     <use xlink:href="#m1bed20a544" x="41.826563" y="77.247073" style="fill: #365c8d; stroke: #365c8d"/>
     <use xlink:href="#m1bed20a544" x="50.610938" y="78.321381" style="fill: #365c8d; stroke: #365c8d"/>
     <use xlink:href="#m1bed20a544" x="59.395313" y="73.501958" style="fill: #365c8d; stroke: #365c8d"/>
     <use xlink:href="#m1bed20a544" x="68.179688" y="71.191846" style="fill: #365c8d; stroke: #365c8d"/>
     <use xlink:href="#m1bed20a544" x="76.964062" y="65.242523" style="fill: #365c8d; stroke: #365c8d"/>
    </g>
   </g>
   <g id="line2d_15">
    <path d="M 41.826563 87.95842 
L 50.610938 86.207009 
L 59.395313 86.180609 
L 68.179688 81.296442 
L 76.964062 75.03277 
L 85.748437 72.836544 
" clip-path="url(#p6e3bcdddec)" style="fill: none; stroke: #2e6e8e; stroke-width: 2; stroke-linecap: square"/>
    <defs>
     <path id="m4e297de4f4" d="M 0 2 
C 0.530406 2 1.03916 1.789267 1.414214 1.414214 
C 1.789267 1.03916 2 0.530406 2 0 
C 2 -0.530406 1.789267 -1.03916 1.414214 -1.414214 
C 1.03916 -1.789267 0.530406 -2 0 -2 
C -0.530406 -2 -1.03916 -1.789267 -1.414214 -1.414214 
C -1.789267 -1.03916 -2 -0.530406 -2 0 
C -2 0.530406 -1.789267 1.03916 -1.414214 1.414214 
C -1.03916 1.789267 -0.530406 2 0 2 
z
" style="stroke: #2e6e8e"/>
    </defs>
    <g clip-path="url(#p6e3bcdddec)">
     <use xlink:href="#m4e297de4f4" x="41.826563" y="87.95842" style="fill: #2e6e8e; stroke: #2e6e8e"/>
     <use xlink:href="#m4e297de4f4" x="50.610938" y="86.207009" style="fill: #2e6e8e; stroke: #2e6e8e"/>
     <use xlink:href="#m4e297de4f4" x="59.395313" y="86.180609" style="fill: #2e6e8e; stroke: #2e6e8e"/>
     <use xlink:href="#m4e297de4f4" x="68.179688" y="81.296442" style="fill: #2e6e8e; stroke: #2e6e8e"/>
     <use xlink:href="#m4e297de4f4" x="76.964062" y="75.03277" style="fill: #2e6e8e; stroke: #2e6e8e"/>
     <use xlink:href="#m4e297de4f4" x="85.748437" y="72.836544" style="fill: #2e6e8e; stroke: #2e6e8e"/>
    </g>
   </g>
   <g id="line2d_16">
    <path d="M 41.826563 96.107764 
L 50.610938 94.337614 
L 59.395313 93.098726 
L 68.179688 88.742147 
L 76.964062 88.197648 
L 85.748437 81.509804 
L 94.532813 75.909724 
" clip-path="url(#p6e3bcdddec)" style="fill: none; stroke: #277f8e; stroke-width: 2; stroke-linecap: square"/>
    <defs>
     <path id="ma86cc031a5" d="M 0 2 
C 0.530406 2 1.03916 1.789267 1.414214 1.414214 
C 1.789267 1.03916 2 0.530406 2 0 
C 2 -0.530406 1.789267 -1.03916 1.414214 -1.414214 
C 1.03916 -1.789267 0.530406 -2 0 -2 
C -0.530406 -2 -1.03916 -1.789267 -1.414214 -1.414214 
C -1.789267 -1.03916 -2 -0.530406 -2 0 
C -2 0.530406 -1.789267 1.03916 -1.414214 1.414214 
C -1.03916 1.789267 -0.530406 2 0 2 
z
" style="stroke: #277f8e"/>
    </defs>
    <g clip-path="url(#p6e3bcdddec)">
     <use xlink:href="#ma86cc031a5" x="41.826563" y="96.107764" style="fill: #277f8e; stroke: #277f8e"/>
     <use xlink:href="#ma86cc031a5" x="50.610938" y="94.337614" style="fill: #277f8e; stroke: #277f8e"/>
     <use xlink:href="#ma86cc031a5" x="59.395313" y="93.098726" style="fill: #277f8e; stroke: #277f8e"/>
     <use xlink:href="#ma86cc031a5" x="68.179688" y="88.742147" style="fill: #277f8e; stroke: #277f8e"/>
     <use xlink:href="#ma86cc031a5" x="76.964062" y="88.197648" style="fill: #277f8e; stroke: #277f8e"/>
     <use xlink:href="#ma86cc031a5" x="85.748437" y="81.509804" style="fill: #277f8e; stroke: #277f8e"/>
     <use xlink:href="#ma86cc031a5" x="94.532813" y="75.909724" style="fill: #277f8e; stroke: #277f8e"/>
    </g>
   </g>
   <g id="line2d_17">
    <path d="M 41.826563 104.272226 
L 50.610938 106.19778 
L 59.395313 103.3694 
L 68.179688 98.505321 
L 76.964062 95.736091 
L 85.748437 92.640186 
L 94.532813 88.482357 
L 103.317187 78.883353 
" clip-path="url(#p6e3bcdddec)" style="fill: none; stroke: #21918c; stroke-width: 2; stroke-linecap: square"/>
    <defs>
     <path id="md6f8cac9df" d="M 0 2 
C 0.530406 2 1.03916 1.789267 1.414214 1.414214 
C 1.789267 1.03916 2 0.530406 2 0 
C 2 -0.530406 1.789267 -1.03916 1.414214 -1.414214 
C 1.03916 -1.789267 0.530406 -2 0 -2 
C -0.530406 -2 -1.03916 -1.789267 -1.414214 -1.414214 
C -1.789267 -1.03916 -2 -0.530406 -2 0 
C -2 0.530406 -1.789267 1.03916 -1.414214 1.414214 
C -1.03916 1.789267 -0.530406 2 0 2 
z
" style="stroke: #21918c"/>
    </defs>
    <g clip-path="url(#p6e3bcdddec)">
     <use xlink:href="#md6f8cac9df" x="41.826563" y="104.272226" style="fill: #21918c; stroke: #21918c"/>
     <use xlink:href="#md6f8cac9df" x="50.610938" y="106.19778" style="fill: #21918c; stroke: #21918c"/>
     <use xlink:href="#md6f8cac9df" x="59.395313" y="103.3694" style="fill: #21918c; stroke: #21918c"/>
     <use xlink:href="#md6f8cac9df" x="68.179688" y="98.505321" style="fill: #21918c; stroke: #21918c"/>
     <use xlink:href="#md6f8cac9df" x="76.964062" y="95.736091" style="fill: #21918c; stroke: #21918c"/>
     <use xlink:href="#md6f8cac9df" x="85.748437" y="92.640186" style="fill: #21918c; stroke: #21918c"/>
     <use xlink:href="#md6f8cac9df" x="94.532813" y="88.482357" style="fill: #21918c; stroke: #21918c"/>
     <use xlink:href="#md6f8cac9df" x="103.317187" y="78.883353" style="fill: #21918c; stroke: #21918c"/>
    </g>
   </g>
   <g id="line2d_18">
    <path d="M 41.826563 116.534442 
L 50.610938 115.302257 
L 59.395313 109.181196 
L 68.179688 108.241467 
L 76.964062 100.851401 
L 85.748437 103.160979 
L 94.532813 95.522891 
L 103.317187 91.472224 
L 112.101562 80.80556 
" clip-path="url(#p6e3bcdddec)" style="fill: none; stroke: #1fa187; stroke-width: 2; stroke-linecap: square"/>
    <defs>
     <path id="m955a374274" d="M 0 2 
C 0.530406 2 1.03916 1.789267 1.414214 1.414214 
C 1.789267 1.03916 2 0.530406 2 0 
C 2 -0.530406 1.789267 -1.03916 1.414214 -1.414214 
C 1.03916 -1.789267 0.530406 -2 0 -2 
C -0.530406 -2 -1.03916 -1.789267 -1.414214 -1.414214 
C -1.789267 -1.03916 -2 -0.530406 -2 0 
C -2 0.530406 -1.789267 1.03916 -1.414214 1.414214 
C -1.03916 1.789267 -0.530406 2 0 2 
z
" style="stroke: #1fa187"/>
    </defs>
    <g clip-path="url(#p6e3bcdddec)">
     <use xlink:href="#m955a374274" x="41.826563" y="116.534442" style="fill: #1fa187; stroke: #1fa187"/>
     <use xlink:href="#m955a374274" x="50.610938" y="115.302257" style="fill: #1fa187; stroke: #1fa187"/>
     <use xlink:href="#m955a374274" x="59.395313" y="109.181196" style="fill: #1fa187; stroke: #1fa187"/>
     <use xlink:href="#m955a374274" x="68.179688" y="108.241467" style="fill: #1fa187; stroke: #1fa187"/>
     <use xlink:href="#m955a374274" x="76.964062" y="100.851401" style="fill: #1fa187; stroke: #1fa187"/>
     <use xlink:href="#m955a374274" x="85.748437" y="103.160979" style="fill: #1fa187; stroke: #1fa187"/>
     <use xlink:href="#m955a374274" x="94.532813" y="95.522891" style="fill: #1fa187; stroke: #1fa187"/>
     <use xlink:href="#m955a374274" x="103.317187" y="91.472224" style="fill: #1fa187; stroke: #1fa187"/>
     <use xlink:href="#m955a374274" x="112.101562" y="80.80556" style="fill: #1fa187; stroke: #1fa187"/>
    </g>
   </g>
   <g id="line2d_19">
    <path d="M 41.826563 118.708485 
L 50.610938 115.944076 
L 59.395313 116.14488 
L 68.179688 116.004136 
L 76.964062 116.178921 
L 85.748437 111.917493 
L 94.532813 103.634554 
L 103.317187 99.235112 
L 112.101562 92.073309 
L 120.885937 87.617128 
" clip-path="url(#p6e3bcdddec)" style="fill: none; stroke: #2db27d; stroke-width: 2; stroke-linecap: square"/>
    <defs>
     <path id="m6c00343762" d="M 0 2 
C 0.530406 2 1.03916 1.789267 1.414214 1.414214 
C 1.789267 1.03916 2 0.530406 2 0 
C 2 -0.530406 1.789267 -1.03916 1.414214 -1.414214 
C 1.03916 -1.789267 0.530406 -2 0 -2 
C -0.530406 -2 -1.03916 -1.789267 -1.414214 -1.414214 
C -1.789267 -1.03916 -2 -0.530406 -2 0 
C -2 0.530406 -1.789267 1.03916 -1.414214 1.414214 
C -1.03916 1.789267 -0.530406 2 0 2 
z
" style="stroke: #2db27d"/>
    </defs>
    <g clip-path="url(#p6e3bcdddec)">
     <use xlink:href="#m6c00343762" x="41.826563" y="118.708485" style="fill: #2db27d; stroke: #2db27d"/>
     <use xlink:href="#m6c00343762" x="50.610938" y="115.944076" style="fill: #2db27d; stroke: #2db27d"/>
     <use xlink:href="#m6c00343762" x="59.395313" y="116.14488" style="fill: #2db27d; stroke: #2db27d"/>
     <use xlink:href="#m6c00343762" x="68.179688" y="116.004136" style="fill: #2db27d; stroke: #2db27d"/>
     <use xlink:href="#m6c00343762" x="76.964062" y="116.178921" style="fill: #2db27d; stroke: #2db27d"/>
     <use xlink:href="#m6c00343762" x="85.748437" y="111.917493" style="fill: #2db27d; stroke: #2db27d"/>
     <use xlink:href="#m6c00343762" x="94.532813" y="103.634554" style="fill: #2db27d; stroke: #2db27d"/>
     <use xlink:href="#m6c00343762" x="103.317187" y="99.235112" style="fill: #2db27d; stroke: #2db27d"/>
     <use xlink:href="#m6c00343762" x="112.101562" y="92.073309" style="fill: #2db27d; stroke: #2db27d"/>
     <use xlink:href="#m6c00343762" x="120.885937" y="87.617128" style="fill: #2db27d; stroke: #2db27d"/>
    </g>
   </g>
   <g id="line2d_20">
    <path d="M 41.826563 125.585784 
L 50.610938 123.326913 
L 59.395313 123.608383 
L 68.179688 125.814564 
L 76.964062 119.913693 
L 85.748437 118.492486 
L 94.532813 112.55526 
L 103.317187 107.931865 
L 112.101562 104.517158 
L 120.885937 94.996628 
L 129.670312 90.778458 
" clip-path="url(#p6e3bcdddec)" style="fill: none; stroke: #4ac16d; stroke-width: 2; stroke-linecap: square"/>
    <defs>
     <path id="mb253d3cf7d" d="M 0 2 
C 0.530406 2 1.03916 1.789267 1.414214 1.414214 
C 1.789267 1.03916 2 0.530406 2 0 
C 2 -0.530406 1.789267 -1.03916 1.414214 -1.414214 
C 1.03916 -1.789267 0.530406 -2 0 -2 
C -0.530406 -2 -1.03916 -1.789267 -1.414214 -1.414214 
C -1.789267 -1.03916 -2 -0.530406 -2 0 
C -2 0.530406 -1.789267 1.03916 -1.414214 1.414214 
C -1.03916 1.789267 -0.530406 2 0 2 
z
" style="stroke: #4ac16d"/>
    </defs>
    <g clip-path="url(#p6e3bcdddec)">
     <use xlink:href="#mb253d3cf7d" x="41.826563" y="125.585784" style="fill: #4ac16d; stroke: #4ac16d"/>
     <use xlink:href="#mb253d3cf7d" x="50.610938" y="123.326913" style="fill: #4ac16d; stroke: #4ac16d"/>
     <use xlink:href="#mb253d3cf7d" x="59.395313" y="123.608383" style="fill: #4ac16d; stroke: #4ac16d"/>
     <use xlink:href="#mb253d3cf7d" x="68.179688" y="125.814564" style="fill: #4ac16d; stroke: #4ac16d"/>
     <use xlink:href="#mb253d3cf7d" x="76.964062" y="119.913693" style="fill: #4ac16d; stroke: #4ac16d"/>
     <use xlink:href="#mb253d3cf7d" x="85.748437" y="118.492486" style="fill: #4ac16d; stroke: #4ac16d"/>
     <use xlink:href="#mb253d3cf7d" x="94.532813" y="112.55526" style="fill: #4ac16d; stroke: #4ac16d"/>
     <use xlink:href="#mb253d3cf7d" x="103.317187" y="107.931865" style="fill: #4ac16d; stroke: #4ac16d"/>
     <use xlink:href="#mb253d3cf7d" x="112.101562" y="104.517158" style="fill: #4ac16d; stroke: #4ac16d"/>
     <use xlink:href="#mb253d3cf7d" x="120.885937" y="94.996628" style="fill: #4ac16d; stroke: #4ac16d"/>
     <use xlink:href="#mb253d3cf7d" x="129.670312" y="90.778458" style="fill: #4ac16d; stroke: #4ac16d"/>
    </g>
   </g>
   <g id="line2d_21">
    <path d="M 41.826563 128.250644 
L 50.610938 131.670299 
L 59.395313 125.916063 
L 68.179688 121.952833 
L 76.964062 124.151707 
L 85.748437 116.697065 
L 94.532813 117.429697 
L 103.317187 118.217034 
L 112.101562 113.536116 
L 120.885937 105.677825 
L 129.670312 105.31598 
L 138.454688 95.455159 
" clip-path="url(#p6e3bcdddec)" style="fill: none; stroke: #73d056; stroke-width: 2; stroke-linecap: square"/>
    <defs>
     <path id="m4421c30940" d="M 0 2 
C 0.530406 2 1.03916 1.789267 1.414214 1.414214 
C 1.789267 1.03916 2 0.530406 2 0 
C 2 -0.530406 1.789267 -1.03916 1.414214 -1.414214 
C 1.03916 -1.789267 0.530406 -2 0 -2 
C -0.530406 -2 -1.03916 -1.789267 -1.414214 -1.414214 
C -1.789267 -1.03916 -2 -0.530406 -2 0 
C -2 0.530406 -1.789267 1.03916 -1.414214 1.414214 
C -1.03916 1.789267 -0.530406 2 0 2 
z
" style="stroke: #73d056"/>
    </defs>
    <g clip-path="url(#p6e3bcdddec)">
     <use xlink:href="#m4421c30940" x="41.826563" y="128.250644" style="fill: #73d056; stroke: #73d056"/>
     <use xlink:href="#m4421c30940" x="50.610938" y="131.670299" style="fill: #73d056; stroke: #73d056"/>
     <use xlink:href="#m4421c30940" x="59.395313" y="125.916063" style="fill: #73d056; stroke: #73d056"/>
     <use xlink:href="#m4421c30940" x="68.179688" y="121.952833" style="fill: #73d056; stroke: #73d056"/>
     <use xlink:href="#m4421c30940" x="76.964062" y="124.151707" style="fill: #73d056; stroke: #73d056"/>
     <use xlink:href="#m4421c30940" x="85.748437" y="116.697065" style="fill: #73d056; stroke: #73d056"/>
     <use xlink:href="#m4421c30940" x="94.532813" y="117.429697" style="fill: #73d056; stroke: #73d056"/>
     <use xlink:href="#m4421c30940" x="103.317187" y="118.217034" style="fill: #73d056; stroke: #73d056"/>
     <use xlink:href="#m4421c30940" x="112.101562" y="113.536116" style="fill: #73d056; stroke: #73d056"/>
     <use xlink:href="#m4421c30940" x="120.885937" y="105.677825" style="fill: #73d056; stroke: #73d056"/>
     <use xlink:href="#m4421c30940" x="129.670312" y="105.31598" style="fill: #73d056; stroke: #73d056"/>
     <use xlink:href="#m4421c30940" x="138.454688" y="95.455159" style="fill: #73d056; stroke: #73d056"/>
    </g>
   </g>
   <g id="line2d_22">
    <path d="M 41.826563 135.753196 
L 50.610938 133.785776 
L 59.395313 138.364266 
L 68.179688 133.889865 
L 76.964062 131.677121 
L 85.748437 125.837331 
L 94.532813 127.565427 
L 103.317187 127.303193 
L 112.101562 118.759851 
L 120.885937 112.954598 
L 129.670312 112.978284 
L 138.454688 104.905513 
L 147.239062 98.329537 
" clip-path="url(#p6e3bcdddec)" style="fill: none; stroke: #a0da39; stroke-width: 2; stroke-linecap: square"/>
    <defs>
     <path id="m891eeb4231" d="M 0 2 
C 0.530406 2 1.03916 1.789267 1.414214 1.414214 
C 1.789267 1.03916 2 0.530406 2 0 
C 2 -0.530406 1.789267 -1.03916 1.414214 -1.414214 
C 1.03916 -1.789267 0.530406 -2 0 -2 
C -0.530406 -2 -1.03916 -1.789267 -1.414214 -1.414214 
C -1.789267 -1.03916 -2 -0.530406 -2 0 
C -2 0.530406 -1.789267 1.03916 -1.414214 1.414214 
C -1.03916 1.789267 -0.530406 2 0 2 
z
" style="stroke: #a0da39"/>
    </defs>
    <g clip-path="url(#p6e3bcdddec)">
     <use xlink:href="#m891eeb4231" x="41.826563" y="135.753196" style="fill: #a0da39; stroke: #a0da39"/>
     <use xlink:href="#m891eeb4231" x="50.610938" y="133.785776" style="fill: #a0da39; stroke: #a0da39"/>
     <use xlink:href="#m891eeb4231" x="59.395313" y="138.364266" style="fill: #a0da39; stroke: #a0da39"/>
     <use xlink:href="#m891eeb4231" x="68.179688" y="133.889865" style="fill: #a0da39; stroke: #a0da39"/>
     <use xlink:href="#m891eeb4231" x="76.964062" y="131.677121" style="fill: #a0da39; stroke: #a0da39"/>
     <use xlink:href="#m891eeb4231" x="85.748437" y="125.837331" style="fill: #a0da39; stroke: #a0da39"/>
     <use xlink:href="#m891eeb4231" x="94.532813" y="127.565427" style="fill: #a0da39; stroke: #a0da39"/>
     <use xlink:href="#m891eeb4231" x="103.317187" y="127.303193" style="fill: #a0da39; stroke: #a0da39"/>
     <use xlink:href="#m891eeb4231" x="112.101562" y="118.759851" style="fill: #a0da39; stroke: #a0da39"/>
     <use xlink:href="#m891eeb4231" x="120.885937" y="112.954598" style="fill: #a0da39; stroke: #a0da39"/>
     <use xlink:href="#m891eeb4231" x="129.670312" y="112.978284" style="fill: #a0da39; stroke: #a0da39"/>
     <use xlink:href="#m891eeb4231" x="138.454688" y="104.905513" style="fill: #a0da39; stroke: #a0da39"/>
     <use xlink:href="#m891eeb4231" x="147.239062" y="98.329537" style="fill: #a0da39; stroke: #a0da39"/>
    </g>
   </g>
   <g id="line2d_23">
    <path d="M 41.826563 139.088057 
L 50.610938 139.244649 
L 59.395313 142.379357 
L 68.179688 134.983338 
L 76.964062 136.766429 
L 85.748437 133.506816 
L 94.532813 128.973148 
L 103.317187 130.830706 
L 112.101562 124.558705 
L 120.885937 127.753325 
L 129.670312 119.627753 
L 138.454688 115.812269 
L 147.239062 107.10347 
L 156.023438 99.268618 
" clip-path="url(#p6e3bcdddec)" style="fill: none; stroke: #d0e11c; stroke-width: 2; stroke-linecap: square"/>
    <defs>
     <path id="m5e26856388" d="M 0 2 
C 0.530406 2 1.03916 1.789267 1.414214 1.414214 
C 1.789267 1.03916 2 0.530406 2 0 
C 2 -0.530406 1.789267 -1.03916 1.414214 -1.414214 
C 1.03916 -1.789267 0.530406 -2 0 -2 
C -0.530406 -2 -1.03916 -1.789267 -1.414214 -1.414214 
C -1.789267 -1.03916 -2 -0.530406 -2 0 
C -2 0.530406 -1.789267 1.03916 -1.414214 1.414214 
C -1.03916 1.789267 -0.530406 2 0 2 
z
" style="stroke: #d0e11c"/>
    </defs>
    <g clip-path="url(#p6e3bcdddec)">
     <use xlink:href="#m5e26856388" x="41.826563" y="139.088057" style="fill: #d0e11c; stroke: #d0e11c"/>
     <use xlink:href="#m5e26856388" x="50.610938" y="139.244649" style="fill: #d0e11c; stroke: #d0e11c"/>
     <use xlink:href="#m5e26856388" x="59.395313" y="142.379357" style="fill: #d0e11c; stroke: #d0e11c"/>
     <use xlink:href="#m5e26856388" x="68.179688" y="134.983338" style="fill: #d0e11c; stroke: #d0e11c"/>
     <use xlink:href="#m5e26856388" x="76.964062" y="136.766429" style="fill: #d0e11c; stroke: #d0e11c"/>
     <use xlink:href="#m5e26856388" x="85.748437" y="133.506816" style="fill: #d0e11c; stroke: #d0e11c"/>
     <use xlink:href="#m5e26856388" x="94.532813" y="128.973148" style="fill: #d0e11c; stroke: #d0e11c"/>
     <use xlink:href="#m5e26856388" x="103.317187" y="130.830706" style="fill: #d0e11c; stroke: #d0e11c"/>
     <use xlink:href="#m5e26856388" x="112.101562" y="124.558705" style="fill: #d0e11c; stroke: #d0e11c"/>
     <use xlink:href="#m5e26856388" x="120.885937" y="127.753325" style="fill: #d0e11c; stroke: #d0e11c"/>
     <use xlink:href="#m5e26856388" x="129.670312" y="119.627753" style="fill: #d0e11c; stroke: #d0e11c"/>
     <use xlink:href="#m5e26856388" x="138.454688" y="115.812269" style="fill: #d0e11c; stroke: #d0e11c"/>
     <use xlink:href="#m5e26856388" x="147.239062" y="107.10347" style="fill: #d0e11c; stroke: #d0e11c"/>
     <use xlink:href="#m5e26856388" x="156.023438" y="99.268618" style="fill: #d0e11c; stroke: #d0e11c"/>
    </g>
   </g>
   <g id="line2d_24">
    <path d="M 41.826563 142.47 
L 50.610938 142.132082 
L 59.395313 135.395252 
L 68.179688 138.261129 
L 76.964062 138.284096 
L 85.748437 139.221008 
L 94.532813 139.49506 
L 103.317187 138.189928 
L 112.101562 133.057256 
L 120.885937 128.127386 
L 129.670312 125.259756 
L 138.454688 119.516755 
L 147.239062 118.178341 
L 156.023438 112.22368 
L 164.807812 105.971658 
" clip-path="url(#p6e3bcdddec)" style="fill: none; stroke: #fde725; stroke-width: 2; stroke-linecap: square"/>
    <defs>
     <path id="m98ca295830" d="M 0 2 
C 0.530406 2 1.03916 1.789267 1.414214 1.414214 
C 1.789267 1.03916 2 0.530406 2 0 
C 2 -0.530406 1.789267 -1.03916 1.414214 -1.414214 
C 1.03916 -1.789267 0.530406 -2 0 -2 
C -0.530406 -2 -1.03916 -1.789267 -1.414214 -1.414214 
C -1.789267 -1.03916 -2 -0.530406 -2 0 
C -2 0.530406 -1.789267 1.03916 -1.414214 1.414214 
C -1.03916 1.789267 -0.530406 2 0 2 
z
" style="stroke: #fde725"/>
    </defs>
    <g clip-path="url(#p6e3bcdddec)">
     <use xlink:href="#m98ca295830" x="41.826563" y="142.47" style="fill: #fde725; stroke: #fde725"/>
     <use xlink:href="#m98ca295830" x="50.610938" y="142.132082" style="fill: #fde725; stroke: #fde725"/>
     <use xlink:href="#m98ca295830" x="59.395313" y="135.395252" style="fill: #fde725; stroke: #fde725"/>
     <use xlink:href="#m98ca295830" x="68.179688" y="138.261129" style="fill: #fde725; stroke: #fde725"/>
     <use xlink:href="#m98ca295830" x="76.964062" y="138.284096" style="fill: #fde725; stroke: #fde725"/>
     <use xlink:href="#m98ca295830" x="85.748437" y="139.221008" style="fill: #fde725; stroke: #fde725"/>
     <use xlink:href="#m98ca295830" x="94.532813" y="139.49506" style="fill: #fde725; stroke: #fde725"/>
     <use xlink:href="#m98ca295830" x="103.317187" y="138.189928" style="fill: #fde725; stroke: #fde725"/>
     <use xlink:href="#m98ca295830" x="112.101562" y="133.057256" style="fill: #fde725; stroke: #fde725"/>
     <use xlink:href="#m98ca295830" x="120.885937" y="128.127386" style="fill: #fde725; stroke: #fde725"/>
     <use xlink:href="#m98ca295830" x="129.670312" y="125.259756" style="fill: #fde725; stroke: #fde725"/>
     <use xlink:href="#m98ca295830" x="138.454688" y="119.516755" style="fill: #fde725; stroke: #fde725"/>
     <use xlink:href="#m98ca295830" x="147.239062" y="118.178341" style="fill: #fde725; stroke: #fde725"/>
     <use xlink:href="#m98ca295830" x="156.023438" y="112.22368" style="fill: #fde725; stroke: #fde725"/>
     <use xlink:href="#m98ca295830" x="164.807812" y="105.971658" style="fill: #fde725; stroke: #fde725"/>
    </g>
   </g>
   <g id="patch_3">
    <path d="M 28.65 148.74 
L 28.65 10.8 
" style="fill: none; stroke: #000000; stroke-width: 0.75; stroke-linejoin: miter; stroke-linecap: square"/>
   </g>
   <g id="patch_4">
    <path d="M 28.65 148.74 
L 169.2 148.74 
" style="fill: none; stroke: #000000; stroke-width: 0.75; stroke-linejoin: miter; stroke-linecap: square"/>
   </g>
  </g>
 </g>
 <defs>
  <clipPath id="p6e3bcdddec">
   <rect x="28.65" y="10.8" width="140.55" height="137.94"/>
  </clipPath>
 </defs>
</svg>
