<?xml version="1.0" encoding="utf-8" standalone="no"?>
<!DOCTYPE svg PUBLIC "-//W3C//DTD SVG 1.1//EN"
  "http://www.w3.org/Graphics/SVG/1.1/DTD/svg11.dtd">
<svg xmlns:xlink="http://www.w3.org/1999/xlink" width="180pt" height="180pt" viewBox="0 0 180 180" xmlns="http://www.w3.org/2000/svg" version="1.1">
 <metadata>
  <rdf:RDF xmlns:dc="http://purl.org/dc/elements/1.1/" xmlns:cc="http://creativecommons.org/ns#" xmlns:rdf="http://www.w3.org/1999/02/22-rdf-syntax-ns#">
   <cc:Work>
    <dc:type rdf:resource="http://purl.org/dc/dcmitype/StillImage"/>
    <dc:date>2025-08-19T22:09:53.646752</dc:date>
    <dc:format>image/svg+xml</dc:format>
    <dc:creator>
     <cc:Agent>
      <dc:title>Matplotlib v3.10.0, https://matplotlib.org/</dc:title>
     </cc:Agent>
    </dc:creator>
   </cc:Work>
  </rdf:RDF>
 </metadata>
 <defs>
  <style type="text/css">*{stroke-linejoin: round; stroke-linecap: butt}</style>
 </defs>
 <g id="figure_1">
  <g id="patch_1">
   <path d="M 0 180 
L 180 180 
L 180 0 
L 0 0 
z
" style="fill: #ffffff"/>
  </g>
  <g id="axes_1">
   <g id="patch_2">
    <path d="M 34.5 148.74 
L 169.2 148.74 
L 169.2 10.8 
L 34.5 10.8 
z
" style="fill: #ffffff"/>
   </g>
   <g id="matplotlib.axis_1">
    <g id="xtick_1">
     <g id="line2d_1">
      <defs>
       <path id="m36bbc88fbf" d="M 0 0 
L 0 -2 
" style="stroke: #000000; stroke-width: 0.5"/>
      </defs>
      <g>
       <use xlink:href="#m36bbc88fbf" x="36.672581" y="148.74" style="stroke: #000000; stroke-width: 0.5"/>
      </g>
     </g>
     <g id="text_1">
      <!-- −3 -->
      <g transform="translate(32.682034 157.250469) scale(0.07 -0.07)">
       <defs>
        <path id="ArialMT-2212" d="M 3381 1997 
L 356 1997 
L 356 2522 
L 3381 2522 
L 3381 1997 
z
" transform="scale(0.015625)"/>
        <path id="ArialMT-33" d="M 269 1209 
L 831 1284 
Q 928 806 1161 595 
Q 1394 384 1728 384 
Q 2125 384 2398 659 
Q 2672 934 2672 1341 
Q 2672 1728 2419 1979 
Q 2166 2231 1775 2231 
Q 1616 2231 1378 2169 
L 1441 2663 
Q 1497 2656 1531 2656 
Q 1891 2656 2178 2843 
Q 2466 3031 2466 3422 
Q 2466 3731 2256 3934 
Q 2047 4138 1716 4138 
Q 1388 4138 1169 3931 
Q 950 3725 888 3313 
L 325 3413 
Q 428 3978 793 4289 
Q 1159 4600 1703 4600 
Q 2078 4600 2393 4439 
Q 2709 4278 2876 4000 
Q 3044 3722 3044 3409 
Q 3044 3113 2884 2869 
Q 2725 2625 2413 2481 
Q 2819 2388 3044 2092 
Q 3269 1797 3269 1353 
Q 3269 753 2831 336 
Q 2394 -81 1725 -81 
Q 1122 -81 723 278 
Q 325 638 269 1209 
z
" transform="scale(0.015625)"/>
       </defs>
       <use xlink:href="#ArialMT-2212"/>
       <use xlink:href="#ArialMT-33" transform="translate(58.398438 0)"/>
      </g>
     </g>
    </g>
    <g id="xtick_2">
     <g id="line2d_2">
      <g>
       <use xlink:href="#m36bbc88fbf" x="58.398387" y="148.74" style="stroke: #000000; stroke-width: 0.5"/>
      </g>
     </g>
     <g id="text_2">
      <!-- −2 -->
      <g transform="translate(54.40784 157.250469) scale(0.07 -0.07)">
       <defs>
        <path id="ArialMT-32" d="M 3222 541 
L 3222 0 
L 194 0 
Q 188 203 259 391 
Q 375 700 629 1000 
Q 884 1300 1366 1694 
Q 2113 2306 2375 2664 
Q 2638 3022 2638 3341 
Q 2638 3675 2398 3904 
Q 2159 4134 1775 4134 
Q 1369 4134 1125 3890 
Q 881 3647 878 3216 
L 300 3275 
Q 359 3922 746 4261 
Q 1134 4600 1788 4600 
Q 2447 4600 2831 4234 
Q 3216 3869 3216 3328 
Q 3216 3053 3103 2787 
Q 2991 2522 2730 2228 
Q 2469 1934 1863 1422 
Q 1356 997 1212 845 
Q 1069 694 975 541 
L 3222 541 
z
" transform="scale(0.015625)"/>
       </defs>
       <use xlink:href="#ArialMT-2212"/>
       <use xlink:href="#ArialMT-32" transform="translate(58.398438 0)"/>
      </g>
     </g>
    </g>
    <g id="xtick_3">
     <g id="line2d_3">
      <g>
       <use xlink:href="#m36bbc88fbf" x="80.124194" y="148.74" style="stroke: #000000; stroke-width: 0.5"/>
      </g>
     </g>
     <g id="text_3">
      <!-- −1 -->
      <g transform="translate(76.133647 157.250469) scale(0.07 -0.07)">
       <defs>
        <path id="ArialMT-31" d="M 2384 0 
L 1822 0 
L 1822 3584 
Q 1619 3391 1289 3197 
Q 959 3003 697 2906 
L 697 3450 
Q 1169 3672 1522 3987 
Q 1875 4303 2022 4600 
L 2384 4600 
L 2384 0 
z
" transform="scale(0.015625)"/>
       </defs>
       <use xlink:href="#ArialMT-2212"/>
       <use xlink:href="#ArialMT-31" transform="translate(58.398438 0)"/>
      </g>
     </g>
    </g>
    <g id="xtick_4">
     <g id="line2d_4">
      <g>
       <use xlink:href="#m36bbc88fbf" x="101.85" y="148.74" style="stroke: #000000; stroke-width: 0.5"/>
      </g>
     </g>
     <g id="text_4">
      <!-- 0 -->
      <g transform="translate(99.903672 157.250469) scale(0.07 -0.07)">
       <defs>
        <path id="ArialMT-30" d="M 266 2259 
Q 266 3072 433 3567 
Q 600 4063 929 4331 
Q 1259 4600 1759 4600 
Q 2128 4600 2406 4451 
Q 2684 4303 2865 4023 
Q 3047 3744 3150 3342 
Q 3253 2941 3253 2259 
Q 3253 1453 3087 958 
Q 2922 463 2592 192 
Q 2263 -78 1759 -78 
Q 1097 -78 719 397 
Q 266 969 266 2259 
z
M 844 2259 
Q 844 1131 1108 757 
Q 1372 384 1759 384 
Q 2147 384 2411 759 
Q 2675 1134 2675 2259 
Q 2675 3391 2411 3762 
Q 2147 4134 1753 4134 
Q 1366 4134 1134 3806 
Q 844 3388 844 2259 
z
" transform="scale(0.015625)"/>
       </defs>
       <use xlink:href="#ArialMT-30"/>
      </g>
     </g>
    </g>
    <g id="xtick_5">
     <g id="line2d_5">
      <g>
       <use xlink:href="#m36bbc88fbf" x="123.575806" y="148.74" style="stroke: #000000; stroke-width: 0.5"/>
      </g>
     </g>
     <g id="text_5">
      <!-- 1 -->
      <g transform="translate(121.629478 157.250469) scale(0.07 -0.07)">
       <use xlink:href="#ArialMT-31"/>
      </g>
     </g>
    </g>
    <g id="xtick_6">
     <g id="line2d_6">
      <g>
       <use xlink:href="#m36bbc88fbf" x="145.301613" y="148.74" style="stroke: #000000; stroke-width: 0.5"/>
      </g>
     </g>
     <g id="text_6">
      <!-- 2 -->
      <g transform="translate(143.355285 157.250469) scale(0.07 -0.07)">
       <use xlink:href="#ArialMT-32"/>
      </g>
     </g>
    </g>
    <g id="xtick_7">
     <g id="line2d_7">
      <g>
       <use xlink:href="#m36bbc88fbf" x="167.027419" y="148.74" style="stroke: #000000; stroke-width: 0.5"/>
      </g>
     </g>
     <g id="text_7">
      <!-- 3 -->
      <g transform="translate(165.081091 157.250469) scale(0.07 -0.07)">
       <use xlink:href="#ArialMT-33"/>
      </g>
     </g>
    </g>
    <g id="text_8">
     <!-- Cumulative Evidence -->
     <g transform="translate(68.974062 167.652187) scale(0.07 -0.07)">
      <defs>
       <path id="ArialMT-43" d="M 3763 1606 
L 4369 1453 
Q 4178 706 3683 314 
Q 3188 -78 2472 -78 
Q 1731 -78 1267 223 
Q 803 525 561 1097 
Q 319 1669 319 2325 
Q 319 3041 592 3573 
Q 866 4106 1370 4382 
Q 1875 4659 2481 4659 
Q 3169 4659 3637 4309 
Q 4106 3959 4291 3325 
L 3694 3184 
Q 3534 3684 3231 3912 
Q 2928 4141 2469 4141 
Q 1941 4141 1586 3887 
Q 1231 3634 1087 3207 
Q 944 2781 944 2328 
Q 944 1744 1114 1308 
Q 1284 872 1643 656 
Q 2003 441 2422 441 
Q 2931 441 3284 734 
Q 3638 1028 3763 1606 
z
" transform="scale(0.015625)"/>
       <path id="ArialMT-75" d="M 2597 0 
L 2597 488 
Q 2209 -75 1544 -75 
Q 1250 -75 995 37 
Q 741 150 617 320 
Q 494 491 444 738 
Q 409 903 409 1263 
L 409 3319 
L 972 3319 
L 972 1478 
Q 972 1038 1006 884 
Q 1059 663 1231 536 
Q 1403 409 1656 409 
Q 1909 409 2131 539 
Q 2353 669 2445 892 
Q 2538 1116 2538 1541 
L 2538 3319 
L 3100 3319 
L 3100 0 
L 2597 0 
z
" transform="scale(0.015625)"/>
       <path id="ArialMT-6d" d="M 422 0 
L 422 3319 
L 925 3319 
L 925 2853 
Q 1081 3097 1340 3245 
Q 1600 3394 1931 3394 
Q 2300 3394 2536 3241 
Q 2772 3088 2869 2813 
Q 3263 3394 3894 3394 
Q 4388 3394 4653 3120 
Q 4919 2847 4919 2278 
L 4919 0 
L 4359 0 
L 4359 2091 
Q 4359 2428 4304 2576 
Q 4250 2725 4106 2815 
Q 3963 2906 3769 2906 
Q 3419 2906 3187 2673 
Q 2956 2441 2956 1928 
L 2956 0 
L 2394 0 
L 2394 2156 
Q 2394 2531 2256 2718 
Q 2119 2906 1806 2906 
Q 1569 2906 1367 2781 
Q 1166 2656 1075 2415 
Q 984 2175 984 1722 
L 984 0 
L 422 0 
z
" transform="scale(0.015625)"/>
       <path id="ArialMT-6c" d="M 409 0 
L 409 4581 
L 972 4581 
L 972 0 
L 409 0 
z
" transform="scale(0.015625)"/>
       <path id="ArialMT-61" d="M 2588 409 
Q 2275 144 1986 34 
Q 1697 -75 1366 -75 
Q 819 -75 525 192 
Q 231 459 231 875 
Q 231 1119 342 1320 
Q 453 1522 633 1644 
Q 813 1766 1038 1828 
Q 1203 1872 1538 1913 
Q 2219 1994 2541 2106 
Q 2544 2222 2544 2253 
Q 2544 2597 2384 2738 
Q 2169 2928 1744 2928 
Q 1347 2928 1158 2789 
Q 969 2650 878 2297 
L 328 2372 
Q 403 2725 575 2942 
Q 747 3159 1072 3276 
Q 1397 3394 1825 3394 
Q 2250 3394 2515 3294 
Q 2781 3194 2906 3042 
Q 3031 2891 3081 2659 
Q 3109 2516 3109 2141 
L 3109 1391 
Q 3109 606 3145 398 
Q 3181 191 3288 0 
L 2700 0 
Q 2613 175 2588 409 
z
M 2541 1666 
Q 2234 1541 1622 1453 
Q 1275 1403 1131 1340 
Q 988 1278 909 1158 
Q 831 1038 831 891 
Q 831 666 1001 516 
Q 1172 366 1500 366 
Q 1825 366 2078 508 
Q 2331 650 2450 897 
Q 2541 1088 2541 1459 
L 2541 1666 
z
" transform="scale(0.015625)"/>
       <path id="ArialMT-74" d="M 1650 503 
L 1731 6 
Q 1494 -44 1306 -44 
Q 1000 -44 831 53 
Q 663 150 594 308 
Q 525 466 525 972 
L 525 2881 
L 113 2881 
L 113 3319 
L 525 3319 
L 525 4141 
L 1084 4478 
L 1084 3319 
L 1650 3319 
L 1650 2881 
L 1084 2881 
L 1084 941 
Q 1084 700 1114 631 
Q 1144 563 1211 522 
Q 1278 481 1403 481 
Q 1497 481 1650 503 
z
" transform="scale(0.015625)"/>
       <path id="ArialMT-69" d="M 425 3934 
L 425 4581 
L 988 4581 
L 988 3934 
L 425 3934 
z
M 425 0 
L 425 3319 
L 988 3319 
L 988 0 
L 425 0 
z
" transform="scale(0.015625)"/>
       <path id="ArialMT-76" d="M 1344 0 
L 81 3319 
L 675 3319 
L 1388 1331 
Q 1503 1009 1600 663 
Q 1675 925 1809 1294 
L 2547 3319 
L 3125 3319 
L 1869 0 
L 1344 0 
z
" transform="scale(0.015625)"/>
       <path id="ArialMT-65" d="M 2694 1069 
L 3275 997 
Q 3138 488 2766 206 
Q 2394 -75 1816 -75 
Q 1088 -75 661 373 
Q 234 822 234 1631 
Q 234 2469 665 2931 
Q 1097 3394 1784 3394 
Q 2450 3394 2872 2941 
Q 3294 2488 3294 1666 
Q 3294 1616 3291 1516 
L 816 1516 
Q 847 969 1125 678 
Q 1403 388 1819 388 
Q 2128 388 2347 550 
Q 2566 713 2694 1069 
z
M 847 1978 
L 2700 1978 
Q 2663 2397 2488 2606 
Q 2219 2931 1791 2931 
Q 1403 2931 1139 2672 
Q 875 2413 847 1978 
z
" transform="scale(0.015625)"/>
       <path id="ArialMT-20" transform="scale(0.015625)"/>
       <path id="ArialMT-45" d="M 506 0 
L 506 4581 
L 3819 4581 
L 3819 4041 
L 1113 4041 
L 1113 2638 
L 3647 2638 
L 3647 2100 
L 1113 2100 
L 1113 541 
L 3925 541 
L 3925 0 
L 506 0 
z
" transform="scale(0.015625)"/>
       <path id="ArialMT-64" d="M 2575 0 
L 2575 419 
Q 2259 -75 1647 -75 
Q 1250 -75 917 144 
Q 584 363 401 755 
Q 219 1147 219 1656 
Q 219 2153 384 2558 
Q 550 2963 881 3178 
Q 1213 3394 1622 3394 
Q 1922 3394 2156 3267 
Q 2391 3141 2538 2938 
L 2538 4581 
L 3097 4581 
L 3097 0 
L 2575 0 
z
M 797 1656 
Q 797 1019 1065 703 
Q 1334 388 1700 388 
Q 2069 388 2326 689 
Q 2584 991 2584 1609 
Q 2584 2291 2321 2609 
Q 2059 2928 1675 2928 
Q 1300 2928 1048 2622 
Q 797 2316 797 1656 
z
" transform="scale(0.015625)"/>
       <path id="ArialMT-6e" d="M 422 0 
L 422 3319 
L 928 3319 
L 928 2847 
Q 1294 3394 1984 3394 
Q 2284 3394 2536 3286 
Q 2788 3178 2913 3003 
Q 3038 2828 3088 2588 
Q 3119 2431 3119 2041 
L 3119 0 
L 2556 0 
L 2556 2019 
Q 2556 2363 2490 2533 
Q 2425 2703 2258 2804 
Q 2091 2906 1866 2906 
Q 1506 2906 1245 2678 
Q 984 2450 984 1813 
L 984 0 
L 422 0 
z
" transform="scale(0.015625)"/>
       <path id="ArialMT-63" d="M 2588 1216 
L 3141 1144 
Q 3050 572 2676 248 
Q 2303 -75 1759 -75 
Q 1078 -75 664 370 
Q 250 816 250 1647 
Q 250 2184 428 2587 
Q 606 2991 970 3192 
Q 1334 3394 1763 3394 
Q 2303 3394 2647 3120 
Q 2991 2847 3088 2344 
L 2541 2259 
Q 2463 2594 2264 2762 
Q 2066 2931 1784 2931 
Q 1359 2931 1093 2626 
Q 828 2322 828 1663 
Q 828 994 1084 691 
Q 1341 388 1753 388 
Q 2084 388 2306 591 
Q 2528 794 2588 1216 
z
" transform="scale(0.015625)"/>
      </defs>
      <use xlink:href="#ArialMT-43"/>
      <use xlink:href="#ArialMT-75" transform="translate(72.216797 0)"/>
      <use xlink:href="#ArialMT-6d" transform="translate(127.832031 0)"/>
      <use xlink:href="#ArialMT-75" transform="translate(211.132812 0)"/>
      <use xlink:href="#ArialMT-6c" transform="translate(266.748047 0)"/>
      <use xlink:href="#ArialMT-61" transform="translate(288.964844 0)"/>
      <use xlink:href="#ArialMT-74" transform="translate(344.580078 0)"/>
      <use xlink:href="#ArialMT-69" transform="translate(372.363281 0)"/>
      <use xlink:href="#ArialMT-76" transform="translate(394.580078 0)"/>
      <use xlink:href="#ArialMT-65" transform="translate(444.580078 0)"/>
      <use xlink:href="#ArialMT-20" transform="translate(500.195312 0)"/>
      <use xlink:href="#ArialMT-45" transform="translate(527.978516 0)"/>
      <use xlink:href="#ArialMT-76" transform="translate(594.677734 0)"/>
      <use xlink:href="#ArialMT-69" transform="translate(644.677734 0)"/>
      <use xlink:href="#ArialMT-64" transform="translate(666.894531 0)"/>
      <use xlink:href="#ArialMT-65" transform="translate(722.509766 0)"/>
      <use xlink:href="#ArialMT-6e" transform="translate(778.125 0)"/>
      <use xlink:href="#ArialMT-63" transform="translate(833.740234 0)"/>
      <use xlink:href="#ArialMT-65" transform="translate(883.740234 0)"/>
     </g>
    </g>
   </g>
   <g id="matplotlib.axis_2">
    <g id="ytick_1">
     <g id="line2d_8">
      <defs>
       <path id="m79f237bea0" d="M 0 0 
L 2 0 
" style="stroke: #000000; stroke-width: 0.5"/>
      </defs>
      <g>
       <use xlink:href="#m79f237bea0" x="34.5" y="142.47" style="stroke: #000000; stroke-width: 0.5"/>
      </g>
     </g>
     <g id="text_9">
      <!-- 0.0 -->
      <g transform="translate(21.27 144.975234) scale(0.07 -0.07)">
       <defs>
        <path id="ArialMT-2e" d="M 581 0 
L 581 641 
L 1222 641 
L 1222 0 
L 581 0 
z
" transform="scale(0.015625)"/>
       </defs>
       <use xlink:href="#ArialMT-30"/>
       <use xlink:href="#ArialMT-2e" transform="translate(55.615234 0)"/>
       <use xlink:href="#ArialMT-30" transform="translate(83.398438 0)"/>
      </g>
     </g>
    </g>
    <g id="ytick_2">
     <g id="line2d_9">
      <g>
       <use xlink:href="#m79f237bea0" x="34.5" y="117.39" style="stroke: #000000; stroke-width: 0.5"/>
      </g>
     </g>
     <g id="text_10">
      <!-- 0.2 -->
      <g transform="translate(21.27 119.895234) scale(0.07 -0.07)">
       <use xlink:href="#ArialMT-30"/>
       <use xlink:href="#ArialMT-2e" transform="translate(55.615234 0)"/>
       <use xlink:href="#ArialMT-32" transform="translate(83.398438 0)"/>
      </g>
     </g>
    </g>
    <g id="ytick_3">
     <g id="line2d_10">
      <g>
       <use xlink:href="#m79f237bea0" x="34.5" y="92.31" style="stroke: #000000; stroke-width: 0.5"/>
      </g>
     </g>
     <g id="text_11">
      <!-- 0.4 -->
      <g transform="translate(21.27 94.815234) scale(0.07 -0.07)">
       <defs>
        <path id="ArialMT-34" d="M 2069 0 
L 2069 1097 
L 81 1097 
L 81 1613 
L 2172 4581 
L 2631 4581 
L 2631 1613 
L 3250 1613 
L 3250 1097 
L 2631 1097 
L 2631 0 
L 2069 0 
z
M 2069 1613 
L 2069 3678 
L 634 1613 
L 2069 1613 
z
" transform="scale(0.015625)"/>
       </defs>
       <use xlink:href="#ArialMT-30"/>
       <use xlink:href="#ArialMT-2e" transform="translate(55.615234 0)"/>
       <use xlink:href="#ArialMT-34" transform="translate(83.398438 0)"/>
      </g>
     </g>
    </g>
    <g id="ytick_4">
     <g id="line2d_11">
      <g>
       <use xlink:href="#m79f237bea0" x="34.5" y="67.23" style="stroke: #000000; stroke-width: 0.5"/>
      </g>
     </g>
     <g id="text_12">
      <!-- 0.6 -->
      <g transform="translate(21.27 69.735234) scale(0.07 -0.07)">
       <defs>
        <path id="ArialMT-36" d="M 3184 3459 
L 2625 3416 
Q 2550 3747 2413 3897 
Q 2184 4138 1850 4138 
Q 1581 4138 1378 3988 
Q 1113 3794 959 3422 
Q 806 3050 800 2363 
Q 1003 2672 1297 2822 
Q 1591 2972 1913 2972 
Q 2475 2972 2870 2558 
Q 3266 2144 3266 1488 
Q 3266 1056 3080 686 
Q 2894 316 2569 119 
Q 2244 -78 1831 -78 
Q 1128 -78 684 439 
Q 241 956 241 2144 
Q 241 3472 731 4075 
Q 1159 4600 1884 4600 
Q 2425 4600 2770 4297 
Q 3116 3994 3184 3459 
z
M 888 1484 
Q 888 1194 1011 928 
Q 1134 663 1356 523 
Q 1578 384 1822 384 
Q 2178 384 2434 671 
Q 2691 959 2691 1453 
Q 2691 1928 2437 2201 
Q 2184 2475 1800 2475 
Q 1419 2475 1153 2201 
Q 888 1928 888 1484 
z
" transform="scale(0.015625)"/>
       </defs>
       <use xlink:href="#ArialMT-30"/>
       <use xlink:href="#ArialMT-2e" transform="translate(55.615234 0)"/>
       <use xlink:href="#ArialMT-36" transform="translate(83.398438 0)"/>
      </g>
     </g>
    </g>
    <g id="ytick_5">
     <g id="line2d_12">
      <g>
       <use xlink:href="#m79f237bea0" x="34.5" y="42.15" style="stroke: #000000; stroke-width: 0.5"/>
      </g>
     </g>
     <g id="text_13">
      <!-- 0.8 -->
      <g transform="translate(21.27 44.655234) scale(0.07 -0.07)">
       <defs>
        <path id="ArialMT-38" d="M 1131 2484 
Q 781 2613 612 2850 
Q 444 3088 444 3419 
Q 444 3919 803 4259 
Q 1163 4600 1759 4600 
Q 2359 4600 2725 4251 
Q 3091 3903 3091 3403 
Q 3091 3084 2923 2848 
Q 2756 2613 2416 2484 
Q 2838 2347 3058 2040 
Q 3278 1734 3278 1309 
Q 3278 722 2862 322 
Q 2447 -78 1769 -78 
Q 1091 -78 675 323 
Q 259 725 259 1325 
Q 259 1772 486 2073 
Q 713 2375 1131 2484 
z
M 1019 3438 
Q 1019 3113 1228 2906 
Q 1438 2700 1772 2700 
Q 2097 2700 2305 2904 
Q 2513 3109 2513 3406 
Q 2513 3716 2298 3927 
Q 2084 4138 1766 4138 
Q 1444 4138 1231 3931 
Q 1019 3725 1019 3438 
z
M 838 1322 
Q 838 1081 952 856 
Q 1066 631 1291 507 
Q 1516 384 1775 384 
Q 2178 384 2440 643 
Q 2703 903 2703 1303 
Q 2703 1709 2433 1975 
Q 2163 2241 1756 2241 
Q 1359 2241 1098 1978 
Q 838 1716 838 1322 
z
" transform="scale(0.015625)"/>
       </defs>
       <use xlink:href="#ArialMT-30"/>
       <use xlink:href="#ArialMT-2e" transform="translate(55.615234 0)"/>
       <use xlink:href="#ArialMT-38" transform="translate(83.398438 0)"/>
      </g>
     </g>
    </g>
    <g id="ytick_6">
     <g id="line2d_13">
      <g>
       <use xlink:href="#m79f237bea0" x="34.5" y="17.07" style="stroke: #000000; stroke-width: 0.5"/>
      </g>
     </g>
     <g id="text_14">
      <!-- 1.0 -->
      <g transform="translate(21.27 19.575234) scale(0.07 -0.07)">
       <use xlink:href="#ArialMT-31"/>
       <use xlink:href="#ArialMT-2e" transform="translate(55.615234 0)"/>
       <use xlink:href="#ArialMT-30" transform="translate(83.398438 0)"/>
      </g>
     </g>
    </g>
    <g id="text_15">
     <!-- Probability of sampling -->
     <g transform="translate(15.796719 114.98) rotate(-90) scale(0.07 -0.07)">
      <defs>
       <path id="ArialMT-50" d="M 494 0 
L 494 4581 
L 2222 4581 
Q 2678 4581 2919 4538 
Q 3256 4481 3484 4323 
Q 3713 4166 3852 3881 
Q 3991 3597 3991 3256 
Q 3991 2672 3619 2267 
Q 3247 1863 2275 1863 
L 1100 1863 
L 1100 0 
L 494 0 
z
M 1100 2403 
L 2284 2403 
Q 2872 2403 3119 2622 
Q 3366 2841 3366 3238 
Q 3366 3525 3220 3729 
Q 3075 3934 2838 4000 
Q 2684 4041 2272 4041 
L 1100 4041 
L 1100 2403 
z
" transform="scale(0.015625)"/>
       <path id="ArialMT-72" d="M 416 0 
L 416 3319 
L 922 3319 
L 922 2816 
Q 1116 3169 1280 3281 
Q 1444 3394 1641 3394 
Q 1925 3394 2219 3213 
L 2025 2691 
Q 1819 2813 1613 2813 
Q 1428 2813 1281 2702 
Q 1134 2591 1072 2394 
Q 978 2094 978 1738 
L 978 0 
L 416 0 
z
" transform="scale(0.015625)"/>
       <path id="ArialMT-6f" d="M 213 1659 
Q 213 2581 725 3025 
Q 1153 3394 1769 3394 
Q 2453 3394 2887 2945 
Q 3322 2497 3322 1706 
Q 3322 1066 3130 698 
Q 2938 331 2570 128 
Q 2203 -75 1769 -75 
Q 1072 -75 642 372 
Q 213 819 213 1659 
z
M 791 1659 
Q 791 1022 1069 705 
Q 1347 388 1769 388 
Q 2188 388 2466 706 
Q 2744 1025 2744 1678 
Q 2744 2294 2464 2611 
Q 2184 2928 1769 2928 
Q 1347 2928 1069 2612 
Q 791 2297 791 1659 
z
" transform="scale(0.015625)"/>
       <path id="ArialMT-62" d="M 941 0 
L 419 0 
L 419 4581 
L 981 4581 
L 981 2947 
Q 1338 3394 1891 3394 
Q 2197 3394 2470 3270 
Q 2744 3147 2920 2923 
Q 3097 2700 3197 2384 
Q 3297 2069 3297 1709 
Q 3297 856 2875 390 
Q 2453 -75 1863 -75 
Q 1275 -75 941 416 
L 941 0 
z
M 934 1684 
Q 934 1088 1097 822 
Q 1363 388 1816 388 
Q 2184 388 2453 708 
Q 2722 1028 2722 1663 
Q 2722 2313 2464 2622 
Q 2206 2931 1841 2931 
Q 1472 2931 1203 2611 
Q 934 2291 934 1684 
z
" transform="scale(0.015625)"/>
       <path id="ArialMT-79" d="M 397 -1278 
L 334 -750 
Q 519 -800 656 -800 
Q 844 -800 956 -737 
Q 1069 -675 1141 -563 
Q 1194 -478 1313 -144 
Q 1328 -97 1363 -6 
L 103 3319 
L 709 3319 
L 1400 1397 
Q 1534 1031 1641 628 
Q 1738 1016 1872 1384 
L 2581 3319 
L 3144 3319 
L 1881 -56 
Q 1678 -603 1566 -809 
Q 1416 -1088 1222 -1217 
Q 1028 -1347 759 -1347 
Q 597 -1347 397 -1278 
z
" transform="scale(0.015625)"/>
       <path id="ArialMT-66" d="M 556 0 
L 556 2881 
L 59 2881 
L 59 3319 
L 556 3319 
L 556 3672 
Q 556 4006 616 4169 
Q 697 4388 901 4523 
Q 1106 4659 1475 4659 
Q 1713 4659 2000 4603 
L 1916 4113 
Q 1741 4144 1584 4144 
Q 1328 4144 1222 4034 
Q 1116 3925 1116 3625 
L 1116 3319 
L 1763 3319 
L 1763 2881 
L 1116 2881 
L 1116 0 
L 556 0 
z
" transform="scale(0.015625)"/>
       <path id="ArialMT-73" d="M 197 991 
L 753 1078 
Q 800 744 1014 566 
Q 1228 388 1613 388 
Q 2000 388 2187 545 
Q 2375 703 2375 916 
Q 2375 1106 2209 1216 
Q 2094 1291 1634 1406 
Q 1016 1563 777 1677 
Q 538 1791 414 1992 
Q 291 2194 291 2438 
Q 291 2659 392 2848 
Q 494 3038 669 3163 
Q 800 3259 1026 3326 
Q 1253 3394 1513 3394 
Q 1903 3394 2198 3281 
Q 2494 3169 2634 2976 
Q 2775 2784 2828 2463 
L 2278 2388 
Q 2241 2644 2061 2787 
Q 1881 2931 1553 2931 
Q 1166 2931 1000 2803 
Q 834 2675 834 2503 
Q 834 2394 903 2306 
Q 972 2216 1119 2156 
Q 1203 2125 1616 2013 
Q 2213 1853 2448 1751 
Q 2684 1650 2818 1456 
Q 2953 1263 2953 975 
Q 2953 694 2789 445 
Q 2625 197 2315 61 
Q 2006 -75 1616 -75 
Q 969 -75 630 194 
Q 291 463 197 991 
z
" transform="scale(0.015625)"/>
       <path id="ArialMT-70" d="M 422 -1272 
L 422 3319 
L 934 3319 
L 934 2888 
Q 1116 3141 1344 3267 
Q 1572 3394 1897 3394 
Q 2322 3394 2647 3175 
Q 2972 2956 3137 2557 
Q 3303 2159 3303 1684 
Q 3303 1175 3120 767 
Q 2938 359 2589 142 
Q 2241 -75 1856 -75 
Q 1575 -75 1351 44 
Q 1128 163 984 344 
L 984 -1272 
L 422 -1272 
z
M 931 1641 
Q 931 1000 1190 694 
Q 1450 388 1819 388 
Q 2194 388 2461 705 
Q 2728 1022 2728 1688 
Q 2728 2322 2467 2637 
Q 2206 2953 1844 2953 
Q 1484 2953 1207 2617 
Q 931 2281 931 1641 
z
" transform="scale(0.015625)"/>
       <path id="ArialMT-67" d="M 319 -275 
L 866 -356 
Q 900 -609 1056 -725 
Q 1266 -881 1628 -881 
Q 2019 -881 2231 -725 
Q 2444 -569 2519 -288 
Q 2563 -116 2559 434 
Q 2191 0 1641 0 
Q 956 0 581 494 
Q 206 988 206 1678 
Q 206 2153 378 2554 
Q 550 2956 876 3175 
Q 1203 3394 1644 3394 
Q 2231 3394 2613 2919 
L 2613 3319 
L 3131 3319 
L 3131 450 
Q 3131 -325 2973 -648 
Q 2816 -972 2473 -1159 
Q 2131 -1347 1631 -1347 
Q 1038 -1347 672 -1080 
Q 306 -813 319 -275 
z
M 784 1719 
Q 784 1066 1043 766 
Q 1303 466 1694 466 
Q 2081 466 2343 764 
Q 2606 1063 2606 1700 
Q 2606 2309 2336 2618 
Q 2066 2928 1684 2928 
Q 1309 2928 1046 2623 
Q 784 2319 784 1719 
z
" transform="scale(0.015625)"/>
      </defs>
      <use xlink:href="#ArialMT-50"/>
      <use xlink:href="#ArialMT-72" transform="translate(66.699219 0)"/>
      <use xlink:href="#ArialMT-6f" transform="translate(100 0)"/>
      <use xlink:href="#ArialMT-62" transform="translate(155.615234 0)"/>
      <use xlink:href="#ArialMT-61" transform="translate(211.230469 0)"/>
      <use xlink:href="#ArialMT-62" transform="translate(266.845703 0)"/>
      <use xlink:href="#ArialMT-69" transform="translate(322.460938 0)"/>
      <use xlink:href="#ArialMT-6c" transform="translate(344.677734 0)"/>
      <use xlink:href="#ArialMT-69" transform="translate(366.894531 0)"/>
      <use xlink:href="#ArialMT-74" transform="translate(389.111328 0)"/>
      <use xlink:href="#ArialMT-79" transform="translate(416.894531 0)"/>
      <use xlink:href="#ArialMT-20" transform="translate(466.894531 0)"/>
      <use xlink:href="#ArialMT-6f" transform="translate(494.677734 0)"/>
      <use xlink:href="#ArialMT-66" transform="translate(550.292969 0)"/>
      <use xlink:href="#ArialMT-20" transform="translate(578.076172 0)"/>
      <use xlink:href="#ArialMT-73" transform="translate(605.859375 0)"/>
      <use xlink:href="#ArialMT-61" transform="translate(655.859375 0)"/>
      <use xlink:href="#ArialMT-6d" transform="translate(711.474609 0)"/>
      <use xlink:href="#ArialMT-70" transform="translate(794.775391 0)"/>
      <use xlink:href="#ArialMT-6c" transform="translate(850.390625 0)"/>
      <use xlink:href="#ArialMT-69" transform="translate(872.607422 0)"/>
      <use xlink:href="#ArialMT-6e" transform="translate(894.824219 0)"/>
      <use xlink:href="#ArialMT-67" transform="translate(950.439453 0)"/>
     </g>
    </g>
   </g>
   <g id="LineCollection_1">
    <path d="M 101.85 142.47 
L 101.85 17.07 
" clip-path="url(#pdb8d037c3d)" style="fill: none; stroke-dasharray: 1.85,0.8; stroke-dashoffset: 0; stroke: #000000; stroke-width: 0.5"/>
   </g>
   <g id="line2d_14">
    <path d="M 38.845161 134.459246 
L 41.017742 133.853043 
L 43.190323 132.960569 
L 45.362903 132.071063 
L 47.535484 130.859297 
L 49.708065 129.802104 
L 51.880645 128.348673 
L 54.053226 126.92549 
L 56.225806 125.11972 
L 58.398387 123.211516 
L 60.570968 121.000036 
L 62.743548 117.765418 
L 64.916129 111.720953 
L 67.08871 101.272919 
L 69.26129 84.717736 
L 71.433871 63.109392 
L 73.606452 42.961251 
L 75.779032 29.067243 
L 77.951613 22.06672 
L 80.124194 19.184394 
L 82.296774 17.898918 
L 84.469355 17.406568 
L 88.814516 17.127994 
L 117.058065 17.144535 
L 119.230645 17.396905 
L 121.403226 17.83115 
L 123.575806 18.33675 
L 125.748387 20.355985 
L 127.920968 24.286944 
L 130.093548 32.976213 
L 132.266129 50.360268 
L 134.43871 73.211163 
L 136.61129 94.395539 
L 138.783871 109.737555 
L 140.956452 118.194936 
L 143.129032 122.071868 
L 145.301613 124.248554 
L 147.474194 125.898465 
L 149.646774 127.336979 
L 151.819355 128.674976 
L 153.991935 129.71435 
L 156.164516 130.929337 
L 158.337097 131.63106 
L 160.509677 132.627516 
L 162.682258 133.15489 
L 164.854839 133.80206 
" clip-path="url(#pdb8d037c3d)" style="fill: none; stroke: #2b6a99; stroke-width: 1.5; stroke-linecap: square"/>
    <defs>
     <path id="m3366f67af3" d="M 0 2.5 
C 0.663008 2.5 1.29895 2.236584 1.767767 1.767767 
C 2.236584 1.29895 2.5 0.663008 2.5 0 
C 2.5 -0.663008 2.236584 -1.29895 1.767767 -1.767767 
C 1.29895 -2.236584 0.663008 -2.5 0 -2.5 
C -0.663008 -2.5 -1.29895 -2.236584 -1.767767 -1.767767 
C -2.236584 -1.29895 -2.5 -0.663008 -2.5 0 
C -2.5 0.663008 -2.236584 1.29895 -1.767767 1.767767 
C -1.29895 2.236584 -0.663008 2.5 0 2.5 
z
" style="stroke: #2b6a99"/>
    </defs>
    <g clip-path="url(#pdb8d037c3d)">
     <use xlink:href="#m3366f67af3" x="38.845161" y="134.459246" style="fill: #2b6a99; stroke: #2b6a99"/>
     <use xlink:href="#m3366f67af3" x="41.017742" y="133.853043" style="fill: #2b6a99; stroke: #2b6a99"/>
     <use xlink:href="#m3366f67af3" x="43.190323" y="132.960569" style="fill: #2b6a99; stroke: #2b6a99"/>
     <use xlink:href="#m3366f67af3" x="45.362903" y="132.071063" style="fill: #2b6a99; stroke: #2b6a99"/>
     <use xlink:href="#m3366f67af3" x="47.535484" y="130.859297" style="fill: #2b6a99; stroke: #2b6a99"/>
     <use xlink:href="#m3366f67af3" x="49.708065" y="129.802104" style="fill: #2b6a99; stroke: #2b6a99"/>
     <use xlink:href="#m3366f67af3" x="51.880645" y="128.348673" style="fill: #2b6a99; stroke: #2b6a99"/>
     <use xlink:href="#m3366f67af3" x="54.053226" y="126.92549" style="fill: #2b6a99; stroke: #2b6a99"/>
     <use xlink:href="#m3366f67af3" x="56.225806" y="125.11972" style="fill: #2b6a99; stroke: #2b6a99"/>
     <use xlink:href="#m3366f67af3" x="58.398387" y="123.211516" style="fill: #2b6a99; stroke: #2b6a99"/>
     <use xlink:href="#m3366f67af3" x="60.570968" y="121.000036" style="fill: #2b6a99; stroke: #2b6a99"/>
     <use xlink:href="#m3366f67af3" x="62.743548" y="117.765418" style="fill: #2b6a99; stroke: #2b6a99"/>
     <use xlink:href="#m3366f67af3" x="64.916129" y="111.720953" style="fill: #2b6a99; stroke: #2b6a99"/>
     <use xlink:href="#m3366f67af3" x="67.08871" y="101.272919" style="fill: #2b6a99; stroke: #2b6a99"/>
     <use xlink:href="#m3366f67af3" x="69.26129" y="84.717736" style="fill: #2b6a99; stroke: #2b6a99"/>
     <use xlink:href="#m3366f67af3" x="71.433871" y="63.109392" style="fill: #2b6a99; stroke: #2b6a99"/>
     <use xlink:href="#m3366f67af3" x="73.606452" y="42.961251" style="fill: #2b6a99; stroke: #2b6a99"/>
     <use xlink:href="#m3366f67af3" x="75.779032" y="29.067243" style="fill: #2b6a99; stroke: #2b6a99"/>
     <use xlink:href="#m3366f67af3" x="77.951613" y="22.06672" style="fill: #2b6a99; stroke: #2b6a99"/>
     <use xlink:href="#m3366f67af3" x="80.124194" y="19.184394" style="fill: #2b6a99; stroke: #2b6a99"/>
     <use xlink:href="#m3366f67af3" x="82.296774" y="17.898918" style="fill: #2b6a99; stroke: #2b6a99"/>
     <use xlink:href="#m3366f67af3" x="84.469355" y="17.406568" style="fill: #2b6a99; stroke: #2b6a99"/>
     <use xlink:href="#m3366f67af3" x="88.814516" y="17.127994" style="fill: #2b6a99; stroke: #2b6a99"/>
     <use xlink:href="#m3366f67af3" x="117.058065" y="17.144535" style="fill: #2b6a99; stroke: #2b6a99"/>
     <use xlink:href="#m3366f67af3" x="119.230645" y="17.396905" style="fill: #2b6a99; stroke: #2b6a99"/>
     <use xlink:href="#m3366f67af3" x="121.403226" y="17.83115" style="fill: #2b6a99; stroke: #2b6a99"/>
     <use xlink:href="#m3366f67af3" x="123.575806" y="18.33675" style="fill: #2b6a99; stroke: #2b6a99"/>
     <use xlink:href="#m3366f67af3" x="125.748387" y="20.355985" style="fill: #2b6a99; stroke: #2b6a99"/>
     <use xlink:href="#m3366f67af3" x="127.920968" y="24.286944" style="fill: #2b6a99; stroke: #2b6a99"/>
     <use xlink:href="#m3366f67af3" x="130.093548" y="32.976213" style="fill: #2b6a99; stroke: #2b6a99"/>
     <use xlink:href="#m3366f67af3" x="132.266129" y="50.360268" style="fill: #2b6a99; stroke: #2b6a99"/>
     <use xlink:href="#m3366f67af3" x="134.43871" y="73.211163" style="fill: #2b6a99; stroke: #2b6a99"/>
     <use xlink:href="#m3366f67af3" x="136.61129" y="94.395539" style="fill: #2b6a99; stroke: #2b6a99"/>
     <use xlink:href="#m3366f67af3" x="138.783871" y="109.737555" style="fill: #2b6a99; stroke: #2b6a99"/>
     <use xlink:href="#m3366f67af3" x="140.956452" y="118.194936" style="fill: #2b6a99; stroke: #2b6a99"/>
     <use xlink:href="#m3366f67af3" x="143.129032" y="122.071868" style="fill: #2b6a99; stroke: #2b6a99"/>
     <use xlink:href="#m3366f67af3" x="145.301613" y="124.248554" style="fill: #2b6a99; stroke: #2b6a99"/>
     <use xlink:href="#m3366f67af3" x="147.474194" y="125.898465" style="fill: #2b6a99; stroke: #2b6a99"/>
     <use xlink:href="#m3366f67af3" x="149.646774" y="127.336979" style="fill: #2b6a99; stroke: #2b6a99"/>
     <use xlink:href="#m3366f67af3" x="151.819355" y="128.674976" style="fill: #2b6a99; stroke: #2b6a99"/>
     <use xlink:href="#m3366f67af3" x="153.991935" y="129.71435" style="fill: #2b6a99; stroke: #2b6a99"/>
     <use xlink:href="#m3366f67af3" x="156.164516" y="130.929337" style="fill: #2b6a99; stroke: #2b6a99"/>
     <use xlink:href="#m3366f67af3" x="158.337097" y="131.63106" style="fill: #2b6a99; stroke: #2b6a99"/>
     <use xlink:href="#m3366f67af3" x="160.509677" y="132.627516" style="fill: #2b6a99; stroke: #2b6a99"/>
     <use xlink:href="#m3366f67af3" x="162.682258" y="133.15489" style="fill: #2b6a99; stroke: #2b6a99"/>
     <use xlink:href="#m3366f67af3" x="164.854839" y="133.80206" style="fill: #2b6a99; stroke: #2b6a99"/>
    </g>
   </g>
   <g id="line2d_15">
    <path d="M 56.225806 142.147985 
L 58.398387 142.015624 
L 60.570968 141.986255 
L 62.743548 141.887636 
L 64.916129 141.771196 
L 67.08871 141.55822 
L 69.26129 141.275573 
L 71.433871 140.972423 
L 73.606452 140.654257 
L 75.779032 140.103095 
L 77.951613 139.492106 
L 80.124194 138.605113 
L 82.296774 137.098948 
L 84.469355 131.28628 
L 86.641935 114.352423 
L 88.814516 73.168832 
L 90.987097 43.031476 
L 93.159677 26.681771 
L 95.332258 18.344851 
L 99.677419 17.095824 
L 106.195161 17.31099 
L 108.367742 18.064483 
L 110.540323 21.246767 
L 112.712903 29.775672 
L 114.885484 59.539094 
L 117.058065 96.931632 
L 119.230645 125.324554 
L 121.403226 134.945883 
L 123.575806 138.096234 
L 125.748387 139.524362 
L 127.920968 140.518415 
L 130.093548 141.122985 
L 132.266129 141.521124 
L 134.43871 141.807242 
L 136.61129 141.962769 
L 138.783871 142.084296 
L 140.956452 142.220746 
L 143.129032 142.259074 
L 145.301613 142.354683 
" clip-path="url(#pdb8d037c3d)" style="fill: none; stroke: #1b7c3d; stroke-width: 1.5; stroke-linecap: square"/>
    <defs>
     <path id="ma13e7fe892" d="M 0 2.5 
C 0.663008 2.5 1.29895 2.236584 1.767767 1.767767 
C 2.236584 1.29895 2.5 0.663008 2.5 0 
C 2.5 -0.663008 2.236584 -1.29895 1.767767 -1.767767 
C 1.29895 -2.236584 0.663008 -2.5 0 -2.5 
C -0.663008 -2.5 -1.29895 -2.236584 -1.767767 -1.767767 
C -2.236584 -1.29895 -2.5 -0.663008 -2.5 0 
C -2.5 0.663008 -2.236584 1.29895 -1.767767 1.767767 
C -1.29895 2.236584 -0.663008 2.5 0 2.5 
z
" style="stroke: #1b7c3d"/>
    </defs>
    <g clip-path="url(#pdb8d037c3d)">
     <use xlink:href="#ma13e7fe892" x="56.225806" y="142.147985" style="fill: #1b7c3d; stroke: #1b7c3d"/>
     <use xlink:href="#ma13e7fe892" x="58.398387" y="142.015624" style="fill: #1b7c3d; stroke: #1b7c3d"/>
     <use xlink:href="#ma13e7fe892" x="60.570968" y="141.986255" style="fill: #1b7c3d; stroke: #1b7c3d"/>
     <use xlink:href="#ma13e7fe892" x="62.743548" y="141.887636" style="fill: #1b7c3d; stroke: #1b7c3d"/>
     <use xlink:href="#ma13e7fe892" x="64.916129" y="141.771196" style="fill: #1b7c3d; stroke: #1b7c3d"/>
     <use xlink:href="#ma13e7fe892" x="67.08871" y="141.55822" style="fill: #1b7c3d; stroke: #1b7c3d"/>
     <use xlink:href="#ma13e7fe892" x="69.26129" y="141.275573" style="fill: #1b7c3d; stroke: #1b7c3d"/>
     <use xlink:href="#ma13e7fe892" x="71.433871" y="140.972423" style="fill: #1b7c3d; stroke: #1b7c3d"/>
     <use xlink:href="#ma13e7fe892" x="73.606452" y="140.654257" style="fill: #1b7c3d; stroke: #1b7c3d"/>
     <use xlink:href="#ma13e7fe892" x="75.779032" y="140.103095" style="fill: #1b7c3d; stroke: #1b7c3d"/>
     <use xlink:href="#ma13e7fe892" x="77.951613" y="139.492106" style="fill: #1b7c3d; stroke: #1b7c3d"/>
     <use xlink:href="#ma13e7fe892" x="80.124194" y="138.605113" style="fill: #1b7c3d; stroke: #1b7c3d"/>
     <use xlink:href="#ma13e7fe892" x="82.296774" y="137.098948" style="fill: #1b7c3d; stroke: #1b7c3d"/>
     <use xlink:href="#ma13e7fe892" x="84.469355" y="131.28628" style="fill: #1b7c3d; stroke: #1b7c3d"/>
     <use xlink:href="#ma13e7fe892" x="86.641935" y="114.352423" style="fill: #1b7c3d; stroke: #1b7c3d"/>
     <use xlink:href="#ma13e7fe892" x="88.814516" y="73.168832" style="fill: #1b7c3d; stroke: #1b7c3d"/>
     <use xlink:href="#ma13e7fe892" x="90.987097" y="43.031476" style="fill: #1b7c3d; stroke: #1b7c3d"/>
     <use xlink:href="#ma13e7fe892" x="93.159677" y="26.681771" style="fill: #1b7c3d; stroke: #1b7c3d"/>
     <use xlink:href="#ma13e7fe892" x="95.332258" y="18.344851" style="fill: #1b7c3d; stroke: #1b7c3d"/>
     <use xlink:href="#ma13e7fe892" x="99.677419" y="17.095824" style="fill: #1b7c3d; stroke: #1b7c3d"/>
     <use xlink:href="#ma13e7fe892" x="106.195161" y="17.31099" style="fill: #1b7c3d; stroke: #1b7c3d"/>
     <use xlink:href="#ma13e7fe892" x="108.367742" y="18.064483" style="fill: #1b7c3d; stroke: #1b7c3d"/>
     <use xlink:href="#ma13e7fe892" x="110.540323" y="21.246767" style="fill: #1b7c3d; stroke: #1b7c3d"/>
     <use xlink:href="#ma13e7fe892" x="112.712903" y="29.775672" style="fill: #1b7c3d; stroke: #1b7c3d"/>
     <use xlink:href="#ma13e7fe892" x="114.885484" y="59.539094" style="fill: #1b7c3d; stroke: #1b7c3d"/>
     <use xlink:href="#ma13e7fe892" x="117.058065" y="96.931632" style="fill: #1b7c3d; stroke: #1b7c3d"/>
     <use xlink:href="#ma13e7fe892" x="119.230645" y="125.324554" style="fill: #1b7c3d; stroke: #1b7c3d"/>
     <use xlink:href="#ma13e7fe892" x="121.403226" y="134.945883" style="fill: #1b7c3d; stroke: #1b7c3d"/>
     <use xlink:href="#ma13e7fe892" x="123.575806" y="138.096234" style="fill: #1b7c3d; stroke: #1b7c3d"/>
     <use xlink:href="#ma13e7fe892" x="125.748387" y="139.524362" style="fill: #1b7c3d; stroke: #1b7c3d"/>
     <use xlink:href="#ma13e7fe892" x="127.920968" y="140.518415" style="fill: #1b7c3d; stroke: #1b7c3d"/>
     <use xlink:href="#ma13e7fe892" x="130.093548" y="141.122985" style="fill: #1b7c3d; stroke: #1b7c3d"/>
     <use xlink:href="#ma13e7fe892" x="132.266129" y="141.521124" style="fill: #1b7c3d; stroke: #1b7c3d"/>
     <use xlink:href="#ma13e7fe892" x="134.43871" y="141.807242" style="fill: #1b7c3d; stroke: #1b7c3d"/>
     <use xlink:href="#ma13e7fe892" x="136.61129" y="141.962769" style="fill: #1b7c3d; stroke: #1b7c3d"/>
     <use xlink:href="#ma13e7fe892" x="138.783871" y="142.084296" style="fill: #1b7c3d; stroke: #1b7c3d"/>
     <use xlink:href="#ma13e7fe892" x="140.956452" y="142.220746" style="fill: #1b7c3d; stroke: #1b7c3d"/>
     <use xlink:href="#ma13e7fe892" x="143.129032" y="142.259074" style="fill: #1b7c3d; stroke: #1b7c3d"/>
     <use xlink:href="#ma13e7fe892" x="145.301613" y="142.354683" style="fill: #1b7c3d; stroke: #1b7c3d"/>
    </g>
   </g>
   <g id="line2d_16">
    <path d="M 38.845161 135.012278 
L 41.017742 134.598811 
L 43.190323 133.846822 
L 45.362903 133.067149 
L 47.535484 132.264278 
L 49.708065 131.269888 
L 51.880645 130.657033 
L 54.053226 129.193616 
L 56.225806 128.4068 
L 58.398387 126.552823 
L 60.570968 125.697046 
L 62.743548 123.142132 
L 64.916129 122.22108 
L 67.08871 118.159572 
L 69.26129 116.058765 
L 71.433871 105.088696 
L 73.606452 95.077191 
L 75.779032 77.73219 
L 77.951613 55.974745 
L 80.124194 47.303585 
L 82.296774 28.241134 
L 84.469355 24.65449 
L 86.641935 19.002866 
L 88.814516 18.481247 
L 90.987097 17.350132 
L 93.159677 17.389257 
L 97.504839 17.184269 
L 106.195161 17.07722 
L 110.540323 17.210915 
L 112.712903 17.786655 
L 114.885484 18.314201 
L 117.058065 19.272065 
L 119.230645 25.488254 
L 121.403226 26.918748 
L 123.575806 44.180672 
L 125.748387 48.576535 
L 127.920968 76.626589 
L 130.093548 88.055928 
L 132.266129 100.756461 
L 134.43871 113.303427 
L 136.61129 115.342867 
L 138.783871 121.086679 
L 140.956452 122.249292 
L 143.129032 125.670728 
L 145.301613 126.438096 
L 147.474194 128.586956 
L 149.646774 129.621872 
L 151.819355 131.247386 
L 153.991935 132.299962 
L 156.164516 133.259656 
L 158.337097 134.46523 
L 160.509677 135.036569 
L 162.682258 136.209769 
L 164.854839 136.360008 
" clip-path="url(#pdb8d037c3d)" style="fill: none; stroke: #f16c23; stroke-width: 1.5; stroke-linecap: square"/>
    <defs>
     <path id="m7d463261f2" d="M 0 2.5 
C 0.663008 2.5 1.29895 2.236584 1.767767 1.767767 
C 2.236584 1.29895 2.5 0.663008 2.5 0 
C 2.5 -0.663008 2.236584 -1.29895 1.767767 -1.767767 
C 1.29895 -2.236584 0.663008 -2.5 0 -2.5 
C -0.663008 -2.5 -1.29895 -2.236584 -1.767767 -1.767767 
C -2.236584 -1.29895 -2.5 -0.663008 -2.5 0 
C -2.5 0.663008 -2.236584 1.29895 -1.767767 1.767767 
C -1.29895 2.236584 -0.663008 2.5 0 2.5 
z
" style="stroke: #f16c23"/>
    </defs>
    <g clip-path="url(#pdb8d037c3d)">
     <use xlink:href="#m7d463261f2" x="38.845161" y="135.012278" style="fill: #f16c23; stroke: #f16c23"/>
     <use xlink:href="#m7d463261f2" x="41.017742" y="134.598811" style="fill: #f16c23; stroke: #f16c23"/>
     <use xlink:href="#m7d463261f2" x="43.190323" y="133.846822" style="fill: #f16c23; stroke: #f16c23"/>
     <use xlink:href="#m7d463261f2" x="45.362903" y="133.067149" style="fill: #f16c23; stroke: #f16c23"/>
     <use xlink:href="#m7d463261f2" x="47.535484" y="132.264278" style="fill: #f16c23; stroke: #f16c23"/>
     <use xlink:href="#m7d463261f2" x="49.708065" y="131.269888" style="fill: #f16c23; stroke: #f16c23"/>
     <use xlink:href="#m7d463261f2" x="51.880645" y="130.657033" style="fill: #f16c23; stroke: #f16c23"/>
     <use xlink:href="#m7d463261f2" x="54.053226" y="129.193616" style="fill: #f16c23; stroke: #f16c23"/>
     <use xlink:href="#m7d463261f2" x="56.225806" y="128.4068" style="fill: #f16c23; stroke: #f16c23"/>
     <use xlink:href="#m7d463261f2" x="58.398387" y="126.552823" style="fill: #f16c23; stroke: #f16c23"/>
     <use xlink:href="#m7d463261f2" x="60.570968" y="125.697046" style="fill: #f16c23; stroke: #f16c23"/>
     <use xlink:href="#m7d463261f2" x="62.743548" y="123.142132" style="fill: #f16c23; stroke: #f16c23"/>
     <use xlink:href="#m7d463261f2" x="64.916129" y="122.22108" style="fill: #f16c23; stroke: #f16c23"/>
     <use xlink:href="#m7d463261f2" x="67.08871" y="118.159572" style="fill: #f16c23; stroke: #f16c23"/>
     <use xlink:href="#m7d463261f2" x="69.26129" y="116.058765" style="fill: #f16c23; stroke: #f16c23"/>
     <use xlink:href="#m7d463261f2" x="71.433871" y="105.088696" style="fill: #f16c23; stroke: #f16c23"/>
     <use xlink:href="#m7d463261f2" x="73.606452" y="95.077191" style="fill: #f16c23; stroke: #f16c23"/>
     <use xlink:href="#m7d463261f2" x="75.779032" y="77.73219" style="fill: #f16c23; stroke: #f16c23"/>
     <use xlink:href="#m7d463261f2" x="77.951613" y="55.974745" style="fill: #f16c23; stroke: #f16c23"/>
     <use xlink:href="#m7d463261f2" x="80.124194" y="47.303585" style="fill: #f16c23; stroke: #f16c23"/>
     <use xlink:href="#m7d463261f2" x="82.296774" y="28.241134" style="fill: #f16c23; stroke: #f16c23"/>
     <use xlink:href="#m7d463261f2" x="84.469355" y="24.65449" style="fill: #f16c23; stroke: #f16c23"/>
     <use xlink:href="#m7d463261f2" x="86.641935" y="19.002866" style="fill: #f16c23; stroke: #f16c23"/>
     <use xlink:href="#m7d463261f2" x="88.814516" y="18.481247" style="fill: #f16c23; stroke: #f16c23"/>
     <use xlink:href="#m7d463261f2" x="90.987097" y="17.350132" style="fill: #f16c23; stroke: #f16c23"/>
     <use xlink:href="#m7d463261f2" x="93.159677" y="17.389257" style="fill: #f16c23; stroke: #f16c23"/>
     <use xlink:href="#m7d463261f2" x="97.504839" y="17.184269" style="fill: #f16c23; stroke: #f16c23"/>
     <use xlink:href="#m7d463261f2" x="106.195161" y="17.07722" style="fill: #f16c23; stroke: #f16c23"/>
     <use xlink:href="#m7d463261f2" x="110.540323" y="17.210915" style="fill: #f16c23; stroke: #f16c23"/>
     <use xlink:href="#m7d463261f2" x="112.712903" y="17.786655" style="fill: #f16c23; stroke: #f16c23"/>
     <use xlink:href="#m7d463261f2" x="114.885484" y="18.314201" style="fill: #f16c23; stroke: #f16c23"/>
     <use xlink:href="#m7d463261f2" x="117.058065" y="19.272065" style="fill: #f16c23; stroke: #f16c23"/>
     <use xlink:href="#m7d463261f2" x="119.230645" y="25.488254" style="fill: #f16c23; stroke: #f16c23"/>
     <use xlink:href="#m7d463261f2" x="121.403226" y="26.918748" style="fill: #f16c23; stroke: #f16c23"/>
     <use xlink:href="#m7d463261f2" x="123.575806" y="44.180672" style="fill: #f16c23; stroke: #f16c23"/>
     <use xlink:href="#m7d463261f2" x="125.748387" y="48.576535" style="fill: #f16c23; stroke: #f16c23"/>
     <use xlink:href="#m7d463261f2" x="127.920968" y="76.626589" style="fill: #f16c23; stroke: #f16c23"/>
     <use xlink:href="#m7d463261f2" x="130.093548" y="88.055928" style="fill: #f16c23; stroke: #f16c23"/>
     <use xlink:href="#m7d463261f2" x="132.266129" y="100.756461" style="fill: #f16c23; stroke: #f16c23"/>
     <use xlink:href="#m7d463261f2" x="134.43871" y="113.303427" style="fill: #f16c23; stroke: #f16c23"/>
     <use xlink:href="#m7d463261f2" x="136.61129" y="115.342867" style="fill: #f16c23; stroke: #f16c23"/>
     <use xlink:href="#m7d463261f2" x="138.783871" y="121.086679" style="fill: #f16c23; stroke: #f16c23"/>
     <use xlink:href="#m7d463261f2" x="140.956452" y="122.249292" style="fill: #f16c23; stroke: #f16c23"/>
     <use xlink:href="#m7d463261f2" x="143.129032" y="125.670728" style="fill: #f16c23; stroke: #f16c23"/>
     <use xlink:href="#m7d463261f2" x="145.301613" y="126.438096" style="fill: #f16c23; stroke: #f16c23"/>
     <use xlink:href="#m7d463261f2" x="147.474194" y="128.586956" style="fill: #f16c23; stroke: #f16c23"/>
     <use xlink:href="#m7d463261f2" x="149.646774" y="129.621872" style="fill: #f16c23; stroke: #f16c23"/>
     <use xlink:href="#m7d463261f2" x="151.819355" y="131.247386" style="fill: #f16c23; stroke: #f16c23"/>
     <use xlink:href="#m7d463261f2" x="153.991935" y="132.299962" style="fill: #f16c23; stroke: #f16c23"/>
     <use xlink:href="#m7d463261f2" x="156.164516" y="133.259656" style="fill: #f16c23; stroke: #f16c23"/>
     <use xlink:href="#m7d463261f2" x="158.337097" y="134.46523" style="fill: #f16c23; stroke: #f16c23"/>
     <use xlink:href="#m7d463261f2" x="160.509677" y="135.036569" style="fill: #f16c23; stroke: #f16c23"/>
     <use xlink:href="#m7d463261f2" x="162.682258" y="136.209769" style="fill: #f16c23; stroke: #f16c23"/>
     <use xlink:href="#m7d463261f2" x="164.854839" y="136.360008" style="fill: #f16c23; stroke: #f16c23"/>
    </g>
   </g>
   <g id="patch_3">
    <path d="M 34.5 148.74 
L 34.5 10.8 
" style="fill: none; stroke: #000000; stroke-width: 0.75; stroke-linejoin: miter; stroke-linecap: square"/>
   </g>
   <g id="patch_4">
    <path d="M 34.5 148.74 
L 169.2 148.74 
" style="fill: none; stroke: #000000; stroke-width: 0.75; stroke-linejoin: miter; stroke-linecap: square"/>
   </g>
   <g id="legend_1">
    <g id="line2d_17">
     <path d="M 88.02125 20.92625 
L 96.02125 20.92625 
L 104.02125 20.92625 
" style="fill: none; stroke: #2b6a99; stroke-width: 1.5; stroke-linecap: square"/>
     <g>
      <use xlink:href="#m3366f67af3" x="96.02125" y="20.92625" style="fill: #2b6a99; stroke: #2b6a99"/>
     </g>
    </g>
    <g id="text_16">
     <!-- Environment 1 -->
     <g transform="translate(110.42125 23.72625) scale(0.08 -0.08)">
      <use xlink:href="#ArialMT-45"/>
      <use xlink:href="#ArialMT-6e" transform="translate(66.699219 0)"/>
      <use xlink:href="#ArialMT-76" transform="translate(122.314453 0)"/>
      <use xlink:href="#ArialMT-69" transform="translate(172.314453 0)"/>
      <use xlink:href="#ArialMT-72" transform="translate(194.53125 0)"/>
      <use xlink:href="#ArialMT-6f" transform="translate(227.832031 0)"/>
      <use xlink:href="#ArialMT-6e" transform="translate(283.447266 0)"/>
      <use xlink:href="#ArialMT-6d" transform="translate(339.0625 0)"/>
      <use xlink:href="#ArialMT-65" transform="translate(422.363281 0)"/>
      <use xlink:href="#ArialMT-6e" transform="translate(477.978516 0)"/>
      <use xlink:href="#ArialMT-74" transform="translate(533.59375 0)"/>
      <use xlink:href="#ArialMT-20" transform="translate(561.376953 0)"/>
      <use xlink:href="#ArialMT-31" transform="translate(589.160156 0)"/>
     </g>
    </g>
    <g id="line2d_18">
     <path d="M 88.02125 32.2425 
L 96.02125 32.2425 
L 104.02125 32.2425 
" style="fill: none; stroke: #1b7c3d; stroke-width: 1.5; stroke-linecap: square"/>
     <g>
      <use xlink:href="#ma13e7fe892" x="96.02125" y="32.2425" style="fill: #1b7c3d; stroke: #1b7c3d"/>
     </g>
    </g>
    <g id="text_17">
     <!-- Environment 2 -->
     <g transform="translate(110.42125 35.0425) scale(0.08 -0.08)">
      <use xlink:href="#ArialMT-45"/>
      <use xlink:href="#ArialMT-6e" transform="translate(66.699219 0)"/>
      <use xlink:href="#ArialMT-76" transform="translate(122.314453 0)"/>
      <use xlink:href="#ArialMT-69" transform="translate(172.314453 0)"/>
      <use xlink:href="#ArialMT-72" transform="translate(194.53125 0)"/>
      <use xlink:href="#ArialMT-6f" transform="translate(227.832031 0)"/>
      <use xlink:href="#ArialMT-6e" transform="translate(283.447266 0)"/>
      <use xlink:href="#ArialMT-6d" transform="translate(339.0625 0)"/>
      <use xlink:href="#ArialMT-65" transform="translate(422.363281 0)"/>
      <use xlink:href="#ArialMT-6e" transform="translate(477.978516 0)"/>
      <use xlink:href="#ArialMT-74" transform="translate(533.59375 0)"/>
      <use xlink:href="#ArialMT-20" transform="translate(561.376953 0)"/>
      <use xlink:href="#ArialMT-32" transform="translate(589.160156 0)"/>
     </g>
    </g>
    <g id="line2d_19">
     <path d="M 88.02125 43.55875 
L 96.02125 43.55875 
L 104.02125 43.55875 
" style="fill: none; stroke: #f16c23; stroke-width: 1.5; stroke-linecap: square"/>
     <g>
      <use xlink:href="#m7d463261f2" x="96.02125" y="43.55875" style="fill: #f16c23; stroke: #f16c23"/>
     </g>
    </g>
    <g id="text_18">
     <!-- Environment 3 -->
     <g transform="translate(110.42125 46.35875) scale(0.08 -0.08)">
      <use xlink:href="#ArialMT-45"/>
      <use xlink:href="#ArialMT-6e" transform="translate(66.699219 0)"/>
      <use xlink:href="#ArialMT-76" transform="translate(122.314453 0)"/>
      <use xlink:href="#ArialMT-69" transform="translate(172.314453 0)"/>
      <use xlink:href="#ArialMT-72" transform="translate(194.53125 0)"/>
      <use xlink:href="#ArialMT-6f" transform="translate(227.832031 0)"/>
      <use xlink:href="#ArialMT-6e" transform="translate(283.447266 0)"/>
      <use xlink:href="#ArialMT-6d" transform="translate(339.0625 0)"/>
      <use xlink:href="#ArialMT-65" transform="translate(422.363281 0)"/>
      <use xlink:href="#ArialMT-6e" transform="translate(477.978516 0)"/>
      <use xlink:href="#ArialMT-74" transform="translate(533.59375 0)"/>
      <use xlink:href="#ArialMT-20" transform="translate(561.376953 0)"/>
      <use xlink:href="#ArialMT-33" transform="translate(589.160156 0)"/>
     </g>
    </g>
   </g>
  </g>
 </g>
 <defs>
  <clipPath id="pdb8d037c3d">
   <rect x="34.5" y="10.8" width="134.7" height="137.94"/>
  </clipPath>
 </defs>
</svg>
