<?xml version="1.0" encoding="utf-8" standalone="no"?>
<!DOCTYPE svg PUBLIC "-//W3C//DTD SVG 1.1//EN"
  "http://www.w3.org/Graphics/SVG/1.1/DTD/svg11.dtd">
<svg xmlns:xlink="http://www.w3.org/1999/xlink" width="277.2pt" height="180pt" viewBox="0 0 277.2 180" xmlns="http://www.w3.org/2000/svg" version="1.1">
 <metadata>
  <rdf:RDF xmlns:dc="http://purl.org/dc/elements/1.1/" xmlns:cc="http://creativecommons.org/ns#" xmlns:rdf="http://www.w3.org/1999/02/22-rdf-syntax-ns#">
   <cc:Work>
    <dc:type rdf:resource="http://purl.org/dc/dcmitype/StillImage"/>
    <dc:date>2025-08-19T22:28:19.213325</dc:date>
    <dc:format>image/svg+xml</dc:format>
    <dc:creator>
     <cc:Agent>
      <dc:title>Matplotlib v3.10.0, https://matplotlib.org/</dc:title>
     </cc:Agent>
    </dc:creator>
   </cc:Work>
  </rdf:RDF>
 </metadata>
 <defs>
  <style type="text/css">*{stroke-linejoin: round; stroke-linecap: butt}</style>
 </defs>
 <g id="figure_1">
  <g id="patch_1">
   <path d="M 0 180 
L 277.2 180 
L 277.2 0 
L 0 0 
z
" style="fill: #ffffff"/>
  </g>
  <g id="axes_1">
   <g id="patch_2">
    <path d="M 34.65 160.2 
L 249.48 160.2 
L 249.48 21.6 
L 34.65 21.6 
z
" style="fill: #ffffff"/>
   </g>
   <g id="matplotlib.axis_1">
    <g id="xtick_1">
     <g id="line2d_1">
      <defs>
       <path id="mb0b8007799" d="M 0 0 
L 0 -2 
" style="stroke: #000000; stroke-width: 0.5"/>
      </defs>
      <g>
       <use xlink:href="#mb0b8007799" x="34.65" y="160.2" style="stroke: #000000; stroke-width: 0.5"/>
      </g>
     </g>
     <g id="text_1">
      <!-- 0 -->
      <g transform="translate(32.703672 168.710469) scale(0.07 -0.07)">
       <defs>
        <path id="ArialMT-30" d="M 266 2259 
Q 266 3072 433 3567 
Q 600 4063 929 4331 
Q 1259 4600 1759 4600 
Q 2128 4600 2406 4451 
Q 2684 4303 2865 4023 
Q 3047 3744 3150 3342 
Q 3253 2941 3253 2259 
Q 3253 1453 3087 958 
Q 2922 463 2592 192 
Q 2263 -78 1759 -78 
Q 1097 -78 719 397 
Q 266 969 266 2259 
z
M 844 2259 
Q 844 1131 1108 757 
Q 1372 384 1759 384 
Q 2147 384 2411 759 
Q 2675 1134 2675 2259 
Q 2675 3391 2411 3762 
Q 2147 4134 1753 4134 
Q 1366 4134 1134 3806 
Q 844 3388 844 2259 
z
" transform="scale(0.015625)"/>
       </defs>
       <use xlink:href="#ArialMT-30"/>
      </g>
     </g>
    </g>
    <g id="xtick_2">
     <g id="line2d_2">
      <g>
       <use xlink:href="#mb0b8007799" x="76.23" y="160.2" style="stroke: #000000; stroke-width: 0.5"/>
      </g>
     </g>
     <g id="text_2">
      <!-- 3 -->
      <g transform="translate(74.283672 168.710469) scale(0.07 -0.07)">
       <defs>
        <path id="ArialMT-33" d="M 269 1209 
L 831 1284 
Q 928 806 1161 595 
Q 1394 384 1728 384 
Q 2125 384 2398 659 
Q 2672 934 2672 1341 
Q 2672 1728 2419 1979 
Q 2166 2231 1775 2231 
Q 1616 2231 1378 2169 
L 1441 2663 
Q 1497 2656 1531 2656 
Q 1891 2656 2178 2843 
Q 2466 3031 2466 3422 
Q 2466 3731 2256 3934 
Q 2047 4138 1716 4138 
Q 1388 4138 1169 3931 
Q 950 3725 888 3313 
L 325 3413 
Q 428 3978 793 4289 
Q 1159 4600 1703 4600 
Q 2078 4600 2393 4439 
Q 2709 4278 2876 4000 
Q 3044 3722 3044 3409 
Q 3044 3113 2884 2869 
Q 2725 2625 2413 2481 
Q 2819 2388 3044 2092 
Q 3269 1797 3269 1353 
Q 3269 753 2831 336 
Q 2394 -81 1725 -81 
Q 1122 -81 723 278 
Q 325 638 269 1209 
z
" transform="scale(0.015625)"/>
       </defs>
       <use xlink:href="#ArialMT-33"/>
      </g>
     </g>
    </g>
    <g id="xtick_3">
     <g id="line2d_3">
      <g>
       <use xlink:href="#mb0b8007799" x="117.81" y="160.2" style="stroke: #000000; stroke-width: 0.5"/>
      </g>
     </g>
     <g id="text_3">
      <!-- 6 -->
      <g transform="translate(115.863672 168.710469) scale(0.07 -0.07)">
       <defs>
        <path id="ArialMT-36" d="M 3184 3459 
L 2625 3416 
Q 2550 3747 2413 3897 
Q 2184 4138 1850 4138 
Q 1581 4138 1378 3988 
Q 1113 3794 959 3422 
Q 806 3050 800 2363 
Q 1003 2672 1297 2822 
Q 1591 2972 1913 2972 
Q 2475 2972 2870 2558 
Q 3266 2144 3266 1488 
Q 3266 1056 3080 686 
Q 2894 316 2569 119 
Q 2244 -78 1831 -78 
Q 1128 -78 684 439 
Q 241 956 241 2144 
Q 241 3472 731 4075 
Q 1159 4600 1884 4600 
Q 2425 4600 2770 4297 
Q 3116 3994 3184 3459 
z
M 888 1484 
Q 888 1194 1011 928 
Q 1134 663 1356 523 
Q 1578 384 1822 384 
Q 2178 384 2434 671 
Q 2691 959 2691 1453 
Q 2691 1928 2437 2201 
Q 2184 2475 1800 2475 
Q 1419 2475 1153 2201 
Q 888 1928 888 1484 
z
" transform="scale(0.015625)"/>
       </defs>
       <use xlink:href="#ArialMT-36"/>
      </g>
     </g>
    </g>
    <g id="xtick_4">
     <g id="line2d_4">
      <g>
       <use xlink:href="#mb0b8007799" x="159.39" y="160.2" style="stroke: #000000; stroke-width: 0.5"/>
      </g>
     </g>
     <g id="text_4">
      <!-- 9 -->
      <g transform="translate(157.443672 168.710469) scale(0.07 -0.07)">
       <defs>
        <path id="ArialMT-39" d="M 350 1059 
L 891 1109 
Q 959 728 1153 556 
Q 1347 384 1650 384 
Q 1909 384 2104 503 
Q 2300 622 2425 820 
Q 2550 1019 2634 1356 
Q 2719 1694 2719 2044 
Q 2719 2081 2716 2156 
Q 2547 1888 2255 1720 
Q 1963 1553 1622 1553 
Q 1053 1553 659 1965 
Q 266 2378 266 3053 
Q 266 3750 677 4175 
Q 1088 4600 1706 4600 
Q 2153 4600 2523 4359 
Q 2894 4119 3086 3673 
Q 3278 3228 3278 2384 
Q 3278 1506 3087 986 
Q 2897 466 2520 194 
Q 2144 -78 1638 -78 
Q 1100 -78 759 220 
Q 419 519 350 1059 
z
M 2653 3081 
Q 2653 3566 2395 3850 
Q 2138 4134 1775 4134 
Q 1400 4134 1122 3828 
Q 844 3522 844 3034 
Q 844 2597 1108 2323 
Q 1372 2050 1759 2050 
Q 2150 2050 2401 2323 
Q 2653 2597 2653 3081 
z
" transform="scale(0.015625)"/>
       </defs>
       <use xlink:href="#ArialMT-39"/>
      </g>
     </g>
    </g>
    <g id="xtick_5">
     <g id="line2d_5">
      <g>
       <use xlink:href="#mb0b8007799" x="200.97" y="160.2" style="stroke: #000000; stroke-width: 0.5"/>
      </g>
     </g>
     <g id="text_5">
      <!-- 12 -->
      <g transform="translate(197.077344 168.710469) scale(0.07 -0.07)">
       <defs>
        <path id="ArialMT-31" d="M 2384 0 
L 1822 0 
L 1822 3584 
Q 1619 3391 1289 3197 
Q 959 3003 697 2906 
L 697 3450 
Q 1169 3672 1522 3987 
Q 1875 4303 2022 4600 
L 2384 4600 
L 2384 0 
z
" transform="scale(0.015625)"/>
        <path id="ArialMT-32" d="M 3222 541 
L 3222 0 
L 194 0 
Q 188 203 259 391 
Q 375 700 629 1000 
Q 884 1300 1366 1694 
Q 2113 2306 2375 2664 
Q 2638 3022 2638 3341 
Q 2638 3675 2398 3904 
Q 2159 4134 1775 4134 
Q 1369 4134 1125 3890 
Q 881 3647 878 3216 
L 300 3275 
Q 359 3922 746 4261 
Q 1134 4600 1788 4600 
Q 2447 4600 2831 4234 
Q 3216 3869 3216 3328 
Q 3216 3053 3103 2787 
Q 2991 2522 2730 2228 
Q 2469 1934 1863 1422 
Q 1356 997 1212 845 
Q 1069 694 975 541 
L 3222 541 
z
" transform="scale(0.015625)"/>
       </defs>
       <use xlink:href="#ArialMT-31"/>
       <use xlink:href="#ArialMT-32" transform="translate(55.615234 0)"/>
      </g>
     </g>
    </g>
    <g id="xtick_6">
     <g id="line2d_6">
      <g>
       <use xlink:href="#mb0b8007799" x="242.55" y="160.2" style="stroke: #000000; stroke-width: 0.5"/>
      </g>
     </g>
     <g id="text_6">
      <!-- 15 -->
      <g transform="translate(238.657344 168.710469) scale(0.07 -0.07)">
       <defs>
        <path id="ArialMT-35" d="M 266 1200 
L 856 1250 
Q 922 819 1161 601 
Q 1400 384 1738 384 
Q 2144 384 2425 690 
Q 2706 997 2706 1503 
Q 2706 1984 2436 2262 
Q 2166 2541 1728 2541 
Q 1456 2541 1237 2417 
Q 1019 2294 894 2097 
L 366 2166 
L 809 4519 
L 3088 4519 
L 3088 3981 
L 1259 3981 
L 1013 2750 
Q 1425 3038 1878 3038 
Q 2478 3038 2890 2622 
Q 3303 2206 3303 1553 
Q 3303 931 2941 478 
Q 2500 -78 1738 -78 
Q 1113 -78 717 272 
Q 322 622 266 1200 
z
" transform="scale(0.015625)"/>
       </defs>
       <use xlink:href="#ArialMT-31"/>
       <use xlink:href="#ArialMT-35" transform="translate(55.615234 0)"/>
      </g>
     </g>
    </g>
    <g id="text_7">
     <!-- Decision Time -->
     <g transform="translate(120.086094 179.112188) scale(0.07 -0.07)">
      <defs>
       <path id="ArialMT-44" d="M 494 0 
L 494 4581 
L 2072 4581 
Q 2606 4581 2888 4516 
Q 3281 4425 3559 4188 
Q 3922 3881 4101 3404 
Q 4281 2928 4281 2316 
Q 4281 1794 4159 1391 
Q 4038 988 3847 723 
Q 3656 459 3429 307 
Q 3203 156 2883 78 
Q 2563 0 2147 0 
L 494 0 
z
M 1100 541 
L 2078 541 
Q 2531 541 2789 625 
Q 3047 709 3200 863 
Q 3416 1078 3536 1442 
Q 3656 1806 3656 2325 
Q 3656 3044 3420 3430 
Q 3184 3816 2847 3947 
Q 2603 4041 2063 4041 
L 1100 4041 
L 1100 541 
z
" transform="scale(0.015625)"/>
       <path id="ArialMT-65" d="M 2694 1069 
L 3275 997 
Q 3138 488 2766 206 
Q 2394 -75 1816 -75 
Q 1088 -75 661 373 
Q 234 822 234 1631 
Q 234 2469 665 2931 
Q 1097 3394 1784 3394 
Q 2450 3394 2872 2941 
Q 3294 2488 3294 1666 
Q 3294 1616 3291 1516 
L 816 1516 
Q 847 969 1125 678 
Q 1403 388 1819 388 
Q 2128 388 2347 550 
Q 2566 713 2694 1069 
z
M 847 1978 
L 2700 1978 
Q 2663 2397 2488 2606 
Q 2219 2931 1791 2931 
Q 1403 2931 1139 2672 
Q 875 2413 847 1978 
z
" transform="scale(0.015625)"/>
       <path id="ArialMT-63" d="M 2588 1216 
L 3141 1144 
Q 3050 572 2676 248 
Q 2303 -75 1759 -75 
Q 1078 -75 664 370 
Q 250 816 250 1647 
Q 250 2184 428 2587 
Q 606 2991 970 3192 
Q 1334 3394 1763 3394 
Q 2303 3394 2647 3120 
Q 2991 2847 3088 2344 
L 2541 2259 
Q 2463 2594 2264 2762 
Q 2066 2931 1784 2931 
Q 1359 2931 1093 2626 
Q 828 2322 828 1663 
Q 828 994 1084 691 
Q 1341 388 1753 388 
Q 2084 388 2306 591 
Q 2528 794 2588 1216 
z
" transform="scale(0.015625)"/>
       <path id="ArialMT-69" d="M 425 3934 
L 425 4581 
L 988 4581 
L 988 3934 
L 425 3934 
z
M 425 0 
L 425 3319 
L 988 3319 
L 988 0 
L 425 0 
z
" transform="scale(0.015625)"/>
       <path id="ArialMT-73" d="M 197 991 
L 753 1078 
Q 800 744 1014 566 
Q 1228 388 1613 388 
Q 2000 388 2187 545 
Q 2375 703 2375 916 
Q 2375 1106 2209 1216 
Q 2094 1291 1634 1406 
Q 1016 1563 777 1677 
Q 538 1791 414 1992 
Q 291 2194 291 2438 
Q 291 2659 392 2848 
Q 494 3038 669 3163 
Q 800 3259 1026 3326 
Q 1253 3394 1513 3394 
Q 1903 3394 2198 3281 
Q 2494 3169 2634 2976 
Q 2775 2784 2828 2463 
L 2278 2388 
Q 2241 2644 2061 2787 
Q 1881 2931 1553 2931 
Q 1166 2931 1000 2803 
Q 834 2675 834 2503 
Q 834 2394 903 2306 
Q 972 2216 1119 2156 
Q 1203 2125 1616 2013 
Q 2213 1853 2448 1751 
Q 2684 1650 2818 1456 
Q 2953 1263 2953 975 
Q 2953 694 2789 445 
Q 2625 197 2315 61 
Q 2006 -75 1616 -75 
Q 969 -75 630 194 
Q 291 463 197 991 
z
" transform="scale(0.015625)"/>
       <path id="ArialMT-6f" d="M 213 1659 
Q 213 2581 725 3025 
Q 1153 3394 1769 3394 
Q 2453 3394 2887 2945 
Q 3322 2497 3322 1706 
Q 3322 1066 3130 698 
Q 2938 331 2570 128 
Q 2203 -75 1769 -75 
Q 1072 -75 642 372 
Q 213 819 213 1659 
z
M 791 1659 
Q 791 1022 1069 705 
Q 1347 388 1769 388 
Q 2188 388 2466 706 
Q 2744 1025 2744 1678 
Q 2744 2294 2464 2611 
Q 2184 2928 1769 2928 
Q 1347 2928 1069 2612 
Q 791 2297 791 1659 
z
" transform="scale(0.015625)"/>
       <path id="ArialMT-6e" d="M 422 0 
L 422 3319 
L 928 3319 
L 928 2847 
Q 1294 3394 1984 3394 
Q 2284 3394 2536 3286 
Q 2788 3178 2913 3003 
Q 3038 2828 3088 2588 
Q 3119 2431 3119 2041 
L 3119 0 
L 2556 0 
L 2556 2019 
Q 2556 2363 2490 2533 
Q 2425 2703 2258 2804 
Q 2091 2906 1866 2906 
Q 1506 2906 1245 2678 
Q 984 2450 984 1813 
L 984 0 
L 422 0 
z
" transform="scale(0.015625)"/>
       <path id="ArialMT-20" transform="scale(0.015625)"/>
       <path id="ArialMT-54" d="M 1659 0 
L 1659 4041 
L 150 4041 
L 150 4581 
L 3781 4581 
L 3781 4041 
L 2266 4041 
L 2266 0 
L 1659 0 
z
" transform="scale(0.015625)"/>
       <path id="ArialMT-6d" d="M 422 0 
L 422 3319 
L 925 3319 
L 925 2853 
Q 1081 3097 1340 3245 
Q 1600 3394 1931 3394 
Q 2300 3394 2536 3241 
Q 2772 3088 2869 2813 
Q 3263 3394 3894 3394 
Q 4388 3394 4653 3120 
Q 4919 2847 4919 2278 
L 4919 0 
L 4359 0 
L 4359 2091 
Q 4359 2428 4304 2576 
Q 4250 2725 4106 2815 
Q 3963 2906 3769 2906 
Q 3419 2906 3187 2673 
Q 2956 2441 2956 1928 
L 2956 0 
L 2394 0 
L 2394 2156 
Q 2394 2531 2256 2718 
Q 2119 2906 1806 2906 
Q 1569 2906 1367 2781 
Q 1166 2656 1075 2415 
Q 984 2175 984 1722 
L 984 0 
L 422 0 
z
" transform="scale(0.015625)"/>
      </defs>
      <use xlink:href="#ArialMT-44"/>
      <use xlink:href="#ArialMT-65" transform="translate(72.216797 0)"/>
      <use xlink:href="#ArialMT-63" transform="translate(127.832031 0)"/>
      <use xlink:href="#ArialMT-69" transform="translate(177.832031 0)"/>
      <use xlink:href="#ArialMT-73" transform="translate(200.048828 0)"/>
      <use xlink:href="#ArialMT-69" transform="translate(250.048828 0)"/>
      <use xlink:href="#ArialMT-6f" transform="translate(272.265625 0)"/>
      <use xlink:href="#ArialMT-6e" transform="translate(327.880859 0)"/>
      <use xlink:href="#ArialMT-20" transform="translate(383.496094 0)"/>
      <use xlink:href="#ArialMT-54" transform="translate(409.529297 0)"/>
      <use xlink:href="#ArialMT-69" transform="translate(466.863281 0)"/>
      <use xlink:href="#ArialMT-6d" transform="translate(489.080078 0)"/>
      <use xlink:href="#ArialMT-65" transform="translate(572.380859 0)"/>
     </g>
    </g>
   </g>
   <g id="matplotlib.axis_2">
    <g id="ytick_1">
     <g id="line2d_7">
      <defs>
       <path id="m203de9fe3f" d="M 0 0 
L 2 0 
" style="stroke: #000000; stroke-width: 0.5"/>
      </defs>
      <g>
       <use xlink:href="#m203de9fe3f" x="34.65" y="160.2" style="stroke: #000000; stroke-width: 0.5"/>
      </g>
     </g>
     <g id="text_8">
      <!-- −3 -->
      <g transform="translate(23.168906 162.705234) scale(0.07 -0.07)">
       <defs>
        <path id="ArialMT-2212" d="M 3381 1997 
L 356 1997 
L 356 2522 
L 3381 2522 
L 3381 1997 
z
" transform="scale(0.015625)"/>
       </defs>
       <use xlink:href="#ArialMT-2212"/>
       <use xlink:href="#ArialMT-33" transform="translate(58.398438 0)"/>
      </g>
     </g>
    </g>
    <g id="ytick_2">
     <g id="line2d_8">
      <g>
       <use xlink:href="#m203de9fe3f" x="34.65" y="137.1" style="stroke: #000000; stroke-width: 0.5"/>
      </g>
     </g>
     <g id="text_9">
      <!-- −2 -->
      <g transform="translate(23.168906 139.605234) scale(0.07 -0.07)">
       <use xlink:href="#ArialMT-2212"/>
       <use xlink:href="#ArialMT-32" transform="translate(58.398438 0)"/>
      </g>
     </g>
    </g>
    <g id="ytick_3">
     <g id="line2d_9">
      <g>
       <use xlink:href="#m203de9fe3f" x="34.65" y="114" style="stroke: #000000; stroke-width: 0.5"/>
      </g>
     </g>
     <g id="text_10">
      <!-- −1 -->
      <g transform="translate(23.168906 116.505234) scale(0.07 -0.07)">
       <use xlink:href="#ArialMT-2212"/>
       <use xlink:href="#ArialMT-31" transform="translate(58.398438 0)"/>
      </g>
     </g>
    </g>
    <g id="ytick_4">
     <g id="line2d_10">
      <g>
       <use xlink:href="#m203de9fe3f" x="34.65" y="90.9" style="stroke: #000000; stroke-width: 0.5"/>
      </g>
     </g>
     <g id="text_11">
      <!-- 0 -->
      <g transform="translate(27.257344 93.405234) scale(0.07 -0.07)">
       <use xlink:href="#ArialMT-30"/>
      </g>
     </g>
    </g>
    <g id="ytick_5">
     <g id="line2d_11">
      <g>
       <use xlink:href="#m203de9fe3f" x="34.65" y="67.8" style="stroke: #000000; stroke-width: 0.5"/>
      </g>
     </g>
     <g id="text_12">
      <!-- 1 -->
      <g transform="translate(27.257344 70.305234) scale(0.07 -0.07)">
       <use xlink:href="#ArialMT-31"/>
      </g>
     </g>
    </g>
    <g id="ytick_6">
     <g id="line2d_12">
      <g>
       <use xlink:href="#m203de9fe3f" x="34.65" y="44.7" style="stroke: #000000; stroke-width: 0.5"/>
      </g>
     </g>
     <g id="text_13">
      <!-- 2 -->
      <g transform="translate(27.257344 47.205234) scale(0.07 -0.07)">
       <use xlink:href="#ArialMT-32"/>
      </g>
     </g>
    </g>
    <g id="ytick_7">
     <g id="line2d_13">
      <g>
       <use xlink:href="#m203de9fe3f" x="34.65" y="21.6" style="stroke: #000000; stroke-width: 0.5"/>
      </g>
     </g>
     <g id="text_14">
      <!-- 3 -->
      <g transform="translate(27.257344 24.105234) scale(0.07 -0.07)">
       <use xlink:href="#ArialMT-33"/>
      </g>
     </g>
    </g>
    <g id="text_15">
     <!-- Cumulative Evidence -->
     <g transform="translate(17.777656 123.775937) rotate(-90) scale(0.07 -0.07)">
      <defs>
       <path id="ArialMT-43" d="M 3763 1606 
L 4369 1453 
Q 4178 706 3683 314 
Q 3188 -78 2472 -78 
Q 1731 -78 1267 223 
Q 803 525 561 1097 
Q 319 1669 319 2325 
Q 319 3041 592 3573 
Q 866 4106 1370 4382 
Q 1875 4659 2481 4659 
Q 3169 4659 3637 4309 
Q 4106 3959 4291 3325 
L 3694 3184 
Q 3534 3684 3231 3912 
Q 2928 4141 2469 4141 
Q 1941 4141 1586 3887 
Q 1231 3634 1087 3207 
Q 944 2781 944 2328 
Q 944 1744 1114 1308 
Q 1284 872 1643 656 
Q 2003 441 2422 441 
Q 2931 441 3284 734 
Q 3638 1028 3763 1606 
z
" transform="scale(0.015625)"/>
       <path id="ArialMT-75" d="M 2597 0 
L 2597 488 
Q 2209 -75 1544 -75 
Q 1250 -75 995 37 
Q 741 150 617 320 
Q 494 491 444 738 
Q 409 903 409 1263 
L 409 3319 
L 972 3319 
L 972 1478 
Q 972 1038 1006 884 
Q 1059 663 1231 536 
Q 1403 409 1656 409 
Q 1909 409 2131 539 
Q 2353 669 2445 892 
Q 2538 1116 2538 1541 
L 2538 3319 
L 3100 3319 
L 3100 0 
L 2597 0 
z
" transform="scale(0.015625)"/>
       <path id="ArialMT-6c" d="M 409 0 
L 409 4581 
L 972 4581 
L 972 0 
L 409 0 
z
" transform="scale(0.015625)"/>
       <path id="ArialMT-61" d="M 2588 409 
Q 2275 144 1986 34 
Q 1697 -75 1366 -75 
Q 819 -75 525 192 
Q 231 459 231 875 
Q 231 1119 342 1320 
Q 453 1522 633 1644 
Q 813 1766 1038 1828 
Q 1203 1872 1538 1913 
Q 2219 1994 2541 2106 
Q 2544 2222 2544 2253 
Q 2544 2597 2384 2738 
Q 2169 2928 1744 2928 
Q 1347 2928 1158 2789 
Q 969 2650 878 2297 
L 328 2372 
Q 403 2725 575 2942 
Q 747 3159 1072 3276 
Q 1397 3394 1825 3394 
Q 2250 3394 2515 3294 
Q 2781 3194 2906 3042 
Q 3031 2891 3081 2659 
Q 3109 2516 3109 2141 
L 3109 1391 
Q 3109 606 3145 398 
Q 3181 191 3288 0 
L 2700 0 
Q 2613 175 2588 409 
z
M 2541 1666 
Q 2234 1541 1622 1453 
Q 1275 1403 1131 1340 
Q 988 1278 909 1158 
Q 831 1038 831 891 
Q 831 666 1001 516 
Q 1172 366 1500 366 
Q 1825 366 2078 508 
Q 2331 650 2450 897 
Q 2541 1088 2541 1459 
L 2541 1666 
z
" transform="scale(0.015625)"/>
       <path id="ArialMT-74" d="M 1650 503 
L 1731 6 
Q 1494 -44 1306 -44 
Q 1000 -44 831 53 
Q 663 150 594 308 
Q 525 466 525 972 
L 525 2881 
L 113 2881 
L 113 3319 
L 525 3319 
L 525 4141 
L 1084 4478 
L 1084 3319 
L 1650 3319 
L 1650 2881 
L 1084 2881 
L 1084 941 
Q 1084 700 1114 631 
Q 1144 563 1211 522 
Q 1278 481 1403 481 
Q 1497 481 1650 503 
z
" transform="scale(0.015625)"/>
       <path id="ArialMT-76" d="M 1344 0 
L 81 3319 
L 675 3319 
L 1388 1331 
Q 1503 1009 1600 663 
Q 1675 925 1809 1294 
L 2547 3319 
L 3125 3319 
L 1869 0 
L 1344 0 
z
" transform="scale(0.015625)"/>
       <path id="ArialMT-45" d="M 506 0 
L 506 4581 
L 3819 4581 
L 3819 4041 
L 1113 4041 
L 1113 2638 
L 3647 2638 
L 3647 2100 
L 1113 2100 
L 1113 541 
L 3925 541 
L 3925 0 
L 506 0 
z
" transform="scale(0.015625)"/>
       <path id="ArialMT-64" d="M 2575 0 
L 2575 419 
Q 2259 -75 1647 -75 
Q 1250 -75 917 144 
Q 584 363 401 755 
Q 219 1147 219 1656 
Q 219 2153 384 2558 
Q 550 2963 881 3178 
Q 1213 3394 1622 3394 
Q 1922 3394 2156 3267 
Q 2391 3141 2538 2938 
L 2538 4581 
L 3097 4581 
L 3097 0 
L 2575 0 
z
M 797 1656 
Q 797 1019 1065 703 
Q 1334 388 1700 388 
Q 2069 388 2326 689 
Q 2584 991 2584 1609 
Q 2584 2291 2321 2609 
Q 2059 2928 1675 2928 
Q 1300 2928 1048 2622 
Q 797 2316 797 1656 
z
" transform="scale(0.015625)"/>
      </defs>
      <use xlink:href="#ArialMT-43"/>
      <use xlink:href="#ArialMT-75" transform="translate(72.216797 0)"/>
      <use xlink:href="#ArialMT-6d" transform="translate(127.832031 0)"/>
      <use xlink:href="#ArialMT-75" transform="translate(211.132812 0)"/>
      <use xlink:href="#ArialMT-6c" transform="translate(266.748047 0)"/>
      <use xlink:href="#ArialMT-61" transform="translate(288.964844 0)"/>
      <use xlink:href="#ArialMT-74" transform="translate(344.580078 0)"/>
      <use xlink:href="#ArialMT-69" transform="translate(372.363281 0)"/>
      <use xlink:href="#ArialMT-76" transform="translate(394.580078 0)"/>
      <use xlink:href="#ArialMT-65" transform="translate(444.580078 0)"/>
      <use xlink:href="#ArialMT-20" transform="translate(500.195312 0)"/>
      <use xlink:href="#ArialMT-45" transform="translate(527.978516 0)"/>
      <use xlink:href="#ArialMT-76" transform="translate(594.677734 0)"/>
      <use xlink:href="#ArialMT-69" transform="translate(644.677734 0)"/>
      <use xlink:href="#ArialMT-64" transform="translate(666.894531 0)"/>
      <use xlink:href="#ArialMT-65" transform="translate(722.509766 0)"/>
      <use xlink:href="#ArialMT-6e" transform="translate(778.125 0)"/>
      <use xlink:href="#ArialMT-63" transform="translate(833.740234 0)"/>
      <use xlink:href="#ArialMT-65" transform="translate(883.740234 0)"/>
     </g>
    </g>
   </g>
   <g id="LineCollection_1">
    <path d="M 48.51 111.24365 
L 48.51 105.165349 
" clip-path="url(#p9576d29791)" style="fill: none; stroke: #0000ff; stroke-width: 2"/>
    <path d="M 62.37 118.572861 
L 62.37 107.756251 
" clip-path="url(#p9576d29791)" style="fill: none; stroke: #0000ff; stroke-width: 2"/>
    <path d="M 76.23 119.468994 
L 76.23 106.618727 
" clip-path="url(#p9576d29791)" style="fill: none; stroke: #0000ff; stroke-width: 2"/>
    <path d="M 90.09 118.5992 
L 90.09 107.20499 
" clip-path="url(#p9576d29791)" style="fill: none; stroke: #0000ff; stroke-width: 2"/>
    <path d="M 103.95 118.461878 
L 103.95 106.448624 
" clip-path="url(#p9576d29791)" style="fill: none; stroke: #0000ff; stroke-width: 2"/>
    <path d="M 117.81 119.132639 
L 117.81 106.787618 
" clip-path="url(#p9576d29791)" style="fill: none; stroke: #0000ff; stroke-width: 2"/>
    <path d="M 131.67 117.556408 
L 131.67 106.073322 
" clip-path="url(#p9576d29791)" style="fill: none; stroke: #0000ff; stroke-width: 2"/>
    <path d="M 145.53 117.31914 
L 145.53 107.221783 
" clip-path="url(#p9576d29791)" style="fill: none; stroke: #0000ff; stroke-width: 2"/>
    <path d="M 159.39 117.469089 
L 159.39 106.269746 
" clip-path="url(#p9576d29791)" style="fill: none; stroke: #0000ff; stroke-width: 2"/>
    <path d="M 173.25 118.706417 
L 173.25 106.521583 
" clip-path="url(#p9576d29791)" style="fill: none; stroke: #0000ff; stroke-width: 2"/>
    <path d="M 187.11 116.810017 
L 187.11 104.781596 
" clip-path="url(#p9576d29791)" style="fill: none; stroke: #0000ff; stroke-width: 2"/>
    <path d="M 200.97 115.330803 
L 200.97 106.789197 
" clip-path="url(#p9576d29791)" style="fill: none; stroke: #0000ff; stroke-width: 2"/>
   </g>
   <g id="line2d_14">
    <defs>
     <path id="m0415c24d63" d="M 5 0 
L -5 -0 
" style="stroke: #0000ff"/>
    </defs>
    <g clip-path="url(#p9576d29791)">
     <use xlink:href="#m0415c24d63" x="48.51" y="111.24365" style="fill: #0000ff; stroke: #0000ff"/>
     <use xlink:href="#m0415c24d63" x="62.37" y="118.572861" style="fill: #0000ff; stroke: #0000ff"/>
     <use xlink:href="#m0415c24d63" x="76.23" y="119.468994" style="fill: #0000ff; stroke: #0000ff"/>
     <use xlink:href="#m0415c24d63" x="90.09" y="118.5992" style="fill: #0000ff; stroke: #0000ff"/>
     <use xlink:href="#m0415c24d63" x="103.95" y="118.461878" style="fill: #0000ff; stroke: #0000ff"/>
     <use xlink:href="#m0415c24d63" x="117.81" y="119.132639" style="fill: #0000ff; stroke: #0000ff"/>
     <use xlink:href="#m0415c24d63" x="131.67" y="117.556408" style="fill: #0000ff; stroke: #0000ff"/>
     <use xlink:href="#m0415c24d63" x="145.53" y="117.31914" style="fill: #0000ff; stroke: #0000ff"/>
     <use xlink:href="#m0415c24d63" x="159.39" y="117.469089" style="fill: #0000ff; stroke: #0000ff"/>
     <use xlink:href="#m0415c24d63" x="173.25" y="118.706417" style="fill: #0000ff; stroke: #0000ff"/>
     <use xlink:href="#m0415c24d63" x="187.11" y="116.810017" style="fill: #0000ff; stroke: #0000ff"/>
     <use xlink:href="#m0415c24d63" x="200.97" y="115.330803" style="fill: #0000ff; stroke: #0000ff"/>
    </g>
   </g>
   <g id="line2d_15">
    <g clip-path="url(#p9576d29791)">
     <use xlink:href="#m0415c24d63" x="48.51" y="105.165349" style="fill: #0000ff; stroke: #0000ff"/>
     <use xlink:href="#m0415c24d63" x="62.37" y="107.756251" style="fill: #0000ff; stroke: #0000ff"/>
     <use xlink:href="#m0415c24d63" x="76.23" y="106.618727" style="fill: #0000ff; stroke: #0000ff"/>
     <use xlink:href="#m0415c24d63" x="90.09" y="107.20499" style="fill: #0000ff; stroke: #0000ff"/>
     <use xlink:href="#m0415c24d63" x="103.95" y="106.448624" style="fill: #0000ff; stroke: #0000ff"/>
     <use xlink:href="#m0415c24d63" x="117.81" y="106.787618" style="fill: #0000ff; stroke: #0000ff"/>
     <use xlink:href="#m0415c24d63" x="131.67" y="106.073322" style="fill: #0000ff; stroke: #0000ff"/>
     <use xlink:href="#m0415c24d63" x="145.53" y="107.221783" style="fill: #0000ff; stroke: #0000ff"/>
     <use xlink:href="#m0415c24d63" x="159.39" y="106.269746" style="fill: #0000ff; stroke: #0000ff"/>
     <use xlink:href="#m0415c24d63" x="173.25" y="106.521583" style="fill: #0000ff; stroke: #0000ff"/>
     <use xlink:href="#m0415c24d63" x="187.11" y="104.781596" style="fill: #0000ff; stroke: #0000ff"/>
     <use xlink:href="#m0415c24d63" x="200.97" y="106.789197" style="fill: #0000ff; stroke: #0000ff"/>
    </g>
   </g>
   <g id="LineCollection_2">
    <path d="M 48.51 76.500174 
L 48.51 70.533285 
" clip-path="url(#p9576d29791)" style="fill: none; stroke: #ff0000; stroke-width: 2"/>
    <path d="M 62.37 74.075904 
L 62.37 63.132289 
" clip-path="url(#p9576d29791)" style="fill: none; stroke: #ff0000; stroke-width: 2"/>
    <path d="M 76.23 74.675587 
L 76.23 62.044197 
" clip-path="url(#p9576d29791)" style="fill: none; stroke: #ff0000; stroke-width: 2"/>
    <path d="M 90.09 73.963385 
L 90.09 62.565961 
" clip-path="url(#p9576d29791)" style="fill: none; stroke: #ff0000; stroke-width: 2"/>
    <path d="M 103.95 73.897015 
L 103.95 61.594798 
" clip-path="url(#p9576d29791)" style="fill: none; stroke: #ff0000; stroke-width: 2"/>
    <path d="M 117.81 73.652457 
L 117.81 61.851149 
" clip-path="url(#p9576d29791)" style="fill: none; stroke: #ff0000; stroke-width: 2"/>
    <path d="M 131.67 73.863119 
L 131.67 61.930534 
" clip-path="url(#p9576d29791)" style="fill: none; stroke: #ff0000; stroke-width: 2"/>
    <path d="M 145.53 72.886973 
L 145.53 60.665243 
" clip-path="url(#p9576d29791)" style="fill: none; stroke: #ff0000; stroke-width: 2"/>
    <path d="M 159.39 73.821483 
L 159.39 59.892802 
" clip-path="url(#p9576d29791)" style="fill: none; stroke: #ff0000; stroke-width: 2"/>
    <path d="M 173.25 72.277856 
L 173.25 59.857144 
" clip-path="url(#p9576d29791)" style="fill: none; stroke: #ff0000; stroke-width: 2"/>
    <path d="M 187.11 72.900558 
L 187.11 60.543442 
" clip-path="url(#p9576d29791)" style="fill: none; stroke: #ff0000; stroke-width: 2"/>
    <path d="M 200.97 74.338444 
L 200.97 59.875556 
" clip-path="url(#p9576d29791)" style="fill: none; stroke: #ff0000; stroke-width: 2"/>
   </g>
   <g id="line2d_16">
    <defs>
     <path id="mc00b04788e" d="M 5 0 
L -5 -0 
" style="stroke: #ff0000"/>
    </defs>
    <g clip-path="url(#p9576d29791)">
     <use xlink:href="#mc00b04788e" x="48.51" y="76.500174" style="fill: #ff0000; stroke: #ff0000"/>
     <use xlink:href="#mc00b04788e" x="62.37" y="74.075904" style="fill: #ff0000; stroke: #ff0000"/>
     <use xlink:href="#mc00b04788e" x="76.23" y="74.675587" style="fill: #ff0000; stroke: #ff0000"/>
     <use xlink:href="#mc00b04788e" x="90.09" y="73.963385" style="fill: #ff0000; stroke: #ff0000"/>
     <use xlink:href="#mc00b04788e" x="103.95" y="73.897015" style="fill: #ff0000; stroke: #ff0000"/>
     <use xlink:href="#mc00b04788e" x="117.81" y="73.652457" style="fill: #ff0000; stroke: #ff0000"/>
     <use xlink:href="#mc00b04788e" x="131.67" y="73.863119" style="fill: #ff0000; stroke: #ff0000"/>
     <use xlink:href="#mc00b04788e" x="145.53" y="72.886973" style="fill: #ff0000; stroke: #ff0000"/>
     <use xlink:href="#mc00b04788e" x="159.39" y="73.821483" style="fill: #ff0000; stroke: #ff0000"/>
     <use xlink:href="#mc00b04788e" x="173.25" y="72.277856" style="fill: #ff0000; stroke: #ff0000"/>
     <use xlink:href="#mc00b04788e" x="187.11" y="72.900558" style="fill: #ff0000; stroke: #ff0000"/>
     <use xlink:href="#mc00b04788e" x="200.97" y="74.338444" style="fill: #ff0000; stroke: #ff0000"/>
    </g>
   </g>
   <g id="line2d_17">
    <g clip-path="url(#p9576d29791)">
     <use xlink:href="#mc00b04788e" x="48.51" y="70.533285" style="fill: #ff0000; stroke: #ff0000"/>
     <use xlink:href="#mc00b04788e" x="62.37" y="63.132289" style="fill: #ff0000; stroke: #ff0000"/>
     <use xlink:href="#mc00b04788e" x="76.23" y="62.044197" style="fill: #ff0000; stroke: #ff0000"/>
     <use xlink:href="#mc00b04788e" x="90.09" y="62.565961" style="fill: #ff0000; stroke: #ff0000"/>
     <use xlink:href="#mc00b04788e" x="103.95" y="61.594798" style="fill: #ff0000; stroke: #ff0000"/>
     <use xlink:href="#mc00b04788e" x="117.81" y="61.851149" style="fill: #ff0000; stroke: #ff0000"/>
     <use xlink:href="#mc00b04788e" x="131.67" y="61.930534" style="fill: #ff0000; stroke: #ff0000"/>
     <use xlink:href="#mc00b04788e" x="145.53" y="60.665243" style="fill: #ff0000; stroke: #ff0000"/>
     <use xlink:href="#mc00b04788e" x="159.39" y="59.892802" style="fill: #ff0000; stroke: #ff0000"/>
     <use xlink:href="#mc00b04788e" x="173.25" y="59.857144" style="fill: #ff0000; stroke: #ff0000"/>
     <use xlink:href="#mc00b04788e" x="187.11" y="60.543442" style="fill: #ff0000; stroke: #ff0000"/>
     <use xlink:href="#mc00b04788e" x="200.97" y="59.875556" style="fill: #ff0000; stroke: #ff0000"/>
    </g>
   </g>
   <g id="LineCollection_3">
    <path d="M 34.65 90.9 
L 173.25 90.9 
" clip-path="url(#p9576d29791)" style="fill: none; stroke-dasharray: 1.85,0.8; stroke-dashoffset: 0; stroke: #000000; stroke-width: 0.5"/>
   </g>
   <g id="LineCollection_4">
    <path d="M 173.25 160.2 
L 173.25 21.6 
" clip-path="url(#p9576d29791)" style="fill: none; stroke-dasharray: 1.85,0.8; stroke-dashoffset: 0; stroke: #000000; stroke-width: 0.5"/>
   </g>
   <g id="line2d_18">
    <path d="M 48.51 108.2045 
L 62.37 113.164556 
L 76.23 113.043861 
L 90.09 112.902095 
L 103.95 112.455251 
L 117.81 112.960129 
L 131.67 111.814865 
L 145.53 112.270462 
L 159.39 111.869417 
L 173.25 112.614 
L 187.11 110.795806 
L 200.97 111.06 
" clip-path="url(#p9576d29791)" style="fill: none; stroke: #0000ff; stroke-width: 2; stroke-linecap: square"/>
    <defs>
     <path id="m7e1a392602" d="M 0 2.5 
C 0.663008 2.5 1.29895 2.236584 1.767767 1.767767 
C 2.236584 1.29895 2.5 0.663008 2.5 0 
C 2.5 -0.663008 2.236584 -1.29895 1.767767 -1.767767 
C 1.29895 -2.236584 0.663008 -2.5 0 -2.5 
C -0.663008 -2.5 -1.29895 -2.236584 -1.767767 -1.767767 
C -2.236584 -1.29895 -2.5 -0.663008 -2.5 0 
C -2.5 0.663008 -2.236584 1.29895 -1.767767 1.767767 
C -1.29895 2.236584 -0.663008 2.5 0 2.5 
z
" style="stroke: #0000ff"/>
    </defs>
    <g clip-path="url(#p9576d29791)">
     <use xlink:href="#m7e1a392602" x="48.51" y="108.2045" style="fill: #0000ff; stroke: #0000ff"/>
     <use xlink:href="#m7e1a392602" x="62.37" y="113.164556" style="fill: #0000ff; stroke: #0000ff"/>
     <use xlink:href="#m7e1a392602" x="76.23" y="113.043861" style="fill: #0000ff; stroke: #0000ff"/>
     <use xlink:href="#m7e1a392602" x="90.09" y="112.902095" style="fill: #0000ff; stroke: #0000ff"/>
     <use xlink:href="#m7e1a392602" x="103.95" y="112.455251" style="fill: #0000ff; stroke: #0000ff"/>
     <use xlink:href="#m7e1a392602" x="117.81" y="112.960129" style="fill: #0000ff; stroke: #0000ff"/>
     <use xlink:href="#m7e1a392602" x="131.67" y="111.814865" style="fill: #0000ff; stroke: #0000ff"/>
     <use xlink:href="#m7e1a392602" x="145.53" y="112.270462" style="fill: #0000ff; stroke: #0000ff"/>
     <use xlink:href="#m7e1a392602" x="159.39" y="111.869417" style="fill: #0000ff; stroke: #0000ff"/>
     <use xlink:href="#m7e1a392602" x="173.25" y="112.614" style="fill: #0000ff; stroke: #0000ff"/>
     <use xlink:href="#m7e1a392602" x="187.11" y="110.795806" style="fill: #0000ff; stroke: #0000ff"/>
     <use xlink:href="#m7e1a392602" x="200.97" y="111.06" style="fill: #0000ff; stroke: #0000ff"/>
    </g>
   </g>
   <g id="line2d_19">
    <path d="M 48.51 73.516729 
L 62.37 68.604097 
L 76.23 68.359892 
L 90.09 68.264673 
L 103.95 67.745906 
L 117.81 67.751803 
L 131.67 67.896826 
L 145.53 66.776108 
L 159.39 66.857143 
L 173.25 66.0675 
L 187.11 66.722 
L 200.97 67.107 
" clip-path="url(#p9576d29791)" style="fill: none; stroke: #ff0000; stroke-width: 2; stroke-linecap: square"/>
    <defs>
     <path id="m74cbb5f74b" d="M -2.5 2.5 
L 2.5 2.5 
L 2.5 -2.5 
L -2.5 -2.5 
z
" style="stroke: #ff0000; stroke-linejoin: miter"/>
    </defs>
    <g clip-path="url(#p9576d29791)">
     <use xlink:href="#m74cbb5f74b" x="48.51" y="73.516729" style="fill: #ff0000; stroke: #ff0000; stroke-linejoin: miter"/>
     <use xlink:href="#m74cbb5f74b" x="62.37" y="68.604097" style="fill: #ff0000; stroke: #ff0000; stroke-linejoin: miter"/>
     <use xlink:href="#m74cbb5f74b" x="76.23" y="68.359892" style="fill: #ff0000; stroke: #ff0000; stroke-linejoin: miter"/>
     <use xlink:href="#m74cbb5f74b" x="90.09" y="68.264673" style="fill: #ff0000; stroke: #ff0000; stroke-linejoin: miter"/>
     <use xlink:href="#m74cbb5f74b" x="103.95" y="67.745906" style="fill: #ff0000; stroke: #ff0000; stroke-linejoin: miter"/>
     <use xlink:href="#m74cbb5f74b" x="117.81" y="67.751803" style="fill: #ff0000; stroke: #ff0000; stroke-linejoin: miter"/>
     <use xlink:href="#m74cbb5f74b" x="131.67" y="67.896826" style="fill: #ff0000; stroke: #ff0000; stroke-linejoin: miter"/>
     <use xlink:href="#m74cbb5f74b" x="145.53" y="66.776108" style="fill: #ff0000; stroke: #ff0000; stroke-linejoin: miter"/>
     <use xlink:href="#m74cbb5f74b" x="159.39" y="66.857143" style="fill: #ff0000; stroke: #ff0000; stroke-linejoin: miter"/>
     <use xlink:href="#m74cbb5f74b" x="173.25" y="66.0675" style="fill: #ff0000; stroke: #ff0000; stroke-linejoin: miter"/>
     <use xlink:href="#m74cbb5f74b" x="187.11" y="66.722" style="fill: #ff0000; stroke: #ff0000; stroke-linejoin: miter"/>
     <use xlink:href="#m74cbb5f74b" x="200.97" y="67.107" style="fill: #ff0000; stroke: #ff0000; stroke-linejoin: miter"/>
    </g>
   </g>
   <g id="patch_3">
    <path d="M 34.65 160.2 
L 34.65 21.6 
" style="fill: none; stroke: #000000; stroke-width: 0.75; stroke-linejoin: miter; stroke-linecap: square"/>
   </g>
   <g id="patch_4">
    <path d="M 34.65 160.2 
L 249.48 160.2 
" style="fill: none; stroke: #000000; stroke-width: 0.75; stroke-linejoin: miter; stroke-linecap: square"/>
   </g>
   <g id="legend_1">
    <g id="patch_5">
     <path d="M 191.440156 47.003437 
L 244.58 47.003437 
Q 245.98 47.003437 245.98 45.603437 
L 245.98 26.5 
Q 245.98 25.1 244.58 25.1 
L 191.440156 25.1 
Q 190.040156 25.1 190.040156 26.5 
L 190.040156 45.603437 
Q 190.040156 47.003437 191.440156 47.003437 
z
" style="fill: #ffffff; opacity: 0.8; stroke: #cccccc; stroke-linejoin: miter"/>
    </g>
    <g id="LineCollection_5">
     <path d="M 199.840156 33.960469 
L 199.840156 26.960469 
" style="fill: none; stroke: #0000ff; stroke-width: 2"/>
    </g>
    <g id="line2d_20">
     <g>
      <use xlink:href="#m0415c24d63" x="199.840156" y="33.960469" style="fill: #0000ff; stroke: #0000ff"/>
     </g>
    </g>
    <g id="line2d_21">
     <g>
      <use xlink:href="#m0415c24d63" x="199.840156" y="26.960469" style="fill: #0000ff; stroke: #0000ff"/>
     </g>
    </g>
    <g id="line2d_22">
     <path d="M 192.840156 30.460469 
L 206.840156 30.460469 
" style="fill: none; stroke: #0000ff; stroke-width: 2; stroke-linecap: square"/>
    </g>
    <g id="line2d_23">
     <g>
      <use xlink:href="#m7e1a392602" x="199.840156" y="30.460469" style="fill: #0000ff; stroke: #0000ff"/>
     </g>
    </g>
    <g id="text_16">
     <!-- Choose A -->
     <g transform="translate(212.440156 32.910469) scale(0.07 -0.07)">
      <defs>
       <path id="ArialMT-68" d="M 422 0 
L 422 4581 
L 984 4581 
L 984 2938 
Q 1378 3394 1978 3394 
Q 2347 3394 2619 3248 
Q 2891 3103 3008 2847 
Q 3125 2591 3125 2103 
L 3125 0 
L 2563 0 
L 2563 2103 
Q 2563 2525 2380 2717 
Q 2197 2909 1863 2909 
Q 1613 2909 1392 2779 
Q 1172 2650 1078 2428 
Q 984 2206 984 1816 
L 984 0 
L 422 0 
z
" transform="scale(0.015625)"/>
       <path id="ArialMT-41" d="M -9 0 
L 1750 4581 
L 2403 4581 
L 4278 0 
L 3588 0 
L 3053 1388 
L 1138 1388 
L 634 0 
L -9 0 
z
M 1313 1881 
L 2866 1881 
L 2388 3150 
Q 2169 3728 2063 4100 
Q 1975 3659 1816 3225 
L 1313 1881 
z
" transform="scale(0.015625)"/>
      </defs>
      <use xlink:href="#ArialMT-43"/>
      <use xlink:href="#ArialMT-68" transform="translate(72.216797 0)"/>
      <use xlink:href="#ArialMT-6f" transform="translate(127.832031 0)"/>
      <use xlink:href="#ArialMT-6f" transform="translate(183.447266 0)"/>
      <use xlink:href="#ArialMT-73" transform="translate(239.0625 0)"/>
      <use xlink:href="#ArialMT-65" transform="translate(289.0625 0)"/>
      <use xlink:href="#ArialMT-20" transform="translate(344.677734 0)"/>
      <use xlink:href="#ArialMT-41" transform="translate(366.960938 0)"/>
     </g>
    </g>
    <g id="LineCollection_6">
     <path d="M 199.840156 43.862187 
L 199.840156 36.862187 
" style="fill: none; stroke: #ff0000; stroke-width: 2"/>
    </g>
    <g id="line2d_24">
     <g>
      <use xlink:href="#mc00b04788e" x="199.840156" y="43.862187" style="fill: #ff0000; stroke: #ff0000"/>
     </g>
    </g>
    <g id="line2d_25">
     <g>
      <use xlink:href="#mc00b04788e" x="199.840156" y="36.862187" style="fill: #ff0000; stroke: #ff0000"/>
     </g>
    </g>
    <g id="line2d_26">
     <path d="M 192.840156 40.362187 
L 206.840156 40.362187 
" style="fill: none; stroke: #ff0000; stroke-width: 2; stroke-linecap: square"/>
    </g>
    <g id="line2d_27">
     <g>
      <use xlink:href="#m74cbb5f74b" x="199.840156" y="40.362187" style="fill: #ff0000; stroke: #ff0000; stroke-linejoin: miter"/>
     </g>
    </g>
    <g id="text_17">
     <!-- Choose B -->
     <g transform="translate(212.440156 42.812187) scale(0.07 -0.07)">
      <defs>
       <path id="ArialMT-42" d="M 469 0 
L 469 4581 
L 2188 4581 
Q 2713 4581 3030 4442 
Q 3347 4303 3526 4014 
Q 3706 3725 3706 3409 
Q 3706 3116 3547 2856 
Q 3388 2597 3066 2438 
Q 3481 2316 3704 2022 
Q 3928 1728 3928 1328 
Q 3928 1006 3792 729 
Q 3656 453 3456 303 
Q 3256 153 2954 76 
Q 2653 0 2216 0 
L 469 0 
z
M 1075 2656 
L 2066 2656 
Q 2469 2656 2644 2709 
Q 2875 2778 2992 2937 
Q 3109 3097 3109 3338 
Q 3109 3566 3000 3739 
Q 2891 3913 2687 3977 
Q 2484 4041 1991 4041 
L 1075 4041 
L 1075 2656 
z
M 1075 541 
L 2216 541 
Q 2509 541 2628 563 
Q 2838 600 2978 687 
Q 3119 775 3209 942 
Q 3300 1109 3300 1328 
Q 3300 1584 3169 1773 
Q 3038 1963 2805 2039 
Q 2572 2116 2134 2116 
L 1075 2116 
L 1075 541 
z
" transform="scale(0.015625)"/>
      </defs>
      <use xlink:href="#ArialMT-43"/>
      <use xlink:href="#ArialMT-68" transform="translate(72.216797 0)"/>
      <use xlink:href="#ArialMT-6f" transform="translate(127.832031 0)"/>
      <use xlink:href="#ArialMT-6f" transform="translate(183.447266 0)"/>
      <use xlink:href="#ArialMT-73" transform="translate(239.0625 0)"/>
      <use xlink:href="#ArialMT-65" transform="translate(289.0625 0)"/>
      <use xlink:href="#ArialMT-20" transform="translate(344.677734 0)"/>
      <use xlink:href="#ArialMT-42" transform="translate(372.460938 0)"/>
     </g>
    </g>
   </g>
  </g>
 </g>
 <defs>
  <clipPath id="p9576d29791">
   <rect x="34.65" y="21.6" width="214.83" height="138.6"/>
  </clipPath>
 </defs>
</svg>
