<?xml version="1.0" encoding="utf-8" standalone="no"?>
<!DOCTYPE svg PUBLIC "-//W3C//DTD SVG 1.1//EN"
  "http://www.w3.org/Graphics/SVG/1.1/DTD/svg11.dtd">
<svg xmlns:xlink="http://www.w3.org/1999/xlink" width="180pt" height="180pt" viewBox="0 0 180 180" xmlns="http://www.w3.org/2000/svg" version="1.1">
 <metadata>
  <rdf:RDF xmlns:dc="http://purl.org/dc/elements/1.1/" xmlns:cc="http://creativecommons.org/ns#" xmlns:rdf="http://www.w3.org/1999/02/22-rdf-syntax-ns#">
   <cc:Work>
    <dc:type rdf:resource="http://purl.org/dc/dcmitype/StillImage"/>
    <dc:date>2025-08-19T13:55:37.739989</dc:date>
    <dc:format>image/svg+xml</dc:format>
    <dc:creator>
     <cc:Agent>
      <dc:title>Matplotlib v3.10.0, https://matplotlib.org/</dc:title>
     </cc:Agent>
    </dc:creator>
   </cc:Work>
  </rdf:RDF>
 </metadata>
 <defs>
  <style type="text/css">*{stroke-linejoin: round; stroke-linecap: butt}</style>
 </defs>
 <g id="figure_1">
  <g id="patch_1">
   <path d="M 0 180 
L 180 180 
L 180 0 
L 0 0 
z
" style="fill: #ffffff"/>
  </g>
  <g id="axes_1">
   <g id="patch_2">
    <path d="M 36.3 148.74 
L 169.2 148.74 
L 169.2 10.8 
L 36.3 10.8 
z
" style="fill: #ffffff"/>
   </g>
   <g id="matplotlib.axis_1">
    <g id="xtick_1">
     <g id="line2d_1">
      <defs>
       <path id="m4d9a3179e4" d="M 0 0 
L 0 -2 
" style="stroke: #000000; stroke-width: 0.5"/>
      </defs>
      <g>
       <use xlink:href="#m4d9a3179e4" x="40.453125" y="148.74" style="stroke: #000000; stroke-width: 0.5"/>
      </g>
     </g>
     <g id="text_1">
      <!-- 0 -->
      <g transform="translate(38.506797 157.250469) scale(0.07 -0.07)">
       <defs>
        <path id="ArialMT-30" d="M 266 2259 
Q 266 3072 433 3567 
Q 600 4063 929 4331 
Q 1259 4600 1759 4600 
Q 2128 4600 2406 4451 
Q 2684 4303 2865 4023 
Q 3047 3744 3150 3342 
Q 3253 2941 3253 2259 
Q 3253 1453 3087 958 
Q 2922 463 2592 192 
Q 2263 -78 1759 -78 
Q 1097 -78 719 397 
Q 266 969 266 2259 
z
M 844 2259 
Q 844 1131 1108 757 
Q 1372 384 1759 384 
Q 2147 384 2411 759 
Q 2675 1134 2675 2259 
Q 2675 3391 2411 3762 
Q 2147 4134 1753 4134 
Q 1366 4134 1134 3806 
Q 844 3388 844 2259 
z
" transform="scale(0.015625)"/>
       </defs>
       <use xlink:href="#ArialMT-30"/>
      </g>
     </g>
    </g>
    <g id="xtick_2">
     <g id="line2d_2">
      <g>
       <use xlink:href="#m4d9a3179e4" x="81.984375" y="148.74" style="stroke: #000000; stroke-width: 0.5"/>
      </g>
     </g>
     <g id="text_2">
      <!-- 5 -->
      <g transform="translate(80.038047 157.250469) scale(0.07 -0.07)">
       <defs>
        <path id="ArialMT-35" d="M 266 1200 
L 856 1250 
Q 922 819 1161 601 
Q 1400 384 1738 384 
Q 2144 384 2425 690 
Q 2706 997 2706 1503 
Q 2706 1984 2436 2262 
Q 2166 2541 1728 2541 
Q 1456 2541 1237 2417 
Q 1019 2294 894 2097 
L 366 2166 
L 809 4519 
L 3088 4519 
L 3088 3981 
L 1259 3981 
L 1013 2750 
Q 1425 3038 1878 3038 
Q 2478 3038 2890 2622 
Q 3303 2206 3303 1553 
Q 3303 931 2941 478 
Q 2500 -78 1738 -78 
Q 1113 -78 717 272 
Q 322 622 266 1200 
z
" transform="scale(0.015625)"/>
       </defs>
       <use xlink:href="#ArialMT-35"/>
      </g>
     </g>
    </g>
    <g id="xtick_3">
     <g id="line2d_3">
      <g>
       <use xlink:href="#m4d9a3179e4" x="123.515625" y="148.74" style="stroke: #000000; stroke-width: 0.5"/>
      </g>
     </g>
     <g id="text_3">
      <!-- 10 -->
      <g transform="translate(119.622969 157.250469) scale(0.07 -0.07)">
       <defs>
        <path id="ArialMT-31" d="M 2384 0 
L 1822 0 
L 1822 3584 
Q 1619 3391 1289 3197 
Q 959 3003 697 2906 
L 697 3450 
Q 1169 3672 1522 3987 
Q 1875 4303 2022 4600 
L 2384 4600 
L 2384 0 
z
" transform="scale(0.015625)"/>
       </defs>
       <use xlink:href="#ArialMT-31"/>
       <use xlink:href="#ArialMT-30" transform="translate(55.615234 0)"/>
      </g>
     </g>
    </g>
    <g id="xtick_4">
     <g id="line2d_4">
      <g>
       <use xlink:href="#m4d9a3179e4" x="165.046875" y="148.74" style="stroke: #000000; stroke-width: 0.5"/>
      </g>
     </g>
     <g id="text_4">
      <!-- 15 -->
      <g transform="translate(161.154219 157.250469) scale(0.07 -0.07)">
       <use xlink:href="#ArialMT-31"/>
       <use xlink:href="#ArialMT-35" transform="translate(55.615234 0)"/>
      </g>
     </g>
    </g>
    <g id="text_5">
     <!-- Stimuli Position in Sequence -->
     <g transform="translate(58.393516 167.7375) scale(0.07 -0.07)">
      <defs>
       <path id="ArialMT-53" d="M 288 1472 
L 859 1522 
Q 900 1178 1048 958 
Q 1197 738 1509 602 
Q 1822 466 2213 466 
Q 2559 466 2825 569 
Q 3091 672 3220 851 
Q 3350 1031 3350 1244 
Q 3350 1459 3225 1620 
Q 3100 1781 2813 1891 
Q 2628 1963 1997 2114 
Q 1366 2266 1113 2400 
Q 784 2572 623 2826 
Q 463 3081 463 3397 
Q 463 3744 659 4045 
Q 856 4347 1234 4503 
Q 1613 4659 2075 4659 
Q 2584 4659 2973 4495 
Q 3363 4331 3572 4012 
Q 3781 3694 3797 3291 
L 3216 3247 
Q 3169 3681 2898 3903 
Q 2628 4125 2100 4125 
Q 1550 4125 1298 3923 
Q 1047 3722 1047 3438 
Q 1047 3191 1225 3031 
Q 1400 2872 2139 2705 
Q 2878 2538 3153 2413 
Q 3553 2228 3743 1945 
Q 3934 1663 3934 1294 
Q 3934 928 3725 604 
Q 3516 281 3123 101 
Q 2731 -78 2241 -78 
Q 1619 -78 1198 103 
Q 778 284 539 648 
Q 300 1013 288 1472 
z
" transform="scale(0.015625)"/>
       <path id="ArialMT-74" d="M 1650 503 
L 1731 6 
Q 1494 -44 1306 -44 
Q 1000 -44 831 53 
Q 663 150 594 308 
Q 525 466 525 972 
L 525 2881 
L 113 2881 
L 113 3319 
L 525 3319 
L 525 4141 
L 1084 4478 
L 1084 3319 
L 1650 3319 
L 1650 2881 
L 1084 2881 
L 1084 941 
Q 1084 700 1114 631 
Q 1144 563 1211 522 
Q 1278 481 1403 481 
Q 1497 481 1650 503 
z
" transform="scale(0.015625)"/>
       <path id="ArialMT-69" d="M 425 3934 
L 425 4581 
L 988 4581 
L 988 3934 
L 425 3934 
z
M 425 0 
L 425 3319 
L 988 3319 
L 988 0 
L 425 0 
z
" transform="scale(0.015625)"/>
       <path id="ArialMT-6d" d="M 422 0 
L 422 3319 
L 925 3319 
L 925 2853 
Q 1081 3097 1340 3245 
Q 1600 3394 1931 3394 
Q 2300 3394 2536 3241 
Q 2772 3088 2869 2813 
Q 3263 3394 3894 3394 
Q 4388 3394 4653 3120 
Q 4919 2847 4919 2278 
L 4919 0 
L 4359 0 
L 4359 2091 
Q 4359 2428 4304 2576 
Q 4250 2725 4106 2815 
Q 3963 2906 3769 2906 
Q 3419 2906 3187 2673 
Q 2956 2441 2956 1928 
L 2956 0 
L 2394 0 
L 2394 2156 
Q 2394 2531 2256 2718 
Q 2119 2906 1806 2906 
Q 1569 2906 1367 2781 
Q 1166 2656 1075 2415 
Q 984 2175 984 1722 
L 984 0 
L 422 0 
z
" transform="scale(0.015625)"/>
       <path id="ArialMT-75" d="M 2597 0 
L 2597 488 
Q 2209 -75 1544 -75 
Q 1250 -75 995 37 
Q 741 150 617 320 
Q 494 491 444 738 
Q 409 903 409 1263 
L 409 3319 
L 972 3319 
L 972 1478 
Q 972 1038 1006 884 
Q 1059 663 1231 536 
Q 1403 409 1656 409 
Q 1909 409 2131 539 
Q 2353 669 2445 892 
Q 2538 1116 2538 1541 
L 2538 3319 
L 3100 3319 
L 3100 0 
L 2597 0 
z
" transform="scale(0.015625)"/>
       <path id="ArialMT-6c" d="M 409 0 
L 409 4581 
L 972 4581 
L 972 0 
L 409 0 
z
" transform="scale(0.015625)"/>
       <path id="ArialMT-20" transform="scale(0.015625)"/>
       <path id="ArialMT-50" d="M 494 0 
L 494 4581 
L 2222 4581 
Q 2678 4581 2919 4538 
Q 3256 4481 3484 4323 
Q 3713 4166 3852 3881 
Q 3991 3597 3991 3256 
Q 3991 2672 3619 2267 
Q 3247 1863 2275 1863 
L 1100 1863 
L 1100 0 
L 494 0 
z
M 1100 2403 
L 2284 2403 
Q 2872 2403 3119 2622 
Q 3366 2841 3366 3238 
Q 3366 3525 3220 3729 
Q 3075 3934 2838 4000 
Q 2684 4041 2272 4041 
L 1100 4041 
L 1100 2403 
z
" transform="scale(0.015625)"/>
       <path id="ArialMT-6f" d="M 213 1659 
Q 213 2581 725 3025 
Q 1153 3394 1769 3394 
Q 2453 3394 2887 2945 
Q 3322 2497 3322 1706 
Q 3322 1066 3130 698 
Q 2938 331 2570 128 
Q 2203 -75 1769 -75 
Q 1072 -75 642 372 
Q 213 819 213 1659 
z
M 791 1659 
Q 791 1022 1069 705 
Q 1347 388 1769 388 
Q 2188 388 2466 706 
Q 2744 1025 2744 1678 
Q 2744 2294 2464 2611 
Q 2184 2928 1769 2928 
Q 1347 2928 1069 2612 
Q 791 2297 791 1659 
z
" transform="scale(0.015625)"/>
       <path id="ArialMT-73" d="M 197 991 
L 753 1078 
Q 800 744 1014 566 
Q 1228 388 1613 388 
Q 2000 388 2187 545 
Q 2375 703 2375 916 
Q 2375 1106 2209 1216 
Q 2094 1291 1634 1406 
Q 1016 1563 777 1677 
Q 538 1791 414 1992 
Q 291 2194 291 2438 
Q 291 2659 392 2848 
Q 494 3038 669 3163 
Q 800 3259 1026 3326 
Q 1253 3394 1513 3394 
Q 1903 3394 2198 3281 
Q 2494 3169 2634 2976 
Q 2775 2784 2828 2463 
L 2278 2388 
Q 2241 2644 2061 2787 
Q 1881 2931 1553 2931 
Q 1166 2931 1000 2803 
Q 834 2675 834 2503 
Q 834 2394 903 2306 
Q 972 2216 1119 2156 
Q 1203 2125 1616 2013 
Q 2213 1853 2448 1751 
Q 2684 1650 2818 1456 
Q 2953 1263 2953 975 
Q 2953 694 2789 445 
Q 2625 197 2315 61 
Q 2006 -75 1616 -75 
Q 969 -75 630 194 
Q 291 463 197 991 
z
" transform="scale(0.015625)"/>
       <path id="ArialMT-6e" d="M 422 0 
L 422 3319 
L 928 3319 
L 928 2847 
Q 1294 3394 1984 3394 
Q 2284 3394 2536 3286 
Q 2788 3178 2913 3003 
Q 3038 2828 3088 2588 
Q 3119 2431 3119 2041 
L 3119 0 
L 2556 0 
L 2556 2019 
Q 2556 2363 2490 2533 
Q 2425 2703 2258 2804 
Q 2091 2906 1866 2906 
Q 1506 2906 1245 2678 
Q 984 2450 984 1813 
L 984 0 
L 422 0 
z
" transform="scale(0.015625)"/>
       <path id="ArialMT-65" d="M 2694 1069 
L 3275 997 
Q 3138 488 2766 206 
Q 2394 -75 1816 -75 
Q 1088 -75 661 373 
Q 234 822 234 1631 
Q 234 2469 665 2931 
Q 1097 3394 1784 3394 
Q 2450 3394 2872 2941 
Q 3294 2488 3294 1666 
Q 3294 1616 3291 1516 
L 816 1516 
Q 847 969 1125 678 
Q 1403 388 1819 388 
Q 2128 388 2347 550 
Q 2566 713 2694 1069 
z
M 847 1978 
L 2700 1978 
Q 2663 2397 2488 2606 
Q 2219 2931 1791 2931 
Q 1403 2931 1139 2672 
Q 875 2413 847 1978 
z
" transform="scale(0.015625)"/>
       <path id="ArialMT-71" d="M 2538 -1272 
L 2538 353 
Q 2406 169 2170 47 
Q 1934 -75 1669 -75 
Q 1078 -75 651 397 
Q 225 869 225 1691 
Q 225 2191 398 2587 
Q 572 2984 901 3189 
Q 1231 3394 1625 3394 
Q 2241 3394 2594 2875 
L 2594 3319 
L 3100 3319 
L 3100 -1272 
L 2538 -1272 
z
M 803 1669 
Q 803 1028 1072 708 
Q 1341 388 1716 388 
Q 2075 388 2334 692 
Q 2594 997 2594 1619 
Q 2594 2281 2320 2615 
Q 2047 2950 1678 2950 
Q 1313 2950 1058 2639 
Q 803 2328 803 1669 
z
" transform="scale(0.015625)"/>
       <path id="ArialMT-63" d="M 2588 1216 
L 3141 1144 
Q 3050 572 2676 248 
Q 2303 -75 1759 -75 
Q 1078 -75 664 370 
Q 250 816 250 1647 
Q 250 2184 428 2587 
Q 606 2991 970 3192 
Q 1334 3394 1763 3394 
Q 2303 3394 2647 3120 
Q 2991 2847 3088 2344 
L 2541 2259 
Q 2463 2594 2264 2762 
Q 2066 2931 1784 2931 
Q 1359 2931 1093 2626 
Q 828 2322 828 1663 
Q 828 994 1084 691 
Q 1341 388 1753 388 
Q 2084 388 2306 591 
Q 2528 794 2588 1216 
z
" transform="scale(0.015625)"/>
      </defs>
      <use xlink:href="#ArialMT-53"/>
      <use xlink:href="#ArialMT-74" transform="translate(66.699219 0)"/>
      <use xlink:href="#ArialMT-69" transform="translate(94.482422 0)"/>
      <use xlink:href="#ArialMT-6d" transform="translate(116.699219 0)"/>
      <use xlink:href="#ArialMT-75" transform="translate(200 0)"/>
      <use xlink:href="#ArialMT-6c" transform="translate(255.615234 0)"/>
      <use xlink:href="#ArialMT-69" transform="translate(277.832031 0)"/>
      <use xlink:href="#ArialMT-20" transform="translate(300.048828 0)"/>
      <use xlink:href="#ArialMT-50" transform="translate(327.832031 0)"/>
      <use xlink:href="#ArialMT-6f" transform="translate(394.53125 0)"/>
      <use xlink:href="#ArialMT-73" transform="translate(450.146484 0)"/>
      <use xlink:href="#ArialMT-69" transform="translate(500.146484 0)"/>
      <use xlink:href="#ArialMT-74" transform="translate(522.363281 0)"/>
      <use xlink:href="#ArialMT-69" transform="translate(550.146484 0)"/>
      <use xlink:href="#ArialMT-6f" transform="translate(572.363281 0)"/>
      <use xlink:href="#ArialMT-6e" transform="translate(627.978516 0)"/>
      <use xlink:href="#ArialMT-20" transform="translate(683.59375 0)"/>
      <use xlink:href="#ArialMT-69" transform="translate(711.376953 0)"/>
      <use xlink:href="#ArialMT-6e" transform="translate(733.59375 0)"/>
      <use xlink:href="#ArialMT-20" transform="translate(789.208984 0)"/>
      <use xlink:href="#ArialMT-53" transform="translate(816.992188 0)"/>
      <use xlink:href="#ArialMT-65" transform="translate(883.691406 0)"/>
      <use xlink:href="#ArialMT-71" transform="translate(939.306641 0)"/>
      <use xlink:href="#ArialMT-75" transform="translate(994.921875 0)"/>
      <use xlink:href="#ArialMT-65" transform="translate(1050.537109 0)"/>
      <use xlink:href="#ArialMT-6e" transform="translate(1106.152344 0)"/>
      <use xlink:href="#ArialMT-63" transform="translate(1161.767578 0)"/>
      <use xlink:href="#ArialMT-65" transform="translate(1211.767578 0)"/>
     </g>
    </g>
   </g>
   <g id="matplotlib.axis_2">
    <g id="ytick_1">
     <g id="line2d_5">
      <defs>
       <path id="m9a8676b3a0" d="M 0 0 
L 2 0 
" style="stroke: #000000; stroke-width: 0.5"/>
      </defs>
      <g>
       <use xlink:href="#m9a8676b3a0" x="36.3" y="144.277412" style="stroke: #000000; stroke-width: 0.5"/>
      </g>
     </g>
     <g id="text_6">
      <!-- −1 -->
      <g transform="translate(24.818906 146.782646) scale(0.07 -0.07)">
       <defs>
        <path id="ArialMT-2212" d="M 3381 1997 
L 356 1997 
L 356 2522 
L 3381 2522 
L 3381 1997 
z
" transform="scale(0.015625)"/>
       </defs>
       <use xlink:href="#ArialMT-2212"/>
       <use xlink:href="#ArialMT-31" transform="translate(58.398438 0)"/>
      </g>
     </g>
    </g>
    <g id="ytick_2">
     <g id="line2d_6">
      <g>
       <use xlink:href="#m9a8676b3a0" x="36.3" y="125.874961" style="stroke: #000000; stroke-width: 0.5"/>
      </g>
     </g>
     <g id="text_7">
      <!-- 0 -->
      <g transform="translate(28.907344 128.380195) scale(0.07 -0.07)">
       <use xlink:href="#ArialMT-30"/>
      </g>
     </g>
    </g>
    <g id="ytick_3">
     <g id="line2d_7">
      <g>
       <use xlink:href="#m9a8676b3a0" x="36.3" y="107.472509" style="stroke: #000000; stroke-width: 0.5"/>
      </g>
     </g>
     <g id="text_8">
      <!-- 1 -->
      <g transform="translate(28.907344 109.977744) scale(0.07 -0.07)">
       <use xlink:href="#ArialMT-31"/>
      </g>
     </g>
    </g>
    <g id="ytick_4">
     <g id="line2d_8">
      <g>
       <use xlink:href="#m9a8676b3a0" x="36.3" y="89.070058" style="stroke: #000000; stroke-width: 0.5"/>
      </g>
     </g>
     <g id="text_9">
      <!-- 2 -->
      <g transform="translate(28.907344 91.575293) scale(0.07 -0.07)">
       <defs>
        <path id="ArialMT-32" d="M 3222 541 
L 3222 0 
L 194 0 
Q 188 203 259 391 
Q 375 700 629 1000 
Q 884 1300 1366 1694 
Q 2113 2306 2375 2664 
Q 2638 3022 2638 3341 
Q 2638 3675 2398 3904 
Q 2159 4134 1775 4134 
Q 1369 4134 1125 3890 
Q 881 3647 878 3216 
L 300 3275 
Q 359 3922 746 4261 
Q 1134 4600 1788 4600 
Q 2447 4600 2831 4234 
Q 3216 3869 3216 3328 
Q 3216 3053 3103 2787 
Q 2991 2522 2730 2228 
Q 2469 1934 1863 1422 
Q 1356 997 1212 845 
Q 1069 694 975 541 
L 3222 541 
z
" transform="scale(0.015625)"/>
       </defs>
       <use xlink:href="#ArialMT-32"/>
      </g>
     </g>
    </g>
    <g id="ytick_5">
     <g id="line2d_9">
      <g>
       <use xlink:href="#m9a8676b3a0" x="36.3" y="70.667607" style="stroke: #000000; stroke-width: 0.5"/>
      </g>
     </g>
     <g id="text_10">
      <!-- 3 -->
      <g transform="translate(28.907344 73.172842) scale(0.07 -0.07)">
       <defs>
        <path id="ArialMT-33" d="M 269 1209 
L 831 1284 
Q 928 806 1161 595 
Q 1394 384 1728 384 
Q 2125 384 2398 659 
Q 2672 934 2672 1341 
Q 2672 1728 2419 1979 
Q 2166 2231 1775 2231 
Q 1616 2231 1378 2169 
L 1441 2663 
Q 1497 2656 1531 2656 
Q 1891 2656 2178 2843 
Q 2466 3031 2466 3422 
Q 2466 3731 2256 3934 
Q 2047 4138 1716 4138 
Q 1388 4138 1169 3931 
Q 950 3725 888 3313 
L 325 3413 
Q 428 3978 793 4289 
Q 1159 4600 1703 4600 
Q 2078 4600 2393 4439 
Q 2709 4278 2876 4000 
Q 3044 3722 3044 3409 
Q 3044 3113 2884 2869 
Q 2725 2625 2413 2481 
Q 2819 2388 3044 2092 
Q 3269 1797 3269 1353 
Q 3269 753 2831 336 
Q 2394 -81 1725 -81 
Q 1122 -81 723 278 
Q 325 638 269 1209 
z
" transform="scale(0.015625)"/>
       </defs>
       <use xlink:href="#ArialMT-33"/>
      </g>
     </g>
    </g>
    <g id="ytick_6">
     <g id="line2d_10">
      <g>
       <use xlink:href="#m9a8676b3a0" x="36.3" y="52.265156" style="stroke: #000000; stroke-width: 0.5"/>
      </g>
     </g>
     <g id="text_11">
      <!-- 4 -->
      <g transform="translate(28.907344 54.770391) scale(0.07 -0.07)">
       <defs>
        <path id="ArialMT-34" d="M 2069 0 
L 2069 1097 
L 81 1097 
L 81 1613 
L 2172 4581 
L 2631 4581 
L 2631 1613 
L 3250 1613 
L 3250 1097 
L 2631 1097 
L 2631 0 
L 2069 0 
z
M 2069 1613 
L 2069 3678 
L 634 1613 
L 2069 1613 
z
" transform="scale(0.015625)"/>
       </defs>
       <use xlink:href="#ArialMT-34"/>
      </g>
     </g>
    </g>
    <g id="ytick_7">
     <g id="line2d_11">
      <g>
       <use xlink:href="#m9a8676b3a0" x="36.3" y="33.862705" style="stroke: #000000; stroke-width: 0.5"/>
      </g>
     </g>
     <g id="text_12">
      <!-- 5 -->
      <g transform="translate(28.907344 36.36794) scale(0.07 -0.07)">
       <use xlink:href="#ArialMT-35"/>
      </g>
     </g>
    </g>
    <g id="ytick_8">
     <g id="line2d_12">
      <g>
       <use xlink:href="#m9a8676b3a0" x="36.3" y="15.460254" style="stroke: #000000; stroke-width: 0.5"/>
      </g>
     </g>
     <g id="text_13">
      <!-- 6 -->
      <g transform="translate(28.907344 17.965489) scale(0.07 -0.07)">
       <defs>
        <path id="ArialMT-36" d="M 3184 3459 
L 2625 3416 
Q 2550 3747 2413 3897 
Q 2184 4138 1850 4138 
Q 1581 4138 1378 3988 
Q 1113 3794 959 3422 
Q 806 3050 800 2363 
Q 1003 2672 1297 2822 
Q 1591 2972 1913 2972 
Q 2475 2972 2870 2558 
Q 3266 2144 3266 1488 
Q 3266 1056 3080 686 
Q 2894 316 2569 119 
Q 2244 -78 1831 -78 
Q 1128 -78 684 439 
Q 241 956 241 2144 
Q 241 3472 731 4075 
Q 1159 4600 1884 4600 
Q 2425 4600 2770 4297 
Q 3116 3994 3184 3459 
z
M 888 1484 
Q 888 1194 1011 928 
Q 1134 663 1356 523 
Q 1578 384 1822 384 
Q 2178 384 2434 671 
Q 2691 959 2691 1453 
Q 2691 1928 2437 2201 
Q 2184 2475 1800 2475 
Q 1419 2475 1153 2201 
Q 888 1928 888 1484 
z
" transform="scale(0.015625)"/>
       </defs>
       <use xlink:href="#ArialMT-36"/>
      </g>
     </g>
    </g>
    <g id="text_14">
     <!-- Decision Weight ($\beta_t$) -->
     <g transform="translate(19.278906 111.655) rotate(-90) scale(0.07 -0.07)">
      <defs>
       <path id="ArialMT-44" d="M 494 0 
L 494 4581 
L 2072 4581 
Q 2606 4581 2888 4516 
Q 3281 4425 3559 4188 
Q 3922 3881 4101 3404 
Q 4281 2928 4281 2316 
Q 4281 1794 4159 1391 
Q 4038 988 3847 723 
Q 3656 459 3429 307 
Q 3203 156 2883 78 
Q 2563 0 2147 0 
L 494 0 
z
M 1100 541 
L 2078 541 
Q 2531 541 2789 625 
Q 3047 709 3200 863 
Q 3416 1078 3536 1442 
Q 3656 1806 3656 2325 
Q 3656 3044 3420 3430 
Q 3184 3816 2847 3947 
Q 2603 4041 2063 4041 
L 1100 4041 
L 1100 541 
z
" transform="scale(0.015625)"/>
       <path id="ArialMT-57" d="M 1294 0 
L 78 4581 
L 700 4581 
L 1397 1578 
Q 1509 1106 1591 641 
Q 1766 1375 1797 1488 
L 2669 4581 
L 3400 4581 
L 4056 2263 
Q 4303 1400 4413 641 
Q 4500 1075 4641 1638 
L 5359 4581 
L 5969 4581 
L 4713 0 
L 4128 0 
L 3163 3491 
Q 3041 3928 3019 4028 
Q 2947 3713 2884 3491 
L 1913 0 
L 1294 0 
z
" transform="scale(0.015625)"/>
       <path id="ArialMT-67" d="M 319 -275 
L 866 -356 
Q 900 -609 1056 -725 
Q 1266 -881 1628 -881 
Q 2019 -881 2231 -725 
Q 2444 -569 2519 -288 
Q 2563 -116 2559 434 
Q 2191 0 1641 0 
Q 956 0 581 494 
Q 206 988 206 1678 
Q 206 2153 378 2554 
Q 550 2956 876 3175 
Q 1203 3394 1644 3394 
Q 2231 3394 2613 2919 
L 2613 3319 
L 3131 3319 
L 3131 450 
Q 3131 -325 2973 -648 
Q 2816 -972 2473 -1159 
Q 2131 -1347 1631 -1347 
Q 1038 -1347 672 -1080 
Q 306 -813 319 -275 
z
M 784 1719 
Q 784 1066 1043 766 
Q 1303 466 1694 466 
Q 2081 466 2343 764 
Q 2606 1063 2606 1700 
Q 2606 2309 2336 2618 
Q 2066 2928 1684 2928 
Q 1309 2928 1046 2623 
Q 784 2319 784 1719 
z
" transform="scale(0.015625)"/>
       <path id="ArialMT-68" d="M 422 0 
L 422 4581 
L 984 4581 
L 984 2938 
Q 1378 3394 1978 3394 
Q 2347 3394 2619 3248 
Q 2891 3103 3008 2847 
Q 3125 2591 3125 2103 
L 3125 0 
L 2563 0 
L 2563 2103 
Q 2563 2525 2380 2717 
Q 2197 2909 1863 2909 
Q 1613 2909 1392 2779 
Q 1172 2650 1078 2428 
Q 984 2206 984 1816 
L 984 0 
L 422 0 
z
" transform="scale(0.015625)"/>
       <path id="ArialMT-28" d="M 1497 -1347 
Q 1031 -759 709 28 
Q 388 816 388 1659 
Q 388 2403 628 3084 
Q 909 3875 1497 4659 
L 1900 4659 
Q 1522 4009 1400 3731 
Q 1209 3300 1100 2831 
Q 966 2247 966 1656 
Q 966 153 1900 -1347 
L 1497 -1347 
z
" transform="scale(0.015625)"/>
       <path id="DejaVuSans-Oblique-3b2" d="M 872 216 
L 572 -1331 
L -6 -1331 
L 928 3478 
Q 1206 4903 2538 4903 
Q 3888 4903 3659 3700 
Q 3503 2844 2894 2531 
Q 3713 2250 3553 1416 
Q 3272 -69 1759 -66 
Q 1097 -63 872 216 
z
M 1019 966 
Q 1259 422 1875 425 
Q 2775 425 2966 1406 
Q 3138 2288 1675 2219 
L 1778 2750 
Q 2909 2731 3106 3750 
Q 3241 4438 2509 4434 
Q 1691 4434 1503 3459 
L 1019 966 
z
" transform="scale(0.015625)"/>
       <path id="DejaVuSans-Oblique-74" d="M 2706 3500 
L 2619 3053 
L 1472 3053 
L 1100 1153 
Q 1081 1047 1072 975 
Q 1063 903 1063 863 
Q 1063 663 1183 572 
Q 1303 481 1569 481 
L 2150 481 
L 2053 0 
L 1503 0 
Q 991 0 739 200 
Q 488 400 488 806 
Q 488 878 497 964 
Q 506 1050 525 1153 
L 897 3053 
L 409 3053 
L 500 3500 
L 978 3500 
L 1172 4494 
L 1747 4494 
L 1556 3500 
L 2706 3500 
z
" transform="scale(0.015625)"/>
       <path id="ArialMT-29" d="M 791 -1347 
L 388 -1347 
Q 1322 153 1322 1656 
Q 1322 2244 1188 2822 
Q 1081 3291 891 3722 
Q 769 4003 388 4659 
L 791 4659 
Q 1378 3875 1659 3084 
Q 1900 2403 1900 1659 
Q 1900 816 1576 28 
Q 1253 -759 791 -1347 
z
" transform="scale(0.015625)"/>
      </defs>
      <use xlink:href="#ArialMT-44" transform="translate(0 0.390625)"/>
      <use xlink:href="#ArialMT-65" transform="translate(72.216797 0.390625)"/>
      <use xlink:href="#ArialMT-63" transform="translate(127.832031 0.390625)"/>
      <use xlink:href="#ArialMT-69" transform="translate(177.832031 0.390625)"/>
      <use xlink:href="#ArialMT-73" transform="translate(200.048828 0.390625)"/>
      <use xlink:href="#ArialMT-69" transform="translate(250.048828 0.390625)"/>
      <use xlink:href="#ArialMT-6f" transform="translate(272.265625 0.390625)"/>
      <use xlink:href="#ArialMT-6e" transform="translate(327.880859 0.390625)"/>
      <use xlink:href="#ArialMT-20" transform="translate(383.496094 0.390625)"/>
      <use xlink:href="#ArialMT-57" transform="translate(411.279297 0.390625)"/>
      <use xlink:href="#ArialMT-65" transform="translate(505.664062 0.390625)"/>
      <use xlink:href="#ArialMT-69" transform="translate(561.279297 0.390625)"/>
      <use xlink:href="#ArialMT-67" transform="translate(583.496094 0.390625)"/>
      <use xlink:href="#ArialMT-68" transform="translate(639.111328 0.390625)"/>
      <use xlink:href="#ArialMT-74" transform="translate(694.726562 0.390625)"/>
      <use xlink:href="#ArialMT-20" transform="translate(722.509766 0.390625)"/>
      <use xlink:href="#ArialMT-28" transform="translate(750.292969 0.390625)"/>
      <use xlink:href="#DejaVuSans-Oblique-3b2" transform="translate(783.59375 0.390625)"/>
      <use xlink:href="#DejaVuSans-Oblique-74" transform="translate(847.412109 -16.015625) scale(0.7)"/>
      <use xlink:href="#ArialMT-29" transform="translate(877.592773 0.390625)"/>
     </g>
    </g>
   </g>
   <g id="line2d_13">
    <path d="M 48.759375 43.328935 
" clip-path="url(#p9c605bd8ec)" style="fill: none; stroke: #440154; stroke-width: 2; stroke-linecap: square"/>
    <defs>
     <path id="m8e7763ead9" d="M 0 2 
C 0.530406 2 1.03916 1.789267 1.414214 1.414214 
C 1.789267 1.03916 2 0.530406 2 0 
C 2 -0.530406 1.789267 -1.03916 1.414214 -1.414214 
C 1.03916 -1.789267 0.530406 -2 0 -2 
C -0.530406 -2 -1.03916 -1.789267 -1.414214 -1.414214 
C -1.789267 -1.03916 -2 -0.530406 -2 0 
C -2 0.530406 -1.789267 1.03916 -1.414214 1.414214 
C -1.03916 1.789267 -0.530406 2 0 2 
z
" style="stroke: #440154"/>
    </defs>
    <g clip-path="url(#p9c605bd8ec)">
     <use xlink:href="#m8e7763ead9" x="48.759375" y="43.328935" style="fill: #440154; stroke: #440154"/>
    </g>
   </g>
   <g id="line2d_14">
    <path d="M 48.759375 39.06979 
L 57.065625 35.192708 
" clip-path="url(#p9c605bd8ec)" style="fill: none; stroke: #481b6d; stroke-width: 2; stroke-linecap: square"/>
    <defs>
     <path id="mf909d29c6f" d="M 0 2 
C 0.530406 2 1.03916 1.789267 1.414214 1.414214 
C 1.789267 1.03916 2 0.530406 2 0 
C 2 -0.530406 1.789267 -1.03916 1.414214 -1.414214 
C 1.03916 -1.789267 0.530406 -2 0 -2 
C -0.530406 -2 -1.03916 -1.789267 -1.414214 -1.414214 
C -1.789267 -1.03916 -2 -0.530406 -2 0 
C -2 0.530406 -1.789267 1.03916 -1.414214 1.414214 
C -1.03916 1.789267 -0.530406 2 0 2 
z
" style="stroke: #481b6d"/>
    </defs>
    <g clip-path="url(#p9c605bd8ec)">
     <use xlink:href="#mf909d29c6f" x="48.759375" y="39.06979" style="fill: #481b6d; stroke: #481b6d"/>
     <use xlink:href="#mf909d29c6f" x="57.065625" y="35.192708" style="fill: #481b6d; stroke: #481b6d"/>
    </g>
   </g>
   <g id="line2d_15">
    <path d="M 48.759375 45.584562 
L 57.065625 41.869431 
L 65.371875 35.820781 
" clip-path="url(#p9c605bd8ec)" style="fill: none; stroke: #46327e; stroke-width: 2; stroke-linecap: square"/>
    <defs>
     <path id="m2b311ad841" d="M 0 2 
C 0.530406 2 1.03916 1.789267 1.414214 1.414214 
C 1.789267 1.03916 2 0.530406 2 0 
C 2 -0.530406 1.789267 -1.03916 1.414214 -1.414214 
C 1.03916 -1.789267 0.530406 -2 0 -2 
C -0.530406 -2 -1.03916 -1.789267 -1.414214 -1.414214 
C -1.789267 -1.03916 -2 -0.530406 -2 0 
C -2 0.530406 -1.789267 1.03916 -1.414214 1.414214 
C -1.03916 1.789267 -0.530406 2 0 2 
z
" style="stroke: #46327e"/>
    </defs>
    <g clip-path="url(#p9c605bd8ec)">
     <use xlink:href="#m2b311ad841" x="48.759375" y="45.584562" style="fill: #46327e; stroke: #46327e"/>
     <use xlink:href="#m2b311ad841" x="57.065625" y="41.869431" style="fill: #46327e; stroke: #46327e"/>
     <use xlink:href="#m2b311ad841" x="65.371875" y="35.820781" style="fill: #46327e; stroke: #46327e"/>
    </g>
   </g>
   <g id="line2d_16">
    <path d="M 48.759375 54.748943 
L 57.065625 52.779486 
L 65.371875 45.964138 
L 73.678125 28.208285 
" clip-path="url(#p9c605bd8ec)" style="fill: none; stroke: #3f4788; stroke-width: 2; stroke-linecap: square"/>
    <defs>
     <path id="m949244257b" d="M 0 2 
C 0.530406 2 1.03916 1.789267 1.414214 1.414214 
C 1.789267 1.03916 2 0.530406 2 0 
C 2 -0.530406 1.789267 -1.03916 1.414214 -1.414214 
C 1.03916 -1.789267 0.530406 -2 0 -2 
C -0.530406 -2 -1.03916 -1.789267 -1.414214 -1.414214 
C -1.789267 -1.03916 -2 -0.530406 -2 0 
C -2 0.530406 -1.789267 1.03916 -1.414214 1.414214 
C -1.03916 1.789267 -0.530406 2 0 2 
z
" style="stroke: #3f4788"/>
    </defs>
    <g clip-path="url(#p9c605bd8ec)">
     <use xlink:href="#m949244257b" x="48.759375" y="54.748943" style="fill: #3f4788; stroke: #3f4788"/>
     <use xlink:href="#m949244257b" x="57.065625" y="52.779486" style="fill: #3f4788; stroke: #3f4788"/>
     <use xlink:href="#m949244257b" x="65.371875" y="45.964138" style="fill: #3f4788; stroke: #3f4788"/>
     <use xlink:href="#m949244257b" x="73.678125" y="28.208285" style="fill: #3f4788; stroke: #3f4788"/>
    </g>
   </g>
   <g id="line2d_17">
    <path d="M 48.759375 58.759388 
L 57.065625 55.202154 
L 65.371875 52.542134 
L 73.678125 44.350541 
L 81.984375 25.571844 
" clip-path="url(#p9c605bd8ec)" style="fill: none; stroke: #365c8d; stroke-width: 2; stroke-linecap: square"/>
    <defs>
     <path id="m5bd19d0fbb" d="M 0 2 
C 0.530406 2 1.03916 1.789267 1.414214 1.414214 
C 1.789267 1.03916 2 0.530406 2 0 
C 2 -0.530406 1.789267 -1.03916 1.414214 -1.414214 
C 1.03916 -1.789267 0.530406 -2 0 -2 
C -0.530406 -2 -1.03916 -1.789267 -1.414214 -1.414214 
C -1.789267 -1.03916 -2 -0.530406 -2 0 
C -2 0.530406 -1.789267 1.03916 -1.414214 1.414214 
C -1.03916 1.789267 -0.530406 2 0 2 
z
" style="stroke: #365c8d"/>
    </defs>
    <g clip-path="url(#p9c605bd8ec)">
     <use xlink:href="#m5bd19d0fbb" x="48.759375" y="58.759388" style="fill: #365c8d; stroke: #365c8d"/>
     <use xlink:href="#m5bd19d0fbb" x="57.065625" y="55.202154" style="fill: #365c8d; stroke: #365c8d"/>
     <use xlink:href="#m5bd19d0fbb" x="65.371875" y="52.542134" style="fill: #365c8d; stroke: #365c8d"/>
     <use xlink:href="#m5bd19d0fbb" x="73.678125" y="44.350541" style="fill: #365c8d; stroke: #365c8d"/>
     <use xlink:href="#m5bd19d0fbb" x="81.984375" y="25.571844" style="fill: #365c8d; stroke: #365c8d"/>
    </g>
   </g>
   <g id="line2d_18">
    <path d="M 48.759375 62.731527 
L 57.065625 60.89717 
L 65.371875 58.998255 
L 73.678125 55.331467 
L 81.984375 43.673614 
L 90.290625 23.979588 
" clip-path="url(#p9c605bd8ec)" style="fill: none; stroke: #2e6e8e; stroke-width: 2; stroke-linecap: square"/>
    <defs>
     <path id="m33228792f7" d="M 0 2 
C 0.530406 2 1.03916 1.789267 1.414214 1.414214 
C 1.789267 1.03916 2 0.530406 2 0 
C 2 -0.530406 1.789267 -1.03916 1.414214 -1.414214 
C 1.03916 -1.789267 0.530406 -2 0 -2 
C -0.530406 -2 -1.03916 -1.789267 -1.414214 -1.414214 
C -1.789267 -1.03916 -2 -0.530406 -2 0 
C -2 0.530406 -1.789267 1.03916 -1.414214 1.414214 
C -1.03916 1.789267 -0.530406 2 0 2 
z
" style="stroke: #2e6e8e"/>
    </defs>
    <g clip-path="url(#p9c605bd8ec)">
     <use xlink:href="#m33228792f7" x="48.759375" y="62.731527" style="fill: #2e6e8e; stroke: #2e6e8e"/>
     <use xlink:href="#m33228792f7" x="57.065625" y="60.89717" style="fill: #2e6e8e; stroke: #2e6e8e"/>
     <use xlink:href="#m33228792f7" x="65.371875" y="58.998255" style="fill: #2e6e8e; stroke: #2e6e8e"/>
     <use xlink:href="#m33228792f7" x="73.678125" y="55.331467" style="fill: #2e6e8e; stroke: #2e6e8e"/>
     <use xlink:href="#m33228792f7" x="81.984375" y="43.673614" style="fill: #2e6e8e; stroke: #2e6e8e"/>
     <use xlink:href="#m33228792f7" x="90.290625" y="23.979588" style="fill: #2e6e8e; stroke: #2e6e8e"/>
    </g>
   </g>
   <g id="line2d_19">
    <path d="M 48.759375 67.628345 
L 57.065625 64.695269 
L 65.371875 64.248796 
L 73.678125 56.909904 
L 81.984375 54.973489 
L 90.290625 43.941086 
L 98.596875 20.687248 
" clip-path="url(#p9c605bd8ec)" style="fill: none; stroke: #277f8e; stroke-width: 2; stroke-linecap: square"/>
    <defs>
     <path id="mfbc85259a7" d="M 0 2 
C 0.530406 2 1.03916 1.789267 1.414214 1.414214 
C 1.789267 1.03916 2 0.530406 2 0 
C 2 -0.530406 1.789267 -1.03916 1.414214 -1.414214 
C 1.03916 -1.789267 0.530406 -2 0 -2 
C -0.530406 -2 -1.03916 -1.789267 -1.414214 -1.414214 
C -1.789267 -1.03916 -2 -0.530406 -2 0 
C -2 0.530406 -1.789267 1.03916 -1.414214 1.414214 
C -1.03916 1.789267 -0.530406 2 0 2 
z
" style="stroke: #277f8e"/>
    </defs>
    <g clip-path="url(#p9c605bd8ec)">
     <use xlink:href="#mfbc85259a7" x="48.759375" y="67.628345" style="fill: #277f8e; stroke: #277f8e"/>
     <use xlink:href="#mfbc85259a7" x="57.065625" y="64.695269" style="fill: #277f8e; stroke: #277f8e"/>
     <use xlink:href="#mfbc85259a7" x="65.371875" y="64.248796" style="fill: #277f8e; stroke: #277f8e"/>
     <use xlink:href="#mfbc85259a7" x="73.678125" y="56.909904" style="fill: #277f8e; stroke: #277f8e"/>
     <use xlink:href="#mfbc85259a7" x="81.984375" y="54.973489" style="fill: #277f8e; stroke: #277f8e"/>
     <use xlink:href="#mfbc85259a7" x="90.290625" y="43.941086" style="fill: #277f8e; stroke: #277f8e"/>
     <use xlink:href="#mfbc85259a7" x="98.596875" y="20.687248" style="fill: #277f8e; stroke: #277f8e"/>
    </g>
   </g>
   <g id="line2d_20">
    <path d="M 48.759375 72.617321 
L 57.065625 69.948211 
L 65.371875 67.426076 
L 73.678125 64.127301 
L 81.984375 60.351228 
L 90.290625 52.827785 
L 98.596875 42.76796 
L 106.903125 17.07 
" clip-path="url(#p9c605bd8ec)" style="fill: none; stroke: #21918c; stroke-width: 2; stroke-linecap: square"/>
    <defs>
     <path id="m5b918938a3" d="M 0 2 
C 0.530406 2 1.03916 1.789267 1.414214 1.414214 
C 1.789267 1.03916 2 0.530406 2 0 
C 2 -0.530406 1.789267 -1.03916 1.414214 -1.414214 
C 1.03916 -1.789267 0.530406 -2 0 -2 
C -0.530406 -2 -1.03916 -1.789267 -1.414214 -1.414214 
C -1.789267 -1.03916 -2 -0.530406 -2 0 
C -2 0.530406 -1.789267 1.03916 -1.414214 1.414214 
C -1.03916 1.789267 -0.530406 2 0 2 
z
" style="stroke: #21918c"/>
    </defs>
    <g clip-path="url(#p9c605bd8ec)">
     <use xlink:href="#m5b918938a3" x="48.759375" y="72.617321" style="fill: #21918c; stroke: #21918c"/>
     <use xlink:href="#m5b918938a3" x="57.065625" y="69.948211" style="fill: #21918c; stroke: #21918c"/>
     <use xlink:href="#m5b918938a3" x="65.371875" y="67.426076" style="fill: #21918c; stroke: #21918c"/>
     <use xlink:href="#m5b918938a3" x="73.678125" y="64.127301" style="fill: #21918c; stroke: #21918c"/>
     <use xlink:href="#m5b918938a3" x="81.984375" y="60.351228" style="fill: #21918c; stroke: #21918c"/>
     <use xlink:href="#m5b918938a3" x="90.290625" y="52.827785" style="fill: #21918c; stroke: #21918c"/>
     <use xlink:href="#m5b918938a3" x="98.596875" y="42.76796" style="fill: #21918c; stroke: #21918c"/>
     <use xlink:href="#m5b918938a3" x="106.903125" y="17.07" style="fill: #21918c; stroke: #21918c"/>
    </g>
   </g>
   <g id="line2d_21">
    <path d="M 48.759375 74.93467 
L 57.065625 71.107468 
L 65.371875 72.303265 
L 73.678125 66.08221 
L 81.984375 65.338893 
L 90.290625 66.033468 
L 98.596875 56.463791 
L 106.903125 44.524368 
L 115.209375 21.693103 
" clip-path="url(#p9c605bd8ec)" style="fill: none; stroke: #1fa187; stroke-width: 2; stroke-linecap: square"/>
    <defs>
     <path id="me3acbfffa9" d="M 0 2 
C 0.530406 2 1.03916 1.789267 1.414214 1.414214 
C 1.789267 1.03916 2 0.530406 2 0 
C 2 -0.530406 1.789267 -1.03916 1.414214 -1.414214 
C 1.03916 -1.789267 0.530406 -2 0 -2 
C -0.530406 -2 -1.03916 -1.789267 -1.414214 -1.414214 
C -1.789267 -1.03916 -2 -0.530406 -2 0 
C -2 0.530406 -1.789267 1.03916 -1.414214 1.414214 
C -1.03916 1.789267 -0.530406 2 0 2 
z
" style="stroke: #1fa187"/>
    </defs>
    <g clip-path="url(#p9c605bd8ec)">
     <use xlink:href="#me3acbfffa9" x="48.759375" y="74.93467" style="fill: #1fa187; stroke: #1fa187"/>
     <use xlink:href="#me3acbfffa9" x="57.065625" y="71.107468" style="fill: #1fa187; stroke: #1fa187"/>
     <use xlink:href="#me3acbfffa9" x="65.371875" y="72.303265" style="fill: #1fa187; stroke: #1fa187"/>
     <use xlink:href="#me3acbfffa9" x="73.678125" y="66.08221" style="fill: #1fa187; stroke: #1fa187"/>
     <use xlink:href="#me3acbfffa9" x="81.984375" y="65.338893" style="fill: #1fa187; stroke: #1fa187"/>
     <use xlink:href="#me3acbfffa9" x="90.290625" y="66.033468" style="fill: #1fa187; stroke: #1fa187"/>
     <use xlink:href="#me3acbfffa9" x="98.596875" y="56.463791" style="fill: #1fa187; stroke: #1fa187"/>
     <use xlink:href="#me3acbfffa9" x="106.903125" y="44.524368" style="fill: #1fa187; stroke: #1fa187"/>
     <use xlink:href="#me3acbfffa9" x="115.209375" y="21.693103" style="fill: #1fa187; stroke: #1fa187"/>
    </g>
   </g>
   <g id="line2d_22">
    <path d="M 48.759375 84.552146 
L 57.065625 85.275267 
L 65.371875 78.95748 
L 73.678125 81.554125 
L 81.984375 79.615733 
L 90.290625 78.354394 
L 98.596875 71.418258 
L 106.903125 58.943771 
L 115.209375 47.608875 
L 123.515625 17.090769 
" clip-path="url(#p9c605bd8ec)" style="fill: none; stroke: #2db27d; stroke-width: 2; stroke-linecap: square"/>
    <defs>
     <path id="m865fd5301b" d="M 0 2 
C 0.530406 2 1.03916 1.789267 1.414214 1.414214 
C 1.789267 1.03916 2 0.530406 2 0 
C 2 -0.530406 1.789267 -1.03916 1.414214 -1.414214 
C 1.03916 -1.789267 0.530406 -2 0 -2 
C -0.530406 -2 -1.03916 -1.789267 -1.414214 -1.414214 
C -1.789267 -1.03916 -2 -0.530406 -2 0 
C -2 0.530406 -1.789267 1.03916 -1.414214 1.414214 
C -1.03916 1.789267 -0.530406 2 0 2 
z
" style="stroke: #2db27d"/>
    </defs>
    <g clip-path="url(#p9c605bd8ec)">
     <use xlink:href="#m865fd5301b" x="48.759375" y="84.552146" style="fill: #2db27d; stroke: #2db27d"/>
     <use xlink:href="#m865fd5301b" x="57.065625" y="85.275267" style="fill: #2db27d; stroke: #2db27d"/>
     <use xlink:href="#m865fd5301b" x="65.371875" y="78.95748" style="fill: #2db27d; stroke: #2db27d"/>
     <use xlink:href="#m865fd5301b" x="73.678125" y="81.554125" style="fill: #2db27d; stroke: #2db27d"/>
     <use xlink:href="#m865fd5301b" x="81.984375" y="79.615733" style="fill: #2db27d; stroke: #2db27d"/>
     <use xlink:href="#m865fd5301b" x="90.290625" y="78.354394" style="fill: #2db27d; stroke: #2db27d"/>
     <use xlink:href="#m865fd5301b" x="98.596875" y="71.418258" style="fill: #2db27d; stroke: #2db27d"/>
     <use xlink:href="#m865fd5301b" x="106.903125" y="58.943771" style="fill: #2db27d; stroke: #2db27d"/>
     <use xlink:href="#m865fd5301b" x="115.209375" y="47.608875" style="fill: #2db27d; stroke: #2db27d"/>
     <use xlink:href="#m865fd5301b" x="123.515625" y="17.090769" style="fill: #2db27d; stroke: #2db27d"/>
    </g>
   </g>
   <g id="line2d_23">
    <path d="M 48.759375 75.930149 
L 57.065625 69.5458 
L 65.371875 71.696673 
L 73.678125 64.630252 
L 81.984375 63.392514 
L 90.290625 63.775072 
L 98.596875 61.02082 
L 106.903125 54.334618 
L 115.209375 47.698938 
L 123.515625 29.367022 
" clip-path="url(#p9c605bd8ec)" style="fill: none; stroke: #4ac16d; stroke-width: 2; stroke-linecap: square"/>
    <defs>
     <path id="m63924adfb5" d="M 0 2 
C 0.530406 2 1.03916 1.789267 1.414214 1.414214 
C 1.789267 1.03916 2 0.530406 2 0 
C 2 -0.530406 1.789267 -1.03916 1.414214 -1.414214 
C 1.03916 -1.789267 0.530406 -2 0 -2 
C -0.530406 -2 -1.03916 -1.789267 -1.414214 -1.414214 
C -1.789267 -1.03916 -2 -0.530406 -2 0 
C -2 0.530406 -1.789267 1.03916 -1.414214 1.414214 
C -1.03916 1.789267 -0.530406 2 0 2 
z
" style="stroke: #4ac16d"/>
    </defs>
    <g clip-path="url(#p9c605bd8ec)">
     <use xlink:href="#m63924adfb5" x="48.759375" y="75.930149" style="fill: #4ac16d; stroke: #4ac16d"/>
     <use xlink:href="#m63924adfb5" x="57.065625" y="69.5458" style="fill: #4ac16d; stroke: #4ac16d"/>
     <use xlink:href="#m63924adfb5" x="65.371875" y="71.696673" style="fill: #4ac16d; stroke: #4ac16d"/>
     <use xlink:href="#m63924adfb5" x="73.678125" y="64.630252" style="fill: #4ac16d; stroke: #4ac16d"/>
     <use xlink:href="#m63924adfb5" x="81.984375" y="63.392514" style="fill: #4ac16d; stroke: #4ac16d"/>
     <use xlink:href="#m63924adfb5" x="90.290625" y="63.775072" style="fill: #4ac16d; stroke: #4ac16d"/>
     <use xlink:href="#m63924adfb5" x="98.596875" y="61.02082" style="fill: #4ac16d; stroke: #4ac16d"/>
     <use xlink:href="#m63924adfb5" x="106.903125" y="54.334618" style="fill: #4ac16d; stroke: #4ac16d"/>
     <use xlink:href="#m63924adfb5" x="115.209375" y="47.698938" style="fill: #4ac16d; stroke: #4ac16d"/>
     <use xlink:href="#m63924adfb5" x="123.515625" y="29.367022" style="fill: #4ac16d; stroke: #4ac16d"/>
    </g>
   </g>
   <g id="line2d_24">
    <path d="M 48.759375 74.875087 
L 57.065625 68.717515 
L 65.371875 70.252453 
L 73.678125 69.716149 
L 81.984375 73.333505 
L 90.290625 67.342172 
L 98.596875 58.239371 
L 106.903125 65.029337 
L 115.209375 56.809749 
L 123.515625 50.722521 
" clip-path="url(#p9c605bd8ec)" style="fill: none; stroke: #73d056; stroke-width: 2; stroke-linecap: square"/>
    <defs>
     <path id="m29c35bb105" d="M 0 2 
C 0.530406 2 1.03916 1.789267 1.414214 1.414214 
C 1.789267 1.03916 2 0.530406 2 0 
C 2 -0.530406 1.789267 -1.03916 1.414214 -1.414214 
C 1.03916 -1.789267 0.530406 -2 0 -2 
C -0.530406 -2 -1.03916 -1.789267 -1.414214 -1.414214 
C -1.789267 -1.03916 -2 -0.530406 -2 0 
C -2 0.530406 -1.789267 1.03916 -1.414214 1.414214 
C -1.03916 1.789267 -0.530406 2 0 2 
z
" style="stroke: #73d056"/>
    </defs>
    <g clip-path="url(#p9c605bd8ec)">
     <use xlink:href="#m29c35bb105" x="48.759375" y="74.875087" style="fill: #73d056; stroke: #73d056"/>
     <use xlink:href="#m29c35bb105" x="57.065625" y="68.717515" style="fill: #73d056; stroke: #73d056"/>
     <use xlink:href="#m29c35bb105" x="65.371875" y="70.252453" style="fill: #73d056; stroke: #73d056"/>
     <use xlink:href="#m29c35bb105" x="73.678125" y="69.716149" style="fill: #73d056; stroke: #73d056"/>
     <use xlink:href="#m29c35bb105" x="81.984375" y="73.333505" style="fill: #73d056; stroke: #73d056"/>
     <use xlink:href="#m29c35bb105" x="90.290625" y="67.342172" style="fill: #73d056; stroke: #73d056"/>
     <use xlink:href="#m29c35bb105" x="98.596875" y="58.239371" style="fill: #73d056; stroke: #73d056"/>
     <use xlink:href="#m29c35bb105" x="106.903125" y="65.029337" style="fill: #73d056; stroke: #73d056"/>
     <use xlink:href="#m29c35bb105" x="115.209375" y="56.809749" style="fill: #73d056; stroke: #73d056"/>
     <use xlink:href="#m29c35bb105" x="123.515625" y="50.722521" style="fill: #73d056; stroke: #73d056"/>
    </g>
   </g>
   <g id="line2d_25">
    <path d="M 48.759375 90.789199 
L 57.065625 99.669086 
L 65.371875 103.993121 
L 73.678125 97.179515 
L 81.984375 93.729222 
L 90.290625 94.126179 
L 98.596875 98.950901 
L 106.903125 93.079515 
L 115.209375 85.772954 
L 123.515625 76.945742 
" clip-path="url(#p9c605bd8ec)" style="fill: none; stroke: #a0da39; stroke-width: 2; stroke-linecap: square"/>
    <defs>
     <path id="md77e119ee7" d="M 0 2 
C 0.530406 2 1.03916 1.789267 1.414214 1.414214 
C 1.789267 1.03916 2 0.530406 2 0 
C 2 -0.530406 1.789267 -1.03916 1.414214 -1.414214 
C 1.03916 -1.789267 0.530406 -2 0 -2 
C -0.530406 -2 -1.03916 -1.789267 -1.414214 -1.414214 
C -1.789267 -1.03916 -2 -0.530406 -2 0 
C -2 0.530406 -1.789267 1.03916 -1.414214 1.414214 
C -1.03916 1.789267 -0.530406 2 0 2 
z
" style="stroke: #a0da39"/>
    </defs>
    <g clip-path="url(#p9c605bd8ec)">
     <use xlink:href="#md77e119ee7" x="48.759375" y="90.789199" style="fill: #a0da39; stroke: #a0da39"/>
     <use xlink:href="#md77e119ee7" x="57.065625" y="99.669086" style="fill: #a0da39; stroke: #a0da39"/>
     <use xlink:href="#md77e119ee7" x="65.371875" y="103.993121" style="fill: #a0da39; stroke: #a0da39"/>
     <use xlink:href="#md77e119ee7" x="73.678125" y="97.179515" style="fill: #a0da39; stroke: #a0da39"/>
     <use xlink:href="#md77e119ee7" x="81.984375" y="93.729222" style="fill: #a0da39; stroke: #a0da39"/>
     <use xlink:href="#md77e119ee7" x="90.290625" y="94.126179" style="fill: #a0da39; stroke: #a0da39"/>
     <use xlink:href="#md77e119ee7" x="98.596875" y="98.950901" style="fill: #a0da39; stroke: #a0da39"/>
     <use xlink:href="#md77e119ee7" x="106.903125" y="93.079515" style="fill: #a0da39; stroke: #a0da39"/>
     <use xlink:href="#md77e119ee7" x="115.209375" y="85.772954" style="fill: #a0da39; stroke: #a0da39"/>
     <use xlink:href="#md77e119ee7" x="123.515625" y="76.945742" style="fill: #a0da39; stroke: #a0da39"/>
    </g>
   </g>
   <g id="line2d_26">
    <path d="M 48.759375 115.903643 
L 57.065625 125.998799 
L 65.371875 125.347145 
L 73.678125 114.30051 
L 81.984375 119.580914 
L 90.290625 112.462139 
L 98.596875 119.585619 
L 106.903125 105.264454 
L 115.209375 101.363817 
L 123.515625 98.834542 
" clip-path="url(#p9c605bd8ec)" style="fill: none; stroke: #d0e11c; stroke-width: 2; stroke-linecap: square"/>
    <defs>
     <path id="m44fbe32385" d="M 0 2 
C 0.530406 2 1.03916 1.789267 1.414214 1.414214 
C 1.789267 1.03916 2 0.530406 2 0 
C 2 -0.530406 1.789267 -1.03916 1.414214 -1.414214 
C 1.03916 -1.789267 0.530406 -2 0 -2 
C -0.530406 -2 -1.03916 -1.789267 -1.414214 -1.414214 
C -1.789267 -1.03916 -2 -0.530406 -2 0 
C -2 0.530406 -1.789267 1.03916 -1.414214 1.414214 
C -1.03916 1.789267 -0.530406 2 0 2 
z
" style="stroke: #d0e11c"/>
    </defs>
    <g clip-path="url(#p9c605bd8ec)">
     <use xlink:href="#m44fbe32385" x="48.759375" y="115.903643" style="fill: #d0e11c; stroke: #d0e11c"/>
     <use xlink:href="#m44fbe32385" x="57.065625" y="125.998799" style="fill: #d0e11c; stroke: #d0e11c"/>
     <use xlink:href="#m44fbe32385" x="65.371875" y="125.347145" style="fill: #d0e11c; stroke: #d0e11c"/>
     <use xlink:href="#m44fbe32385" x="73.678125" y="114.30051" style="fill: #d0e11c; stroke: #d0e11c"/>
     <use xlink:href="#m44fbe32385" x="81.984375" y="119.580914" style="fill: #d0e11c; stroke: #d0e11c"/>
     <use xlink:href="#m44fbe32385" x="90.290625" y="112.462139" style="fill: #d0e11c; stroke: #d0e11c"/>
     <use xlink:href="#m44fbe32385" x="98.596875" y="119.585619" style="fill: #d0e11c; stroke: #d0e11c"/>
     <use xlink:href="#m44fbe32385" x="106.903125" y="105.264454" style="fill: #d0e11c; stroke: #d0e11c"/>
     <use xlink:href="#m44fbe32385" x="115.209375" y="101.363817" style="fill: #d0e11c; stroke: #d0e11c"/>
     <use xlink:href="#m44fbe32385" x="123.515625" y="98.834542" style="fill: #d0e11c; stroke: #d0e11c"/>
    </g>
   </g>
   <g id="line2d_27">
    <path d="M 48.759375 142.47 
L 57.065625 126.570354 
L 65.371875 134.201892 
L 73.678125 114.619299 
L 81.984375 123.932564 
L 90.290625 122.612456 
L 98.596875 118.735906 
L 106.903125 117.272227 
L 115.209375 123.674254 
L 123.515625 113.923787 
" clip-path="url(#p9c605bd8ec)" style="fill: none; stroke: #fde725; stroke-width: 2; stroke-linecap: square"/>
    <defs>
     <path id="m6133b4def3" d="M 0 2 
C 0.530406 2 1.03916 1.789267 1.414214 1.414214 
C 1.789267 1.03916 2 0.530406 2 0 
C 2 -0.530406 1.789267 -1.03916 1.414214 -1.414214 
C 1.03916 -1.789267 0.530406 -2 0 -2 
C -0.530406 -2 -1.03916 -1.789267 -1.414214 -1.414214 
C -1.789267 -1.03916 -2 -0.530406 -2 0 
C -2 0.530406 -1.789267 1.03916 -1.414214 1.414214 
C -1.03916 1.789267 -0.530406 2 0 2 
z
" style="stroke: #fde725"/>
    </defs>
    <g clip-path="url(#p9c605bd8ec)">
     <use xlink:href="#m6133b4def3" x="48.759375" y="142.47" style="fill: #fde725; stroke: #fde725"/>
     <use xlink:href="#m6133b4def3" x="57.065625" y="126.570354" style="fill: #fde725; stroke: #fde725"/>
     <use xlink:href="#m6133b4def3" x="65.371875" y="134.201892" style="fill: #fde725; stroke: #fde725"/>
     <use xlink:href="#m6133b4def3" x="73.678125" y="114.619299" style="fill: #fde725; stroke: #fde725"/>
     <use xlink:href="#m6133b4def3" x="81.984375" y="123.932564" style="fill: #fde725; stroke: #fde725"/>
     <use xlink:href="#m6133b4def3" x="90.290625" y="122.612456" style="fill: #fde725; stroke: #fde725"/>
     <use xlink:href="#m6133b4def3" x="98.596875" y="118.735906" style="fill: #fde725; stroke: #fde725"/>
     <use xlink:href="#m6133b4def3" x="106.903125" y="117.272227" style="fill: #fde725; stroke: #fde725"/>
     <use xlink:href="#m6133b4def3" x="115.209375" y="123.674254" style="fill: #fde725; stroke: #fde725"/>
     <use xlink:href="#m6133b4def3" x="123.515625" y="113.923787" style="fill: #fde725; stroke: #fde725"/>
    </g>
   </g>
   <g id="patch_3">
    <path d="M 36.3 148.74 
L 36.3 10.8 
" style="fill: none; stroke: #000000; stroke-width: 0.75; stroke-linejoin: miter; stroke-linecap: square"/>
   </g>
   <g id="patch_4">
    <path d="M 36.3 148.74 
L 169.2 148.74 
" style="fill: none; stroke: #000000; stroke-width: 0.75; stroke-linejoin: miter; stroke-linecap: square"/>
   </g>
  </g>
 </g>
 <defs>
  <clipPath id="p9c605bd8ec">
   <rect x="36.3" y="10.8" width="132.9" height="137.94"/>
  </clipPath>
 </defs>
</svg>
