<?xml version="1.0" encoding="utf-8" standalone="no"?>
<!DOCTYPE svg PUBLIC "-//W3C//DTD SVG 1.1//EN"
  "http://www.w3.org/Graphics/SVG/1.1/DTD/svg11.dtd">
<svg xmlns:xlink="http://www.w3.org/1999/xlink" width="72pt" height="180pt" viewBox="0 0 72 180" xmlns="http://www.w3.org/2000/svg" version="1.1">
 <metadata>
  <rdf:RDF xmlns:dc="http://purl.org/dc/elements/1.1/" xmlns:cc="http://creativecommons.org/ns#" xmlns:rdf="http://www.w3.org/1999/02/22-rdf-syntax-ns#">
   <cc:Work>
    <dc:type rdf:resource="http://purl.org/dc/dcmitype/StillImage"/>
    <dc:date>2025-08-19T13:48:45.575272</dc:date>
    <dc:format>image/svg+xml</dc:format>
    <dc:creator>
     <cc:Agent>
      <dc:title>Matplotlib v3.10.0, https://matplotlib.org/</dc:title>
     </cc:Agent>
    </dc:creator>
   </cc:Work>
  </rdf:RDF>
 </metadata>
 <defs>
  <style type="text/css">*{stroke-linejoin: round; stroke-linecap: butt}</style>
 </defs>
 <g id="figure_1">
  <g id="patch_1">
   <path d="M 0 180 
L 72 180 
L 72 0 
L 0 0 
z
" style="fill: #ffffff"/>
  </g>
  <g id="axes_1"/>
  <g id="legend_1">
   <g id="line2d_1">
    <path d="M 4.025625 29.038125 
L 10.025625 29.038125 
L 16.025625 29.038125 
" style="fill: none; stroke: #440154; stroke-width: 2; stroke-linecap: square"/>
    <defs>
     <path id="mcaf1483c90" d="M 0 2 
C 0.530406 2 1.03916 1.789267 1.414214 1.414214 
C 1.789267 1.03916 2 0.530406 2 0 
C 2 -0.530406 1.789267 -1.03916 1.414214 -1.414214 
C 1.03916 -1.789267 0.530406 -2 0 -2 
C -0.530406 -2 -1.03916 -1.789267 -1.414214 -1.414214 
C -1.789267 -1.03916 -2 -0.530406 -2 0 
C -2 0.530406 -1.789267 1.03916 -1.414214 1.414214 
C -1.03916 1.789267 -0.530406 2 0 2 
z
" style="stroke: #440154"/>
    </defs>
    <g>
     <use xlink:href="#mcaf1483c90" x="10.025625" y="29.038125" style="fill: #440154; stroke: #440154"/>
    </g>
   </g>
   <g id="text_1">
    <!-- RT = 1 (n=59) -->
    <g transform="translate(20.825625 31.138125) scale(0.06 -0.06)">
     <defs>
      <path id="ArialMT-52" d="M 503 0 
L 503 4581 
L 2534 4581 
Q 3147 4581 3465 4457 
Q 3784 4334 3975 4021 
Q 4166 3709 4166 3331 
Q 4166 2844 3850 2509 
Q 3534 2175 2875 2084 
Q 3116 1969 3241 1856 
Q 3506 1613 3744 1247 
L 4541 0 
L 3778 0 
L 3172 953 
Q 2906 1366 2734 1584 
Q 2563 1803 2427 1890 
Q 2291 1978 2150 2013 
Q 2047 2034 1813 2034 
L 1109 2034 
L 1109 0 
L 503 0 
z
M 1109 2559 
L 2413 2559 
Q 2828 2559 3062 2645 
Q 3297 2731 3419 2920 
Q 3541 3109 3541 3331 
Q 3541 3656 3305 3865 
Q 3069 4075 2559 4075 
L 1109 4075 
L 1109 2559 
z
" transform="scale(0.015625)"/>
      <path id="ArialMT-54" d="M 1659 0 
L 1659 4041 
L 150 4041 
L 150 4581 
L 3781 4581 
L 3781 4041 
L 2266 4041 
L 2266 0 
L 1659 0 
z
" transform="scale(0.015625)"/>
      <path id="ArialMT-20" transform="scale(0.015625)"/>
      <path id="ArialMT-3d" d="M 3381 2694 
L 356 2694 
L 356 3219 
L 3381 3219 
L 3381 2694 
z
M 3381 1303 
L 356 1303 
L 356 1828 
L 3381 1828 
L 3381 1303 
z
" transform="scale(0.015625)"/>
      <path id="ArialMT-31" d="M 2384 0 
L 1822 0 
L 1822 3584 
Q 1619 3391 1289 3197 
Q 959 3003 697 2906 
L 697 3450 
Q 1169 3672 1522 3987 
Q 1875 4303 2022 4600 
L 2384 4600 
L 2384 0 
z
" transform="scale(0.015625)"/>
      <path id="ArialMT-28" d="M 1497 -1347 
Q 1031 -759 709 28 
Q 388 816 388 1659 
Q 388 2403 628 3084 
Q 909 3875 1497 4659 
L 1900 4659 
Q 1522 4009 1400 3731 
Q 1209 3300 1100 2831 
Q 966 2247 966 1656 
Q 966 153 1900 -1347 
L 1497 -1347 
z
" transform="scale(0.015625)"/>
      <path id="ArialMT-6e" d="M 422 0 
L 422 3319 
L 928 3319 
L 928 2847 
Q 1294 3394 1984 3394 
Q 2284 3394 2536 3286 
Q 2788 3178 2913 3003 
Q 3038 2828 3088 2588 
Q 3119 2431 3119 2041 
L 3119 0 
L 2556 0 
L 2556 2019 
Q 2556 2363 2490 2533 
Q 2425 2703 2258 2804 
Q 2091 2906 1866 2906 
Q 1506 2906 1245 2678 
Q 984 2450 984 1813 
L 984 0 
L 422 0 
z
" transform="scale(0.015625)"/>
      <path id="ArialMT-35" d="M 266 1200 
L 856 1250 
Q 922 819 1161 601 
Q 1400 384 1738 384 
Q 2144 384 2425 690 
Q 2706 997 2706 1503 
Q 2706 1984 2436 2262 
Q 2166 2541 1728 2541 
Q 1456 2541 1237 2417 
Q 1019 2294 894 2097 
L 366 2166 
L 809 4519 
L 3088 4519 
L 3088 3981 
L 1259 3981 
L 1013 2750 
Q 1425 3038 1878 3038 
Q 2478 3038 2890 2622 
Q 3303 2206 3303 1553 
Q 3303 931 2941 478 
Q 2500 -78 1738 -78 
Q 1113 -78 717 272 
Q 322 622 266 1200 
z
" transform="scale(0.015625)"/>
      <path id="ArialMT-39" d="M 350 1059 
L 891 1109 
Q 959 728 1153 556 
Q 1347 384 1650 384 
Q 1909 384 2104 503 
Q 2300 622 2425 820 
Q 2550 1019 2634 1356 
Q 2719 1694 2719 2044 
Q 2719 2081 2716 2156 
Q 2547 1888 2255 1720 
Q 1963 1553 1622 1553 
Q 1053 1553 659 1965 
Q 266 2378 266 3053 
Q 266 3750 677 4175 
Q 1088 4600 1706 4600 
Q 2153 4600 2523 4359 
Q 2894 4119 3086 3673 
Q 3278 3228 3278 2384 
Q 3278 1506 3087 986 
Q 2897 466 2520 194 
Q 2144 -78 1638 -78 
Q 1100 -78 759 220 
Q 419 519 350 1059 
z
M 2653 3081 
Q 2653 3566 2395 3850 
Q 2138 4134 1775 4134 
Q 1400 4134 1122 3828 
Q 844 3522 844 3034 
Q 844 2597 1108 2323 
Q 1372 2050 1759 2050 
Q 2150 2050 2401 2323 
Q 2653 2597 2653 3081 
z
" transform="scale(0.015625)"/>
      <path id="ArialMT-29" d="M 791 -1347 
L 388 -1347 
Q 1322 153 1322 1656 
Q 1322 2244 1188 2822 
Q 1081 3291 891 3722 
Q 769 4003 388 4659 
L 791 4659 
Q 1378 3875 1659 3084 
Q 1900 2403 1900 1659 
Q 1900 816 1576 28 
Q 1253 -759 791 -1347 
z
" transform="scale(0.015625)"/>
     </defs>
     <use xlink:href="#ArialMT-52"/>
     <use xlink:href="#ArialMT-54" transform="translate(70.466797 0)"/>
     <use xlink:href="#ArialMT-20" transform="translate(129.800781 0)"/>
     <use xlink:href="#ArialMT-3d" transform="translate(157.583984 0)"/>
     <use xlink:href="#ArialMT-20" transform="translate(215.982422 0)"/>
     <use xlink:href="#ArialMT-31" transform="translate(243.765625 0)"/>
     <use xlink:href="#ArialMT-20" transform="translate(299.380859 0)"/>
     <use xlink:href="#ArialMT-28" transform="translate(327.164062 0)"/>
     <use xlink:href="#ArialMT-6e" transform="translate(360.464844 0)"/>
     <use xlink:href="#ArialMT-3d" transform="translate(416.080078 0)"/>
     <use xlink:href="#ArialMT-35" transform="translate(474.478516 0)"/>
     <use xlink:href="#ArialMT-39" transform="translate(530.09375 0)"/>
     <use xlink:href="#ArialMT-29" transform="translate(585.708984 0)"/>
    </g>
   </g>
   <g id="line2d_2">
    <path d="M 4.025625 37.66875 
L 10.025625 37.66875 
L 16.025625 37.66875 
" style="fill: none; stroke: #481b6d; stroke-width: 2; stroke-linecap: square"/>
    <defs>
     <path id="m909fdd776c" d="M 0 2 
C 0.530406 2 1.03916 1.789267 1.414214 1.414214 
C 1.789267 1.03916 2 0.530406 2 0 
C 2 -0.530406 1.789267 -1.03916 1.414214 -1.414214 
C 1.03916 -1.789267 0.530406 -2 0 -2 
C -0.530406 -2 -1.03916 -1.789267 -1.414214 -1.414214 
C -1.789267 -1.03916 -2 -0.530406 -2 0 
C -2 0.530406 -1.789267 1.03916 -1.414214 1.414214 
C -1.03916 1.789267 -0.530406 2 0 2 
z
" style="stroke: #481b6d"/>
    </defs>
    <g>
     <use xlink:href="#m909fdd776c" x="10.025625" y="37.66875" style="fill: #481b6d; stroke: #481b6d"/>
    </g>
   </g>
   <g id="text_2">
    <!-- RT = 2 (n=1920) -->
    <g transform="translate(20.825625 39.76875) scale(0.06 -0.06)">
     <defs>
      <path id="ArialMT-32" d="M 3222 541 
L 3222 0 
L 194 0 
Q 188 203 259 391 
Q 375 700 629 1000 
Q 884 1300 1366 1694 
Q 2113 2306 2375 2664 
Q 2638 3022 2638 3341 
Q 2638 3675 2398 3904 
Q 2159 4134 1775 4134 
Q 1369 4134 1125 3890 
Q 881 3647 878 3216 
L 300 3275 
Q 359 3922 746 4261 
Q 1134 4600 1788 4600 
Q 2447 4600 2831 4234 
Q 3216 3869 3216 3328 
Q 3216 3053 3103 2787 
Q 2991 2522 2730 2228 
Q 2469 1934 1863 1422 
Q 1356 997 1212 845 
Q 1069 694 975 541 
L 3222 541 
z
" transform="scale(0.015625)"/>
      <path id="ArialMT-30" d="M 266 2259 
Q 266 3072 433 3567 
Q 600 4063 929 4331 
Q 1259 4600 1759 4600 
Q 2128 4600 2406 4451 
Q 2684 4303 2865 4023 
Q 3047 3744 3150 3342 
Q 3253 2941 3253 2259 
Q 3253 1453 3087 958 
Q 2922 463 2592 192 
Q 2263 -78 1759 -78 
Q 1097 -78 719 397 
Q 266 969 266 2259 
z
M 844 2259 
Q 844 1131 1108 757 
Q 1372 384 1759 384 
Q 2147 384 2411 759 
Q 2675 1134 2675 2259 
Q 2675 3391 2411 3762 
Q 2147 4134 1753 4134 
Q 1366 4134 1134 3806 
Q 844 3388 844 2259 
z
" transform="scale(0.015625)"/>
     </defs>
     <use xlink:href="#ArialMT-52"/>
     <use xlink:href="#ArialMT-54" transform="translate(70.466797 0)"/>
     <use xlink:href="#ArialMT-20" transform="translate(129.800781 0)"/>
     <use xlink:href="#ArialMT-3d" transform="translate(157.583984 0)"/>
     <use xlink:href="#ArialMT-20" transform="translate(215.982422 0)"/>
     <use xlink:href="#ArialMT-32" transform="translate(243.765625 0)"/>
     <use xlink:href="#ArialMT-20" transform="translate(299.380859 0)"/>
     <use xlink:href="#ArialMT-28" transform="translate(327.164062 0)"/>
     <use xlink:href="#ArialMT-6e" transform="translate(360.464844 0)"/>
     <use xlink:href="#ArialMT-3d" transform="translate(416.080078 0)"/>
     <use xlink:href="#ArialMT-31" transform="translate(474.478516 0)"/>
     <use xlink:href="#ArialMT-39" transform="translate(530.09375 0)"/>
     <use xlink:href="#ArialMT-32" transform="translate(585.708984 0)"/>
     <use xlink:href="#ArialMT-30" transform="translate(641.324219 0)"/>
     <use xlink:href="#ArialMT-29" transform="translate(696.939453 0)"/>
    </g>
   </g>
   <g id="line2d_3">
    <path d="M 4.025625 46.299375 
L 10.025625 46.299375 
L 16.025625 46.299375 
" style="fill: none; stroke: #46327e; stroke-width: 2; stroke-linecap: square"/>
    <defs>
     <path id="m6996063e0b" d="M 0 2 
C 0.530406 2 1.03916 1.789267 1.414214 1.414214 
C 1.789267 1.03916 2 0.530406 2 0 
C 2 -0.530406 1.789267 -1.03916 1.414214 -1.414214 
C 1.03916 -1.789267 0.530406 -2 0 -2 
C -0.530406 -2 -1.03916 -1.789267 -1.414214 -1.414214 
C -1.789267 -1.03916 -2 -0.530406 -2 0 
C -2 0.530406 -1.789267 1.03916 -1.414214 1.414214 
C -1.03916 1.789267 -0.530406 2 0 2 
z
" style="stroke: #46327e"/>
    </defs>
    <g>
     <use xlink:href="#m6996063e0b" x="10.025625" y="46.299375" style="fill: #46327e; stroke: #46327e"/>
    </g>
   </g>
   <g id="text_3">
    <!-- RT = 3 (n=6821) -->
    <g transform="translate(20.825625 48.399375) scale(0.06 -0.06)">
     <defs>
      <path id="ArialMT-33" d="M 269 1209 
L 831 1284 
Q 928 806 1161 595 
Q 1394 384 1728 384 
Q 2125 384 2398 659 
Q 2672 934 2672 1341 
Q 2672 1728 2419 1979 
Q 2166 2231 1775 2231 
Q 1616 2231 1378 2169 
L 1441 2663 
Q 1497 2656 1531 2656 
Q 1891 2656 2178 2843 
Q 2466 3031 2466 3422 
Q 2466 3731 2256 3934 
Q 2047 4138 1716 4138 
Q 1388 4138 1169 3931 
Q 950 3725 888 3313 
L 325 3413 
Q 428 3978 793 4289 
Q 1159 4600 1703 4600 
Q 2078 4600 2393 4439 
Q 2709 4278 2876 4000 
Q 3044 3722 3044 3409 
Q 3044 3113 2884 2869 
Q 2725 2625 2413 2481 
Q 2819 2388 3044 2092 
Q 3269 1797 3269 1353 
Q 3269 753 2831 336 
Q 2394 -81 1725 -81 
Q 1122 -81 723 278 
Q 325 638 269 1209 
z
" transform="scale(0.015625)"/>
      <path id="ArialMT-36" d="M 3184 3459 
L 2625 3416 
Q 2550 3747 2413 3897 
Q 2184 4138 1850 4138 
Q 1581 4138 1378 3988 
Q 1113 3794 959 3422 
Q 806 3050 800 2363 
Q 1003 2672 1297 2822 
Q 1591 2972 1913 2972 
Q 2475 2972 2870 2558 
Q 3266 2144 3266 1488 
Q 3266 1056 3080 686 
Q 2894 316 2569 119 
Q 2244 -78 1831 -78 
Q 1128 -78 684 439 
Q 241 956 241 2144 
Q 241 3472 731 4075 
Q 1159 4600 1884 4600 
Q 2425 4600 2770 4297 
Q 3116 3994 3184 3459 
z
M 888 1484 
Q 888 1194 1011 928 
Q 1134 663 1356 523 
Q 1578 384 1822 384 
Q 2178 384 2434 671 
Q 2691 959 2691 1453 
Q 2691 1928 2437 2201 
Q 2184 2475 1800 2475 
Q 1419 2475 1153 2201 
Q 888 1928 888 1484 
z
" transform="scale(0.015625)"/>
      <path id="ArialMT-38" d="M 1131 2484 
Q 781 2613 612 2850 
Q 444 3088 444 3419 
Q 444 3919 803 4259 
Q 1163 4600 1759 4600 
Q 2359 4600 2725 4251 
Q 3091 3903 3091 3403 
Q 3091 3084 2923 2848 
Q 2756 2613 2416 2484 
Q 2838 2347 3058 2040 
Q 3278 1734 3278 1309 
Q 3278 722 2862 322 
Q 2447 -78 1769 -78 
Q 1091 -78 675 323 
Q 259 725 259 1325 
Q 259 1772 486 2073 
Q 713 2375 1131 2484 
z
M 1019 3438 
Q 1019 3113 1228 2906 
Q 1438 2700 1772 2700 
Q 2097 2700 2305 2904 
Q 2513 3109 2513 3406 
Q 2513 3716 2298 3927 
Q 2084 4138 1766 4138 
Q 1444 4138 1231 3931 
Q 1019 3725 1019 3438 
z
M 838 1322 
Q 838 1081 952 856 
Q 1066 631 1291 507 
Q 1516 384 1775 384 
Q 2178 384 2440 643 
Q 2703 903 2703 1303 
Q 2703 1709 2433 1975 
Q 2163 2241 1756 2241 
Q 1359 2241 1098 1978 
Q 838 1716 838 1322 
z
" transform="scale(0.015625)"/>
     </defs>
     <use xlink:href="#ArialMT-52"/>
     <use xlink:href="#ArialMT-54" transform="translate(70.466797 0)"/>
     <use xlink:href="#ArialMT-20" transform="translate(129.800781 0)"/>
     <use xlink:href="#ArialMT-3d" transform="translate(157.583984 0)"/>
     <use xlink:href="#ArialMT-20" transform="translate(215.982422 0)"/>
     <use xlink:href="#ArialMT-33" transform="translate(243.765625 0)"/>
     <use xlink:href="#ArialMT-20" transform="translate(299.380859 0)"/>
     <use xlink:href="#ArialMT-28" transform="translate(327.164062 0)"/>
     <use xlink:href="#ArialMT-6e" transform="translate(360.464844 0)"/>
     <use xlink:href="#ArialMT-3d" transform="translate(416.080078 0)"/>
     <use xlink:href="#ArialMT-36" transform="translate(474.478516 0)"/>
     <use xlink:href="#ArialMT-38" transform="translate(530.09375 0)"/>
     <use xlink:href="#ArialMT-32" transform="translate(585.708984 0)"/>
     <use xlink:href="#ArialMT-31" transform="translate(641.324219 0)"/>
     <use xlink:href="#ArialMT-29" transform="translate(696.939453 0)"/>
    </g>
   </g>
   <g id="line2d_4">
    <path d="M 4.025625 54.93 
L 10.025625 54.93 
L 16.025625 54.93 
" style="fill: none; stroke: #3f4788; stroke-width: 2; stroke-linecap: square"/>
    <defs>
     <path id="mebb9303a0e" d="M 0 2 
C 0.530406 2 1.03916 1.789267 1.414214 1.414214 
C 1.789267 1.03916 2 0.530406 2 0 
C 2 -0.530406 1.789267 -1.03916 1.414214 -1.414214 
C 1.03916 -1.789267 0.530406 -2 0 -2 
C -0.530406 -2 -1.03916 -1.789267 -1.414214 -1.414214 
C -1.789267 -1.03916 -2 -0.530406 -2 0 
C -2 0.530406 -1.789267 1.03916 -1.414214 1.414214 
C -1.03916 1.789267 -0.530406 2 0 2 
z
" style="stroke: #3f4788"/>
    </defs>
    <g>
     <use xlink:href="#mebb9303a0e" x="10.025625" y="54.93" style="fill: #3f4788; stroke: #3f4788"/>
    </g>
   </g>
   <g id="text_4">
    <!-- RT = 4 (n=7680) -->
    <g transform="translate(20.825625 57.03) scale(0.06 -0.06)">
     <defs>
      <path id="ArialMT-34" d="M 2069 0 
L 2069 1097 
L 81 1097 
L 81 1613 
L 2172 4581 
L 2631 4581 
L 2631 1613 
L 3250 1613 
L 3250 1097 
L 2631 1097 
L 2631 0 
L 2069 0 
z
M 2069 1613 
L 2069 3678 
L 634 1613 
L 2069 1613 
z
" transform="scale(0.015625)"/>
      <path id="ArialMT-37" d="M 303 3981 
L 303 4522 
L 3269 4522 
L 3269 4084 
Q 2831 3619 2401 2847 
Q 1972 2075 1738 1259 
Q 1569 684 1522 0 
L 944 0 
Q 953 541 1156 1306 
Q 1359 2072 1739 2783 
Q 2119 3494 2547 3981 
L 303 3981 
z
" transform="scale(0.015625)"/>
     </defs>
     <use xlink:href="#ArialMT-52"/>
     <use xlink:href="#ArialMT-54" transform="translate(70.466797 0)"/>
     <use xlink:href="#ArialMT-20" transform="translate(129.800781 0)"/>
     <use xlink:href="#ArialMT-3d" transform="translate(157.583984 0)"/>
     <use xlink:href="#ArialMT-20" transform="translate(215.982422 0)"/>
     <use xlink:href="#ArialMT-34" transform="translate(243.765625 0)"/>
     <use xlink:href="#ArialMT-20" transform="translate(299.380859 0)"/>
     <use xlink:href="#ArialMT-28" transform="translate(327.164062 0)"/>
     <use xlink:href="#ArialMT-6e" transform="translate(360.464844 0)"/>
     <use xlink:href="#ArialMT-3d" transform="translate(416.080078 0)"/>
     <use xlink:href="#ArialMT-37" transform="translate(474.478516 0)"/>
     <use xlink:href="#ArialMT-36" transform="translate(530.09375 0)"/>
     <use xlink:href="#ArialMT-38" transform="translate(585.708984 0)"/>
     <use xlink:href="#ArialMT-30" transform="translate(641.324219 0)"/>
     <use xlink:href="#ArialMT-29" transform="translate(696.939453 0)"/>
    </g>
   </g>
   <g id="line2d_5">
    <path d="M 4.025625 63.560625 
L 10.025625 63.560625 
L 16.025625 63.560625 
" style="fill: none; stroke: #365c8d; stroke-width: 2; stroke-linecap: square"/>
    <defs>
     <path id="m74dbea3138" d="M 0 2 
C 0.530406 2 1.03916 1.789267 1.414214 1.414214 
C 1.789267 1.03916 2 0.530406 2 0 
C 2 -0.530406 1.789267 -1.03916 1.414214 -1.414214 
C 1.03916 -1.789267 0.530406 -2 0 -2 
C -0.530406 -2 -1.03916 -1.789267 -1.414214 -1.414214 
C -1.789267 -1.03916 -2 -0.530406 -2 0 
C -2 0.530406 -1.789267 1.03916 -1.414214 1.414214 
C -1.03916 1.789267 -0.530406 2 0 2 
z
" style="stroke: #365c8d"/>
    </defs>
    <g>
     <use xlink:href="#m74dbea3138" x="10.025625" y="63.560625" style="fill: #365c8d; stroke: #365c8d"/>
    </g>
   </g>
   <g id="text_5">
    <!-- RT = 5 (n=6866) -->
    <g transform="translate(20.825625 65.660625) scale(0.06 -0.06)">
     <use xlink:href="#ArialMT-52"/>
     <use xlink:href="#ArialMT-54" transform="translate(70.466797 0)"/>
     <use xlink:href="#ArialMT-20" transform="translate(129.800781 0)"/>
     <use xlink:href="#ArialMT-3d" transform="translate(157.583984 0)"/>
     <use xlink:href="#ArialMT-20" transform="translate(215.982422 0)"/>
     <use xlink:href="#ArialMT-35" transform="translate(243.765625 0)"/>
     <use xlink:href="#ArialMT-20" transform="translate(299.380859 0)"/>
     <use xlink:href="#ArialMT-28" transform="translate(327.164062 0)"/>
     <use xlink:href="#ArialMT-6e" transform="translate(360.464844 0)"/>
     <use xlink:href="#ArialMT-3d" transform="translate(416.080078 0)"/>
     <use xlink:href="#ArialMT-36" transform="translate(474.478516 0)"/>
     <use xlink:href="#ArialMT-38" transform="translate(530.09375 0)"/>
     <use xlink:href="#ArialMT-36" transform="translate(585.708984 0)"/>
     <use xlink:href="#ArialMT-36" transform="translate(641.324219 0)"/>
     <use xlink:href="#ArialMT-29" transform="translate(696.939453 0)"/>
    </g>
   </g>
   <g id="line2d_6">
    <path d="M 4.025625 72.19125 
L 10.025625 72.19125 
L 16.025625 72.19125 
" style="fill: none; stroke: #2e6e8e; stroke-width: 2; stroke-linecap: square"/>
    <defs>
     <path id="m6d586fa7e3" d="M 0 2 
C 0.530406 2 1.03916 1.789267 1.414214 1.414214 
C 1.789267 1.03916 2 0.530406 2 0 
C 2 -0.530406 1.789267 -1.03916 1.414214 -1.414214 
C 1.03916 -1.789267 0.530406 -2 0 -2 
C -0.530406 -2 -1.03916 -1.789267 -1.414214 -1.414214 
C -1.789267 -1.03916 -2 -0.530406 -2 0 
C -2 0.530406 -1.789267 1.03916 -1.414214 1.414214 
C -1.03916 1.789267 -0.530406 2 0 2 
z
" style="stroke: #2e6e8e"/>
    </defs>
    <g>
     <use xlink:href="#m6d586fa7e3" x="10.025625" y="72.19125" style="fill: #2e6e8e; stroke: #2e6e8e"/>
    </g>
   </g>
   <g id="text_6">
    <!-- RT = 6 (n=5572) -->
    <g transform="translate(20.825625 74.29125) scale(0.06 -0.06)">
     <use xlink:href="#ArialMT-52"/>
     <use xlink:href="#ArialMT-54" transform="translate(70.466797 0)"/>
     <use xlink:href="#ArialMT-20" transform="translate(129.800781 0)"/>
     <use xlink:href="#ArialMT-3d" transform="translate(157.583984 0)"/>
     <use xlink:href="#ArialMT-20" transform="translate(215.982422 0)"/>
     <use xlink:href="#ArialMT-36" transform="translate(243.765625 0)"/>
     <use xlink:href="#ArialMT-20" transform="translate(299.380859 0)"/>
     <use xlink:href="#ArialMT-28" transform="translate(327.164062 0)"/>
     <use xlink:href="#ArialMT-6e" transform="translate(360.464844 0)"/>
     <use xlink:href="#ArialMT-3d" transform="translate(416.080078 0)"/>
     <use xlink:href="#ArialMT-35" transform="translate(474.478516 0)"/>
     <use xlink:href="#ArialMT-35" transform="translate(530.09375 0)"/>
     <use xlink:href="#ArialMT-37" transform="translate(585.708984 0)"/>
     <use xlink:href="#ArialMT-32" transform="translate(641.324219 0)"/>
     <use xlink:href="#ArialMT-29" transform="translate(696.939453 0)"/>
    </g>
   </g>
   <g id="line2d_7">
    <path d="M 4.025625 80.821875 
L 10.025625 80.821875 
L 16.025625 80.821875 
" style="fill: none; stroke: #277f8e; stroke-width: 2; stroke-linecap: square"/>
    <defs>
     <path id="m29713474e9" d="M 0 2 
C 0.530406 2 1.03916 1.789267 1.414214 1.414214 
C 1.789267 1.03916 2 0.530406 2 0 
C 2 -0.530406 1.789267 -1.03916 1.414214 -1.414214 
C 1.03916 -1.789267 0.530406 -2 0 -2 
C -0.530406 -2 -1.03916 -1.789267 -1.414214 -1.414214 
C -1.789267 -1.03916 -2 -0.530406 -2 0 
C -2 0.530406 -1.789267 1.03916 -1.414214 1.414214 
C -1.03916 1.789267 -0.530406 2 0 2 
z
" style="stroke: #277f8e"/>
    </defs>
    <g>
     <use xlink:href="#m29713474e9" x="10.025625" y="80.821875" style="fill: #277f8e; stroke: #277f8e"/>
    </g>
   </g>
   <g id="text_7">
    <!-- RT = 7 (n=4424) -->
    <g transform="translate(20.825625 82.921875) scale(0.06 -0.06)">
     <use xlink:href="#ArialMT-52"/>
     <use xlink:href="#ArialMT-54" transform="translate(70.466797 0)"/>
     <use xlink:href="#ArialMT-20" transform="translate(129.800781 0)"/>
     <use xlink:href="#ArialMT-3d" transform="translate(157.583984 0)"/>
     <use xlink:href="#ArialMT-20" transform="translate(215.982422 0)"/>
     <use xlink:href="#ArialMT-37" transform="translate(243.765625 0)"/>
     <use xlink:href="#ArialMT-20" transform="translate(299.380859 0)"/>
     <use xlink:href="#ArialMT-28" transform="translate(327.164062 0)"/>
     <use xlink:href="#ArialMT-6e" transform="translate(360.464844 0)"/>
     <use xlink:href="#ArialMT-3d" transform="translate(416.080078 0)"/>
     <use xlink:href="#ArialMT-34" transform="translate(474.478516 0)"/>
     <use xlink:href="#ArialMT-34" transform="translate(530.09375 0)"/>
     <use xlink:href="#ArialMT-32" transform="translate(585.708984 0)"/>
     <use xlink:href="#ArialMT-34" transform="translate(641.324219 0)"/>
     <use xlink:href="#ArialMT-29" transform="translate(696.939453 0)"/>
    </g>
   </g>
   <g id="line2d_8">
    <path d="M 4.025625 89.4525 
L 10.025625 89.4525 
L 16.025625 89.4525 
" style="fill: none; stroke: #21918c; stroke-width: 2; stroke-linecap: square"/>
    <defs>
     <path id="mca1a6fbfdb" d="M 0 2 
C 0.530406 2 1.03916 1.789267 1.414214 1.414214 
C 1.789267 1.03916 2 0.530406 2 0 
C 2 -0.530406 1.789267 -1.03916 1.414214 -1.414214 
C 1.03916 -1.789267 0.530406 -2 0 -2 
C -0.530406 -2 -1.03916 -1.789267 -1.414214 -1.414214 
C -1.789267 -1.03916 -2 -0.530406 -2 0 
C -2 0.530406 -1.789267 1.03916 -1.414214 1.414214 
C -1.03916 1.789267 -0.530406 2 0 2 
z
" style="stroke: #21918c"/>
    </defs>
    <g>
     <use xlink:href="#mca1a6fbfdb" x="10.025625" y="89.4525" style="fill: #21918c; stroke: #21918c"/>
    </g>
   </g>
   <g id="text_8">
    <!-- RT = 8 (n=3566) -->
    <g transform="translate(20.825625 91.5525) scale(0.06 -0.06)">
     <use xlink:href="#ArialMT-52"/>
     <use xlink:href="#ArialMT-54" transform="translate(70.466797 0)"/>
     <use xlink:href="#ArialMT-20" transform="translate(129.800781 0)"/>
     <use xlink:href="#ArialMT-3d" transform="translate(157.583984 0)"/>
     <use xlink:href="#ArialMT-20" transform="translate(215.982422 0)"/>
     <use xlink:href="#ArialMT-38" transform="translate(243.765625 0)"/>
     <use xlink:href="#ArialMT-20" transform="translate(299.380859 0)"/>
     <use xlink:href="#ArialMT-28" transform="translate(327.164062 0)"/>
     <use xlink:href="#ArialMT-6e" transform="translate(360.464844 0)"/>
     <use xlink:href="#ArialMT-3d" transform="translate(416.080078 0)"/>
     <use xlink:href="#ArialMT-33" transform="translate(474.478516 0)"/>
     <use xlink:href="#ArialMT-35" transform="translate(530.09375 0)"/>
     <use xlink:href="#ArialMT-36" transform="translate(585.708984 0)"/>
     <use xlink:href="#ArialMT-36" transform="translate(641.324219 0)"/>
     <use xlink:href="#ArialMT-29" transform="translate(696.939453 0)"/>
    </g>
   </g>
   <g id="line2d_9">
    <path d="M 4.025625 98.083125 
L 10.025625 98.083125 
L 16.025625 98.083125 
" style="fill: none; stroke: #1fa187; stroke-width: 2; stroke-linecap: square"/>
    <defs>
     <path id="mdf63345f42" d="M 0 2 
C 0.530406 2 1.03916 1.789267 1.414214 1.414214 
C 1.789267 1.03916 2 0.530406 2 0 
C 2 -0.530406 1.789267 -1.03916 1.414214 -1.414214 
C 1.03916 -1.789267 0.530406 -2 0 -2 
C -0.530406 -2 -1.03916 -1.789267 -1.414214 -1.414214 
C -1.789267 -1.03916 -2 -0.530406 -2 0 
C -2 0.530406 -1.789267 1.03916 -1.414214 1.414214 
C -1.03916 1.789267 -0.530406 2 0 2 
z
" style="stroke: #1fa187"/>
    </defs>
    <g>
     <use xlink:href="#mdf63345f42" x="10.025625" y="98.083125" style="fill: #1fa187; stroke: #1fa187"/>
    </g>
   </g>
   <g id="text_9">
    <!-- RT = 9 (n=2814) -->
    <g transform="translate(20.825625 100.183125) scale(0.06 -0.06)">
     <use xlink:href="#ArialMT-52"/>
     <use xlink:href="#ArialMT-54" transform="translate(70.466797 0)"/>
     <use xlink:href="#ArialMT-20" transform="translate(129.800781 0)"/>
     <use xlink:href="#ArialMT-3d" transform="translate(157.583984 0)"/>
     <use xlink:href="#ArialMT-20" transform="translate(215.982422 0)"/>
     <use xlink:href="#ArialMT-39" transform="translate(243.765625 0)"/>
     <use xlink:href="#ArialMT-20" transform="translate(299.380859 0)"/>
     <use xlink:href="#ArialMT-28" transform="translate(327.164062 0)"/>
     <use xlink:href="#ArialMT-6e" transform="translate(360.464844 0)"/>
     <use xlink:href="#ArialMT-3d" transform="translate(416.080078 0)"/>
     <use xlink:href="#ArialMT-32" transform="translate(474.478516 0)"/>
     <use xlink:href="#ArialMT-38" transform="translate(530.09375 0)"/>
     <use xlink:href="#ArialMT-31" transform="translate(585.708984 0)"/>
     <use xlink:href="#ArialMT-34" transform="translate(641.324219 0)"/>
     <use xlink:href="#ArialMT-29" transform="translate(696.939453 0)"/>
    </g>
   </g>
   <g id="line2d_10">
    <path d="M 4.025625 106.71375 
L 10.025625 106.71375 
L 16.025625 106.71375 
" style="fill: none; stroke: #2db27d; stroke-width: 2; stroke-linecap: square"/>
    <defs>
     <path id="m0f4eff5a68" d="M 0 2 
C 0.530406 2 1.03916 1.789267 1.414214 1.414214 
C 1.789267 1.03916 2 0.530406 2 0 
C 2 -0.530406 1.789267 -1.03916 1.414214 -1.414214 
C 1.03916 -1.789267 0.530406 -2 0 -2 
C -0.530406 -2 -1.03916 -1.789267 -1.414214 -1.414214 
C -1.789267 -1.03916 -2 -0.530406 -2 0 
C -2 0.530406 -1.789267 1.03916 -1.414214 1.414214 
C -1.03916 1.789267 -0.530406 2 0 2 
z
" style="stroke: #2db27d"/>
    </defs>
    <g>
     <use xlink:href="#m0f4eff5a68" x="10.025625" y="106.71375" style="fill: #2db27d; stroke: #2db27d"/>
    </g>
   </g>
   <g id="text_10">
    <!-- RT = 10 (n=2134) -->
    <g transform="translate(20.825625 108.81375) scale(0.06 -0.06)">
     <use xlink:href="#ArialMT-52"/>
     <use xlink:href="#ArialMT-54" transform="translate(70.466797 0)"/>
     <use xlink:href="#ArialMT-20" transform="translate(129.800781 0)"/>
     <use xlink:href="#ArialMT-3d" transform="translate(157.583984 0)"/>
     <use xlink:href="#ArialMT-20" transform="translate(215.982422 0)"/>
     <use xlink:href="#ArialMT-31" transform="translate(243.765625 0)"/>
     <use xlink:href="#ArialMT-30" transform="translate(299.380859 0)"/>
     <use xlink:href="#ArialMT-20" transform="translate(354.996094 0)"/>
     <use xlink:href="#ArialMT-28" transform="translate(382.779297 0)"/>
     <use xlink:href="#ArialMT-6e" transform="translate(416.080078 0)"/>
     <use xlink:href="#ArialMT-3d" transform="translate(471.695312 0)"/>
     <use xlink:href="#ArialMT-32" transform="translate(530.09375 0)"/>
     <use xlink:href="#ArialMT-31" transform="translate(585.708984 0)"/>
     <use xlink:href="#ArialMT-33" transform="translate(641.324219 0)"/>
     <use xlink:href="#ArialMT-34" transform="translate(696.939453 0)"/>
     <use xlink:href="#ArialMT-29" transform="translate(752.554688 0)"/>
    </g>
   </g>
   <g id="line2d_11">
    <path d="M 4.025625 115.344375 
L 10.025625 115.344375 
L 16.025625 115.344375 
" style="fill: none; stroke: #4ac16d; stroke-width: 2; stroke-linecap: square"/>
    <defs>
     <path id="m9f14f46654" d="M 0 2 
C 0.530406 2 1.03916 1.789267 1.414214 1.414214 
C 1.789267 1.03916 2 0.530406 2 0 
C 2 -0.530406 1.789267 -1.03916 1.414214 -1.414214 
C 1.03916 -1.789267 0.530406 -2 0 -2 
C -0.530406 -2 -1.03916 -1.789267 -1.414214 -1.414214 
C -1.789267 -1.03916 -2 -0.530406 -2 0 
C -2 0.530406 -1.789267 1.03916 -1.414214 1.414214 
C -1.03916 1.789267 -0.530406 2 0 2 
z
" style="stroke: #4ac16d"/>
    </defs>
    <g>
     <use xlink:href="#m9f14f46654" x="10.025625" y="115.344375" style="fill: #4ac16d; stroke: #4ac16d"/>
    </g>
   </g>
   <g id="text_11">
    <!-- RT = 11 (n=1789) -->
    <g transform="translate(20.825625 117.444375) scale(0.06 -0.06)">
     <use xlink:href="#ArialMT-52"/>
     <use xlink:href="#ArialMT-54" transform="translate(70.466797 0)"/>
     <use xlink:href="#ArialMT-20" transform="translate(129.800781 0)"/>
     <use xlink:href="#ArialMT-3d" transform="translate(157.583984 0)"/>
     <use xlink:href="#ArialMT-20" transform="translate(215.982422 0)"/>
     <use xlink:href="#ArialMT-31" transform="translate(243.765625 0)"/>
     <use xlink:href="#ArialMT-31" transform="translate(292.005859 0)"/>
     <use xlink:href="#ArialMT-20" transform="translate(347.621094 0)"/>
     <use xlink:href="#ArialMT-28" transform="translate(375.404297 0)"/>
     <use xlink:href="#ArialMT-6e" transform="translate(408.705078 0)"/>
     <use xlink:href="#ArialMT-3d" transform="translate(464.320312 0)"/>
     <use xlink:href="#ArialMT-31" transform="translate(522.71875 0)"/>
     <use xlink:href="#ArialMT-37" transform="translate(578.333984 0)"/>
     <use xlink:href="#ArialMT-38" transform="translate(633.949219 0)"/>
     <use xlink:href="#ArialMT-39" transform="translate(689.564453 0)"/>
     <use xlink:href="#ArialMT-29" transform="translate(745.179688 0)"/>
    </g>
   </g>
   <g id="line2d_12">
    <path d="M 4.025625 123.975 
L 10.025625 123.975 
L 16.025625 123.975 
" style="fill: none; stroke: #73d056; stroke-width: 2; stroke-linecap: square"/>
    <defs>
     <path id="ma6090cf03d" d="M 0 2 
C 0.530406 2 1.03916 1.789267 1.414214 1.414214 
C 1.789267 1.03916 2 0.530406 2 0 
C 2 -0.530406 1.789267 -1.03916 1.414214 -1.414214 
C 1.03916 -1.789267 0.530406 -2 0 -2 
C -0.530406 -2 -1.03916 -1.789267 -1.414214 -1.414214 
C -1.789267 -1.03916 -2 -0.530406 -2 0 
C -2 0.530406 -1.789267 1.03916 -1.414214 1.414214 
C -1.03916 1.789267 -0.530406 2 0 2 
z
" style="stroke: #73d056"/>
    </defs>
    <g>
     <use xlink:href="#ma6090cf03d" x="10.025625" y="123.975" style="fill: #73d056; stroke: #73d056"/>
    </g>
   </g>
   <g id="text_12">
    <!-- RT = 12 (n=1360) -->
    <g transform="translate(20.825625 126.075) scale(0.06 -0.06)">
     <use xlink:href="#ArialMT-52"/>
     <use xlink:href="#ArialMT-54" transform="translate(70.466797 0)"/>
     <use xlink:href="#ArialMT-20" transform="translate(129.800781 0)"/>
     <use xlink:href="#ArialMT-3d" transform="translate(157.583984 0)"/>
     <use xlink:href="#ArialMT-20" transform="translate(215.982422 0)"/>
     <use xlink:href="#ArialMT-31" transform="translate(243.765625 0)"/>
     <use xlink:href="#ArialMT-32" transform="translate(299.380859 0)"/>
     <use xlink:href="#ArialMT-20" transform="translate(354.996094 0)"/>
     <use xlink:href="#ArialMT-28" transform="translate(382.779297 0)"/>
     <use xlink:href="#ArialMT-6e" transform="translate(416.080078 0)"/>
     <use xlink:href="#ArialMT-3d" transform="translate(471.695312 0)"/>
     <use xlink:href="#ArialMT-31" transform="translate(530.09375 0)"/>
     <use xlink:href="#ArialMT-33" transform="translate(585.708984 0)"/>
     <use xlink:href="#ArialMT-36" transform="translate(641.324219 0)"/>
     <use xlink:href="#ArialMT-30" transform="translate(696.939453 0)"/>
     <use xlink:href="#ArialMT-29" transform="translate(752.554688 0)"/>
    </g>
   </g>
   <g id="line2d_13">
    <path d="M 4.025625 132.605625 
L 10.025625 132.605625 
L 16.025625 132.605625 
" style="fill: none; stroke: #a0da39; stroke-width: 2; stroke-linecap: square"/>
    <defs>
     <path id="md04c1b1d65" d="M 0 2 
C 0.530406 2 1.03916 1.789267 1.414214 1.414214 
C 1.789267 1.03916 2 0.530406 2 0 
C 2 -0.530406 1.789267 -1.03916 1.414214 -1.414214 
C 1.03916 -1.789267 0.530406 -2 0 -2 
C -0.530406 -2 -1.03916 -1.789267 -1.414214 -1.414214 
C -1.789267 -1.03916 -2 -0.530406 -2 0 
C -2 0.530406 -1.789267 1.03916 -1.414214 1.414214 
C -1.03916 1.789267 -0.530406 2 0 2 
z
" style="stroke: #a0da39"/>
    </defs>
    <g>
     <use xlink:href="#md04c1b1d65" x="10.025625" y="132.605625" style="fill: #a0da39; stroke: #a0da39"/>
    </g>
   </g>
   <g id="text_13">
    <!-- RT = 13 (n=1107) -->
    <g transform="translate(20.825625 134.705625) scale(0.06 -0.06)">
     <use xlink:href="#ArialMT-52"/>
     <use xlink:href="#ArialMT-54" transform="translate(70.466797 0)"/>
     <use xlink:href="#ArialMT-20" transform="translate(129.800781 0)"/>
     <use xlink:href="#ArialMT-3d" transform="translate(157.583984 0)"/>
     <use xlink:href="#ArialMT-20" transform="translate(215.982422 0)"/>
     <use xlink:href="#ArialMT-31" transform="translate(243.765625 0)"/>
     <use xlink:href="#ArialMT-33" transform="translate(299.380859 0)"/>
     <use xlink:href="#ArialMT-20" transform="translate(354.996094 0)"/>
     <use xlink:href="#ArialMT-28" transform="translate(382.779297 0)"/>
     <use xlink:href="#ArialMT-6e" transform="translate(416.080078 0)"/>
     <use xlink:href="#ArialMT-3d" transform="translate(471.695312 0)"/>
     <use xlink:href="#ArialMT-31" transform="translate(530.09375 0)"/>
     <use xlink:href="#ArialMT-31" transform="translate(578.333984 0)"/>
     <use xlink:href="#ArialMT-30" transform="translate(633.949219 0)"/>
     <use xlink:href="#ArialMT-37" transform="translate(689.564453 0)"/>
     <use xlink:href="#ArialMT-29" transform="translate(745.179688 0)"/>
    </g>
   </g>
   <g id="line2d_14">
    <path d="M 4.025625 141.23625 
L 10.025625 141.23625 
L 16.025625 141.23625 
" style="fill: none; stroke: #d0e11c; stroke-width: 2; stroke-linecap: square"/>
    <defs>
     <path id="m305f6192cb" d="M 0 2 
C 0.530406 2 1.03916 1.789267 1.414214 1.414214 
C 1.789267 1.03916 2 0.530406 2 0 
C 2 -0.530406 1.789267 -1.03916 1.414214 -1.414214 
C 1.03916 -1.789267 0.530406 -2 0 -2 
C -0.530406 -2 -1.03916 -1.789267 -1.414214 -1.414214 
C -1.789267 -1.03916 -2 -0.530406 -2 0 
C -2 0.530406 -1.789267 1.03916 -1.414214 1.414214 
C -1.03916 1.789267 -0.530406 2 0 2 
z
" style="stroke: #d0e11c"/>
    </defs>
    <g>
     <use xlink:href="#m305f6192cb" x="10.025625" y="141.23625" style="fill: #d0e11c; stroke: #d0e11c"/>
    </g>
   </g>
   <g id="text_14">
    <!-- RT = 14 (n=871) -->
    <g transform="translate(20.825625 143.33625) scale(0.06 -0.06)">
     <use xlink:href="#ArialMT-52"/>
     <use xlink:href="#ArialMT-54" transform="translate(70.466797 0)"/>
     <use xlink:href="#ArialMT-20" transform="translate(129.800781 0)"/>
     <use xlink:href="#ArialMT-3d" transform="translate(157.583984 0)"/>
     <use xlink:href="#ArialMT-20" transform="translate(215.982422 0)"/>
     <use xlink:href="#ArialMT-31" transform="translate(243.765625 0)"/>
     <use xlink:href="#ArialMT-34" transform="translate(299.380859 0)"/>
     <use xlink:href="#ArialMT-20" transform="translate(354.996094 0)"/>
     <use xlink:href="#ArialMT-28" transform="translate(382.779297 0)"/>
     <use xlink:href="#ArialMT-6e" transform="translate(416.080078 0)"/>
     <use xlink:href="#ArialMT-3d" transform="translate(471.695312 0)"/>
     <use xlink:href="#ArialMT-38" transform="translate(530.09375 0)"/>
     <use xlink:href="#ArialMT-37" transform="translate(585.708984 0)"/>
     <use xlink:href="#ArialMT-31" transform="translate(641.324219 0)"/>
     <use xlink:href="#ArialMT-29" transform="translate(696.939453 0)"/>
    </g>
   </g>
   <g id="line2d_15">
    <path d="M 4.025625 149.866875 
L 10.025625 149.866875 
L 16.025625 149.866875 
" style="fill: none; stroke: #fde725; stroke-width: 2; stroke-linecap: square"/>
    <defs>
     <path id="mca119d0ecb" d="M 0 2 
C 0.530406 2 1.03916 1.789267 1.414214 1.414214 
C 1.789267 1.03916 2 0.530406 2 0 
C 2 -0.530406 1.789267 -1.03916 1.414214 -1.414214 
C 1.03916 -1.789267 0.530406 -2 0 -2 
C -0.530406 -2 -1.03916 -1.789267 -1.414214 -1.414214 
C -1.789267 -1.03916 -2 -0.530406 -2 0 
C -2 0.530406 -1.789267 1.03916 -1.414214 1.414214 
C -1.03916 1.789267 -0.530406 2 0 2 
z
" style="stroke: #fde725"/>
    </defs>
    <g>
     <use xlink:href="#mca119d0ecb" x="10.025625" y="149.866875" style="fill: #fde725; stroke: #fde725"/>
    </g>
   </g>
   <g id="text_15">
    <!-- RT = 15 (n=629) -->
    <g transform="translate(20.825625 151.966875) scale(0.06 -0.06)">
     <use xlink:href="#ArialMT-52"/>
     <use xlink:href="#ArialMT-54" transform="translate(70.466797 0)"/>
     <use xlink:href="#ArialMT-20" transform="translate(129.800781 0)"/>
     <use xlink:href="#ArialMT-3d" transform="translate(157.583984 0)"/>
     <use xlink:href="#ArialMT-20" transform="translate(215.982422 0)"/>
     <use xlink:href="#ArialMT-31" transform="translate(243.765625 0)"/>
     <use xlink:href="#ArialMT-35" transform="translate(299.380859 0)"/>
     <use xlink:href="#ArialMT-20" transform="translate(354.996094 0)"/>
     <use xlink:href="#ArialMT-28" transform="translate(382.779297 0)"/>
     <use xlink:href="#ArialMT-6e" transform="translate(416.080078 0)"/>
     <use xlink:href="#ArialMT-3d" transform="translate(471.695312 0)"/>
     <use xlink:href="#ArialMT-36" transform="translate(530.09375 0)"/>
     <use xlink:href="#ArialMT-32" transform="translate(585.708984 0)"/>
     <use xlink:href="#ArialMT-39" transform="translate(641.324219 0)"/>
     <use xlink:href="#ArialMT-29" transform="translate(696.939453 0)"/>
    </g>
   </g>
  </g>
 </g>
</svg>
