<?xml version="1.0" encoding="utf-8" standalone="no"?>
<!DOCTYPE svg PUBLIC "-//W3C//DTD SVG 1.1//EN"
  "http://www.w3.org/Graphics/SVG/1.1/DTD/svg11.dtd">
<svg xmlns:xlink="http://www.w3.org/1999/xlink" width="180pt" height="180pt" viewBox="0 0 180 180" xmlns="http://www.w3.org/2000/svg" version="1.1">
 <metadata>
  <rdf:RDF xmlns:dc="http://purl.org/dc/elements/1.1/" xmlns:cc="http://creativecommons.org/ns#" xmlns:rdf="http://www.w3.org/1999/02/22-rdf-syntax-ns#">
   <cc:Work>
    <dc:type rdf:resource="http://purl.org/dc/dcmitype/StillImage"/>
    <dc:date>2025-08-06T12:04:01.990852</dc:date>
    <dc:format>image/svg+xml</dc:format>
    <dc:creator>
     <cc:Agent>
      <dc:title>Matplotlib v3.10.0, https://matplotlib.org/</dc:title>
     </cc:Agent>
    </dc:creator>
   </cc:Work>
  </rdf:RDF>
 </metadata>
 <defs>
  <style type="text/css">*{stroke-linejoin: round; stroke-linecap: butt}</style>
 </defs>
 <g id="figure_1">
  <g id="patch_1">
   <path d="M 0 180 
L 180 180 
L 180 0 
L 0 0 
z
" style="fill: #ffffff"/>
  </g>
  <g id="axes_1">
   <g id="patch_2">
    <path d="M 32.52 148.74 
L 169.2 148.74 
L 169.2 10.8 
L 32.52 10.8 
z
" style="fill: #ffffff"/>
   </g>
   <g id="matplotlib.axis_1">
    <g id="xtick_1">
     <g id="line2d_1">
      <defs>
       <path id="mb0c0b082f2" d="M 0 0 
L 0 -2 
" style="stroke: #000000; stroke-width: 0.5"/>
      </defs>
      <g>
       <use xlink:href="#mb0c0b082f2" x="36.79125" y="148.74" style="stroke: #000000; stroke-width: 0.5"/>
      </g>
     </g>
     <g id="text_1">
      <!-- 0 -->
      <g transform="translate(34.844922 157.250469) scale(0.07 -0.07)">
       <defs>
        <path id="ArialMT-30" d="M 266 2259 
Q 266 3072 433 3567 
Q 600 4063 929 4331 
Q 1259 4600 1759 4600 
Q 2128 4600 2406 4451 
Q 2684 4303 2865 4023 
Q 3047 3744 3150 3342 
Q 3253 2941 3253 2259 
Q 3253 1453 3087 958 
Q 2922 463 2592 192 
Q 2263 -78 1759 -78 
Q 1097 -78 719 397 
Q 266 969 266 2259 
z
M 844 2259 
Q 844 1131 1108 757 
Q 1372 384 1759 384 
Q 2147 384 2411 759 
Q 2675 1134 2675 2259 
Q 2675 3391 2411 3762 
Q 2147 4134 1753 4134 
Q 1366 4134 1134 3806 
Q 844 3388 844 2259 
z
" transform="scale(0.015625)"/>
       </defs>
       <use xlink:href="#ArialMT-30"/>
      </g>
     </g>
    </g>
    <g id="xtick_2">
     <g id="line2d_2">
      <g>
       <use xlink:href="#mb0c0b082f2" x="79.50375" y="148.74" style="stroke: #000000; stroke-width: 0.5"/>
      </g>
     </g>
     <g id="text_2">
      <!-- 5 -->
      <g transform="translate(77.557422 157.250469) scale(0.07 -0.07)">
       <defs>
        <path id="ArialMT-35" d="M 266 1200 
L 856 1250 
Q 922 819 1161 601 
Q 1400 384 1738 384 
Q 2144 384 2425 690 
Q 2706 997 2706 1503 
Q 2706 1984 2436 2262 
Q 2166 2541 1728 2541 
Q 1456 2541 1237 2417 
Q 1019 2294 894 2097 
L 366 2166 
L 809 4519 
L 3088 4519 
L 3088 3981 
L 1259 3981 
L 1013 2750 
Q 1425 3038 1878 3038 
Q 2478 3038 2890 2622 
Q 3303 2206 3303 1553 
Q 3303 931 2941 478 
Q 2500 -78 1738 -78 
Q 1113 -78 717 272 
Q 322 622 266 1200 
z
" transform="scale(0.015625)"/>
       </defs>
       <use xlink:href="#ArialMT-35"/>
      </g>
     </g>
    </g>
    <g id="xtick_3">
     <g id="line2d_3">
      <g>
       <use xlink:href="#mb0c0b082f2" x="122.21625" y="148.74" style="stroke: #000000; stroke-width: 0.5"/>
      </g>
     </g>
     <g id="text_3">
      <!-- 10 -->
      <g transform="translate(118.323594 157.250469) scale(0.07 -0.07)">
       <defs>
        <path id="ArialMT-31" d="M 2384 0 
L 1822 0 
L 1822 3584 
Q 1619 3391 1289 3197 
Q 959 3003 697 2906 
L 697 3450 
Q 1169 3672 1522 3987 
Q 1875 4303 2022 4600 
L 2384 4600 
L 2384 0 
z
" transform="scale(0.015625)"/>
       </defs>
       <use xlink:href="#ArialMT-31"/>
       <use xlink:href="#ArialMT-30" transform="translate(55.615234 0)"/>
      </g>
     </g>
    </g>
    <g id="xtick_4">
     <g id="line2d_4">
      <g>
       <use xlink:href="#mb0c0b082f2" x="164.92875" y="148.74" style="stroke: #000000; stroke-width: 0.5"/>
      </g>
     </g>
     <g id="text_4">
      <!-- 15 -->
      <g transform="translate(161.036094 157.250469) scale(0.07 -0.07)">
       <use xlink:href="#ArialMT-31"/>
       <use xlink:href="#ArialMT-35" transform="translate(55.615234 0)"/>
      </g>
     </g>
    </g>
    <g id="text_5">
     <!-- Timesteps -->
     <g transform="translate(84.849141 167.652187) scale(0.07 -0.07)">
      <defs>
       <path id="ArialMT-54" d="M 1659 0 
L 1659 4041 
L 150 4041 
L 150 4581 
L 3781 4581 
L 3781 4041 
L 2266 4041 
L 2266 0 
L 1659 0 
z
" transform="scale(0.015625)"/>
       <path id="ArialMT-69" d="M 425 3934 
L 425 4581 
L 988 4581 
L 988 3934 
L 425 3934 
z
M 425 0 
L 425 3319 
L 988 3319 
L 988 0 
L 425 0 
z
" transform="scale(0.015625)"/>
       <path id="ArialMT-6d" d="M 422 0 
L 422 3319 
L 925 3319 
L 925 2853 
Q 1081 3097 1340 3245 
Q 1600 3394 1931 3394 
Q 2300 3394 2536 3241 
Q 2772 3088 2869 2813 
Q 3263 3394 3894 3394 
Q 4388 3394 4653 3120 
Q 4919 2847 4919 2278 
L 4919 0 
L 4359 0 
L 4359 2091 
Q 4359 2428 4304 2576 
Q 4250 2725 4106 2815 
Q 3963 2906 3769 2906 
Q 3419 2906 3187 2673 
Q 2956 2441 2956 1928 
L 2956 0 
L 2394 0 
L 2394 2156 
Q 2394 2531 2256 2718 
Q 2119 2906 1806 2906 
Q 1569 2906 1367 2781 
Q 1166 2656 1075 2415 
Q 984 2175 984 1722 
L 984 0 
L 422 0 
z
" transform="scale(0.015625)"/>
       <path id="ArialMT-65" d="M 2694 1069 
L 3275 997 
Q 3138 488 2766 206 
Q 2394 -75 1816 -75 
Q 1088 -75 661 373 
Q 234 822 234 1631 
Q 234 2469 665 2931 
Q 1097 3394 1784 3394 
Q 2450 3394 2872 2941 
Q 3294 2488 3294 1666 
Q 3294 1616 3291 1516 
L 816 1516 
Q 847 969 1125 678 
Q 1403 388 1819 388 
Q 2128 388 2347 550 
Q 2566 713 2694 1069 
z
M 847 1978 
L 2700 1978 
Q 2663 2397 2488 2606 
Q 2219 2931 1791 2931 
Q 1403 2931 1139 2672 
Q 875 2413 847 1978 
z
" transform="scale(0.015625)"/>
       <path id="ArialMT-73" d="M 197 991 
L 753 1078 
Q 800 744 1014 566 
Q 1228 388 1613 388 
Q 2000 388 2187 545 
Q 2375 703 2375 916 
Q 2375 1106 2209 1216 
Q 2094 1291 1634 1406 
Q 1016 1563 777 1677 
Q 538 1791 414 1992 
Q 291 2194 291 2438 
Q 291 2659 392 2848 
Q 494 3038 669 3163 
Q 800 3259 1026 3326 
Q 1253 3394 1513 3394 
Q 1903 3394 2198 3281 
Q 2494 3169 2634 2976 
Q 2775 2784 2828 2463 
L 2278 2388 
Q 2241 2644 2061 2787 
Q 1881 2931 1553 2931 
Q 1166 2931 1000 2803 
Q 834 2675 834 2503 
Q 834 2394 903 2306 
Q 972 2216 1119 2156 
Q 1203 2125 1616 2013 
Q 2213 1853 2448 1751 
Q 2684 1650 2818 1456 
Q 2953 1263 2953 975 
Q 2953 694 2789 445 
Q 2625 197 2315 61 
Q 2006 -75 1616 -75 
Q 969 -75 630 194 
Q 291 463 197 991 
z
" transform="scale(0.015625)"/>
       <path id="ArialMT-74" d="M 1650 503 
L 1731 6 
Q 1494 -44 1306 -44 
Q 1000 -44 831 53 
Q 663 150 594 308 
Q 525 466 525 972 
L 525 2881 
L 113 2881 
L 113 3319 
L 525 3319 
L 525 4141 
L 1084 4478 
L 1084 3319 
L 1650 3319 
L 1650 2881 
L 1084 2881 
L 1084 941 
Q 1084 700 1114 631 
Q 1144 563 1211 522 
Q 1278 481 1403 481 
Q 1497 481 1650 503 
z
" transform="scale(0.015625)"/>
       <path id="ArialMT-70" d="M 422 -1272 
L 422 3319 
L 934 3319 
L 934 2888 
Q 1116 3141 1344 3267 
Q 1572 3394 1897 3394 
Q 2322 3394 2647 3175 
Q 2972 2956 3137 2557 
Q 3303 2159 3303 1684 
Q 3303 1175 3120 767 
Q 2938 359 2589 142 
Q 2241 -75 1856 -75 
Q 1575 -75 1351 44 
Q 1128 163 984 344 
L 984 -1272 
L 422 -1272 
z
M 931 1641 
Q 931 1000 1190 694 
Q 1450 388 1819 388 
Q 2194 388 2461 705 
Q 2728 1022 2728 1688 
Q 2728 2322 2467 2637 
Q 2206 2953 1844 2953 
Q 1484 2953 1207 2617 
Q 931 2281 931 1641 
z
" transform="scale(0.015625)"/>
      </defs>
      <use xlink:href="#ArialMT-54"/>
      <use xlink:href="#ArialMT-69" transform="translate(57.333984 0)"/>
      <use xlink:href="#ArialMT-6d" transform="translate(79.550781 0)"/>
      <use xlink:href="#ArialMT-65" transform="translate(162.851562 0)"/>
      <use xlink:href="#ArialMT-73" transform="translate(218.466797 0)"/>
      <use xlink:href="#ArialMT-74" transform="translate(268.466797 0)"/>
      <use xlink:href="#ArialMT-65" transform="translate(296.25 0)"/>
      <use xlink:href="#ArialMT-70" transform="translate(351.865234 0)"/>
      <use xlink:href="#ArialMT-73" transform="translate(407.480469 0)"/>
     </g>
    </g>
   </g>
   <g id="matplotlib.axis_2">
    <g id="ytick_1">
     <g id="line2d_5">
      <defs>
       <path id="mecb8dffafe" d="M 0 0 
L 2 0 
" style="stroke: #000000; stroke-width: 0.5"/>
      </defs>
      <g>
       <use xlink:href="#mecb8dffafe" x="32.52" y="127.60282" style="stroke: #000000; stroke-width: 0.5"/>
      </g>
     </g>
     <g id="text_6">
      <!-- 2 -->
      <g transform="translate(25.127344 130.108054) scale(0.07 -0.07)">
       <defs>
        <path id="ArialMT-32" d="M 3222 541 
L 3222 0 
L 194 0 
Q 188 203 259 391 
Q 375 700 629 1000 
Q 884 1300 1366 1694 
Q 2113 2306 2375 2664 
Q 2638 3022 2638 3341 
Q 2638 3675 2398 3904 
Q 2159 4134 1775 4134 
Q 1369 4134 1125 3890 
Q 881 3647 878 3216 
L 300 3275 
Q 359 3922 746 4261 
Q 1134 4600 1788 4600 
Q 2447 4600 2831 4234 
Q 3216 3869 3216 3328 
Q 3216 3053 3103 2787 
Q 2991 2522 2730 2228 
Q 2469 1934 1863 1422 
Q 1356 997 1212 845 
Q 1069 694 975 541 
L 3222 541 
z
" transform="scale(0.015625)"/>
       </defs>
       <use xlink:href="#ArialMT-32"/>
      </g>
     </g>
    </g>
    <g id="ytick_2">
     <g id="line2d_6">
      <g>
       <use xlink:href="#mecb8dffafe" x="32.52" y="100.470377" style="stroke: #000000; stroke-width: 0.5"/>
      </g>
     </g>
     <g id="text_7">
      <!-- 4 -->
      <g transform="translate(25.127344 102.975612) scale(0.07 -0.07)">
       <defs>
        <path id="ArialMT-34" d="M 2069 0 
L 2069 1097 
L 81 1097 
L 81 1613 
L 2172 4581 
L 2631 4581 
L 2631 1613 
L 3250 1613 
L 3250 1097 
L 2631 1097 
L 2631 0 
L 2069 0 
z
M 2069 1613 
L 2069 3678 
L 634 1613 
L 2069 1613 
z
" transform="scale(0.015625)"/>
       </defs>
       <use xlink:href="#ArialMT-34"/>
      </g>
     </g>
    </g>
    <g id="ytick_3">
     <g id="line2d_7">
      <g>
       <use xlink:href="#mecb8dffafe" x="32.52" y="73.337935" style="stroke: #000000; stroke-width: 0.5"/>
      </g>
     </g>
     <g id="text_8">
      <!-- 6 -->
      <g transform="translate(25.127344 75.843169) scale(0.07 -0.07)">
       <defs>
        <path id="ArialMT-36" d="M 3184 3459 
L 2625 3416 
Q 2550 3747 2413 3897 
Q 2184 4138 1850 4138 
Q 1581 4138 1378 3988 
Q 1113 3794 959 3422 
Q 806 3050 800 2363 
Q 1003 2672 1297 2822 
Q 1591 2972 1913 2972 
Q 2475 2972 2870 2558 
Q 3266 2144 3266 1488 
Q 3266 1056 3080 686 
Q 2894 316 2569 119 
Q 2244 -78 1831 -78 
Q 1128 -78 684 439 
Q 241 956 241 2144 
Q 241 3472 731 4075 
Q 1159 4600 1884 4600 
Q 2425 4600 2770 4297 
Q 3116 3994 3184 3459 
z
M 888 1484 
Q 888 1194 1011 928 
Q 1134 663 1356 523 
Q 1578 384 1822 384 
Q 2178 384 2434 671 
Q 2691 959 2691 1453 
Q 2691 1928 2437 2201 
Q 2184 2475 1800 2475 
Q 1419 2475 1153 2201 
Q 888 1928 888 1484 
z
" transform="scale(0.015625)"/>
       </defs>
       <use xlink:href="#ArialMT-36"/>
      </g>
     </g>
    </g>
    <g id="ytick_4">
     <g id="line2d_8">
      <g>
       <use xlink:href="#mecb8dffafe" x="32.52" y="46.205492" style="stroke: #000000; stroke-width: 0.5"/>
      </g>
     </g>
     <g id="text_9">
      <!-- 8 -->
      <g transform="translate(25.127344 48.710726) scale(0.07 -0.07)">
       <defs>
        <path id="ArialMT-38" d="M 1131 2484 
Q 781 2613 612 2850 
Q 444 3088 444 3419 
Q 444 3919 803 4259 
Q 1163 4600 1759 4600 
Q 2359 4600 2725 4251 
Q 3091 3903 3091 3403 
Q 3091 3084 2923 2848 
Q 2756 2613 2416 2484 
Q 2838 2347 3058 2040 
Q 3278 1734 3278 1309 
Q 3278 722 2862 322 
Q 2447 -78 1769 -78 
Q 1091 -78 675 323 
Q 259 725 259 1325 
Q 259 1772 486 2073 
Q 713 2375 1131 2484 
z
M 1019 3438 
Q 1019 3113 1228 2906 
Q 1438 2700 1772 2700 
Q 2097 2700 2305 2904 
Q 2513 3109 2513 3406 
Q 2513 3716 2298 3927 
Q 2084 4138 1766 4138 
Q 1444 4138 1231 3931 
Q 1019 3725 1019 3438 
z
M 838 1322 
Q 838 1081 952 856 
Q 1066 631 1291 507 
Q 1516 384 1775 384 
Q 2178 384 2440 643 
Q 2703 903 2703 1303 
Q 2703 1709 2433 1975 
Q 2163 2241 1756 2241 
Q 1359 2241 1098 1978 
Q 838 1716 838 1322 
z
" transform="scale(0.015625)"/>
       </defs>
       <use xlink:href="#ArialMT-38"/>
      </g>
     </g>
    </g>
    <g id="ytick_5">
     <g id="line2d_9">
      <g>
       <use xlink:href="#mecb8dffafe" x="32.52" y="19.073049" style="stroke: #000000; stroke-width: 0.5"/>
      </g>
     </g>
     <g id="text_10">
      <!-- 10 -->
      <g transform="translate(21.234688 21.578284) scale(0.07 -0.07)">
       <use xlink:href="#ArialMT-31"/>
       <use xlink:href="#ArialMT-30" transform="translate(55.615234 0)"/>
      </g>
     </g>
    </g>
    <g id="text_11">
     <!-- Decision Weight -->
     <g transform="translate(15.761406 104.995703) rotate(-90) scale(0.07 -0.07)">
      <defs>
       <path id="ArialMT-44" d="M 494 0 
L 494 4581 
L 2072 4581 
Q 2606 4581 2888 4516 
Q 3281 4425 3559 4188 
Q 3922 3881 4101 3404 
Q 4281 2928 4281 2316 
Q 4281 1794 4159 1391 
Q 4038 988 3847 723 
Q 3656 459 3429 307 
Q 3203 156 2883 78 
Q 2563 0 2147 0 
L 494 0 
z
M 1100 541 
L 2078 541 
Q 2531 541 2789 625 
Q 3047 709 3200 863 
Q 3416 1078 3536 1442 
Q 3656 1806 3656 2325 
Q 3656 3044 3420 3430 
Q 3184 3816 2847 3947 
Q 2603 4041 2063 4041 
L 1100 4041 
L 1100 541 
z
" transform="scale(0.015625)"/>
       <path id="ArialMT-63" d="M 2588 1216 
L 3141 1144 
Q 3050 572 2676 248 
Q 2303 -75 1759 -75 
Q 1078 -75 664 370 
Q 250 816 250 1647 
Q 250 2184 428 2587 
Q 606 2991 970 3192 
Q 1334 3394 1763 3394 
Q 2303 3394 2647 3120 
Q 2991 2847 3088 2344 
L 2541 2259 
Q 2463 2594 2264 2762 
Q 2066 2931 1784 2931 
Q 1359 2931 1093 2626 
Q 828 2322 828 1663 
Q 828 994 1084 691 
Q 1341 388 1753 388 
Q 2084 388 2306 591 
Q 2528 794 2588 1216 
z
" transform="scale(0.015625)"/>
       <path id="ArialMT-6f" d="M 213 1659 
Q 213 2581 725 3025 
Q 1153 3394 1769 3394 
Q 2453 3394 2887 2945 
Q 3322 2497 3322 1706 
Q 3322 1066 3130 698 
Q 2938 331 2570 128 
Q 2203 -75 1769 -75 
Q 1072 -75 642 372 
Q 213 819 213 1659 
z
M 791 1659 
Q 791 1022 1069 705 
Q 1347 388 1769 388 
Q 2188 388 2466 706 
Q 2744 1025 2744 1678 
Q 2744 2294 2464 2611 
Q 2184 2928 1769 2928 
Q 1347 2928 1069 2612 
Q 791 2297 791 1659 
z
" transform="scale(0.015625)"/>
       <path id="ArialMT-6e" d="M 422 0 
L 422 3319 
L 928 3319 
L 928 2847 
Q 1294 3394 1984 3394 
Q 2284 3394 2536 3286 
Q 2788 3178 2913 3003 
Q 3038 2828 3088 2588 
Q 3119 2431 3119 2041 
L 3119 0 
L 2556 0 
L 2556 2019 
Q 2556 2363 2490 2533 
Q 2425 2703 2258 2804 
Q 2091 2906 1866 2906 
Q 1506 2906 1245 2678 
Q 984 2450 984 1813 
L 984 0 
L 422 0 
z
" transform="scale(0.015625)"/>
       <path id="ArialMT-20" transform="scale(0.015625)"/>
       <path id="ArialMT-57" d="M 1294 0 
L 78 4581 
L 700 4581 
L 1397 1578 
Q 1509 1106 1591 641 
Q 1766 1375 1797 1488 
L 2669 4581 
L 3400 4581 
L 4056 2263 
Q 4303 1400 4413 641 
Q 4500 1075 4641 1638 
L 5359 4581 
L 5969 4581 
L 4713 0 
L 4128 0 
L 3163 3491 
Q 3041 3928 3019 4028 
Q 2947 3713 2884 3491 
L 1913 0 
L 1294 0 
z
" transform="scale(0.015625)"/>
       <path id="ArialMT-67" d="M 319 -275 
L 866 -356 
Q 900 -609 1056 -725 
Q 1266 -881 1628 -881 
Q 2019 -881 2231 -725 
Q 2444 -569 2519 -288 
Q 2563 -116 2559 434 
Q 2191 0 1641 0 
Q 956 0 581 494 
Q 206 988 206 1678 
Q 206 2153 378 2554 
Q 550 2956 876 3175 
Q 1203 3394 1644 3394 
Q 2231 3394 2613 2919 
L 2613 3319 
L 3131 3319 
L 3131 450 
Q 3131 -325 2973 -648 
Q 2816 -972 2473 -1159 
Q 2131 -1347 1631 -1347 
Q 1038 -1347 672 -1080 
Q 306 -813 319 -275 
z
M 784 1719 
Q 784 1066 1043 766 
Q 1303 466 1694 466 
Q 2081 466 2343 764 
Q 2606 1063 2606 1700 
Q 2606 2309 2336 2618 
Q 2066 2928 1684 2928 
Q 1309 2928 1046 2623 
Q 784 2319 784 1719 
z
" transform="scale(0.015625)"/>
       <path id="ArialMT-68" d="M 422 0 
L 422 4581 
L 984 4581 
L 984 2938 
Q 1378 3394 1978 3394 
Q 2347 3394 2619 3248 
Q 2891 3103 3008 2847 
Q 3125 2591 3125 2103 
L 3125 0 
L 2563 0 
L 2563 2103 
Q 2563 2525 2380 2717 
Q 2197 2909 1863 2909 
Q 1613 2909 1392 2779 
Q 1172 2650 1078 2428 
Q 984 2206 984 1816 
L 984 0 
L 422 0 
z
" transform="scale(0.015625)"/>
      </defs>
      <use xlink:href="#ArialMT-44"/>
      <use xlink:href="#ArialMT-65" transform="translate(72.216797 0)"/>
      <use xlink:href="#ArialMT-63" transform="translate(127.832031 0)"/>
      <use xlink:href="#ArialMT-69" transform="translate(177.832031 0)"/>
      <use xlink:href="#ArialMT-73" transform="translate(200.048828 0)"/>
      <use xlink:href="#ArialMT-69" transform="translate(250.048828 0)"/>
      <use xlink:href="#ArialMT-6f" transform="translate(272.265625 0)"/>
      <use xlink:href="#ArialMT-6e" transform="translate(327.880859 0)"/>
      <use xlink:href="#ArialMT-20" transform="translate(383.496094 0)"/>
      <use xlink:href="#ArialMT-57" transform="translate(411.279297 0)"/>
      <use xlink:href="#ArialMT-65" transform="translate(503.914062 0)"/>
      <use xlink:href="#ArialMT-69" transform="translate(559.529297 0)"/>
      <use xlink:href="#ArialMT-67" transform="translate(581.746094 0)"/>
      <use xlink:href="#ArialMT-68" transform="translate(637.361328 0)"/>
      <use xlink:href="#ArialMT-74" transform="translate(692.976562 0)"/>
     </g>
    </g>
   </g>
   <g id="line2d_10">
    <path d="M 45.33375 17.07 
" clip-path="url(#pa3d733d4a6)" style="fill: none; stroke: #440154; stroke-width: 2; stroke-linecap: square"/>
    <defs>
     <path id="m344a092ad7" d="M 0 2 
C 0.530406 2 1.03916 1.789267 1.414214 1.414214 
C 1.789267 1.03916 2 0.530406 2 0 
C 2 -0.530406 1.789267 -1.03916 1.414214 -1.414214 
C 1.03916 -1.789267 0.530406 -2 0 -2 
C -0.530406 -2 -1.03916 -1.789267 -1.414214 -1.414214 
C -1.789267 -1.03916 -2 -0.530406 -2 0 
C -2 0.530406 -1.789267 1.03916 -1.414214 1.414214 
C -1.03916 1.789267 -0.530406 2 0 2 
z
" style="stroke: #440154"/>
    </defs>
    <g clip-path="url(#pa3d733d4a6)">
     <use xlink:href="#m344a092ad7" x="45.33375" y="17.07" style="fill: #440154; stroke: #440154"/>
    </g>
   </g>
   <g id="line2d_11">
    <path d="M 45.33375 52.114919 
L 53.87625 51.81981 
" clip-path="url(#pa3d733d4a6)" style="fill: none; stroke: #482878; stroke-width: 2; stroke-linecap: square"/>
    <defs>
     <path id="mcfcc6f8008" d="M 0 2 
C 0.530406 2 1.03916 1.789267 1.414214 1.414214 
C 1.789267 1.03916 2 0.530406 2 0 
C 2 -0.530406 1.789267 -1.03916 1.414214 -1.414214 
C 1.03916 -1.789267 0.530406 -2 0 -2 
C -0.530406 -2 -1.03916 -1.789267 -1.414214 -1.414214 
C -1.789267 -1.03916 -2 -0.530406 -2 0 
C -2 0.530406 -1.789267 1.03916 -1.414214 1.414214 
C -1.03916 1.789267 -0.530406 2 0 2 
z
" style="stroke: #482878"/>
    </defs>
    <g clip-path="url(#pa3d733d4a6)">
     <use xlink:href="#mcfcc6f8008" x="45.33375" y="52.114919" style="fill: #482878; stroke: #482878"/>
     <use xlink:href="#mcfcc6f8008" x="53.87625" y="51.81981" style="fill: #482878; stroke: #482878"/>
    </g>
   </g>
   <g id="line2d_12">
    <path d="M 45.33375 64.683163 
L 53.87625 66.05465 
L 62.41875 58.825138 
" clip-path="url(#pa3d733d4a6)" style="fill: none; stroke: #3e4989; stroke-width: 2; stroke-linecap: square"/>
    <defs>
     <path id="m734e5ebb0f" d="M 0 2 
C 0.530406 2 1.03916 1.789267 1.414214 1.414214 
C 1.789267 1.03916 2 0.530406 2 0 
C 2 -0.530406 1.789267 -1.03916 1.414214 -1.414214 
C 1.03916 -1.789267 0.530406 -2 0 -2 
C -0.530406 -2 -1.03916 -1.789267 -1.414214 -1.414214 
C -1.789267 -1.03916 -2 -0.530406 -2 0 
C -2 0.530406 -1.789267 1.03916 -1.414214 1.414214 
C -1.03916 1.789267 -0.530406 2 0 2 
z
" style="stroke: #3e4989"/>
    </defs>
    <g clip-path="url(#pa3d733d4a6)">
     <use xlink:href="#m734e5ebb0f" x="45.33375" y="64.683163" style="fill: #3e4989; stroke: #3e4989"/>
     <use xlink:href="#m734e5ebb0f" x="53.87625" y="66.05465" style="fill: #3e4989; stroke: #3e4989"/>
     <use xlink:href="#m734e5ebb0f" x="62.41875" y="58.825138" style="fill: #3e4989; stroke: #3e4989"/>
    </g>
   </g>
   <g id="line2d_13">
    <path d="M 45.33375 78.569889 
L 53.87625 76.702132 
L 62.41875 70.423032 
L 70.96125 64.531604 
" clip-path="url(#pa3d733d4a6)" style="fill: none; stroke: #31688e; stroke-width: 2; stroke-linecap: square"/>
    <defs>
     <path id="m4d19f2bf93" d="M 0 2 
C 0.530406 2 1.03916 1.789267 1.414214 1.414214 
C 1.789267 1.03916 2 0.530406 2 0 
C 2 -0.530406 1.789267 -1.03916 1.414214 -1.414214 
C 1.03916 -1.789267 0.530406 -2 0 -2 
C -0.530406 -2 -1.03916 -1.789267 -1.414214 -1.414214 
C -1.789267 -1.03916 -2 -0.530406 -2 0 
C -2 0.530406 -1.789267 1.03916 -1.414214 1.414214 
C -1.03916 1.789267 -0.530406 2 0 2 
z
" style="stroke: #31688e"/>
    </defs>
    <g clip-path="url(#pa3d733d4a6)">
     <use xlink:href="#m4d19f2bf93" x="45.33375" y="78.569889" style="fill: #31688e; stroke: #31688e"/>
     <use xlink:href="#m4d19f2bf93" x="53.87625" y="76.702132" style="fill: #31688e; stroke: #31688e"/>
     <use xlink:href="#m4d19f2bf93" x="62.41875" y="70.423032" style="fill: #31688e; stroke: #31688e"/>
     <use xlink:href="#m4d19f2bf93" x="70.96125" y="64.531604" style="fill: #31688e; stroke: #31688e"/>
    </g>
   </g>
   <g id="line2d_14">
    <path d="M 45.33375 84.520036 
L 53.87625 85.78812 
L 62.41875 83.033061 
L 70.96125 76.60591 
L 79.50375 69.089029 
" clip-path="url(#pa3d733d4a6)" style="fill: none; stroke: #26828e; stroke-width: 2; stroke-linecap: square"/>
    <defs>
     <path id="m1ebb70d3e8" d="M 0 2 
C 0.530406 2 1.03916 1.789267 1.414214 1.414214 
C 1.789267 1.03916 2 0.530406 2 0 
C 2 -0.530406 1.789267 -1.03916 1.414214 -1.414214 
C 1.03916 -1.789267 0.530406 -2 0 -2 
C -0.530406 -2 -1.03916 -1.789267 -1.414214 -1.414214 
C -1.789267 -1.03916 -2 -0.530406 -2 0 
C -2 0.530406 -1.789267 1.03916 -1.414214 1.414214 
C -1.03916 1.789267 -0.530406 2 0 2 
z
" style="stroke: #26828e"/>
    </defs>
    <g clip-path="url(#pa3d733d4a6)">
     <use xlink:href="#m1ebb70d3e8" x="45.33375" y="84.520036" style="fill: #26828e; stroke: #26828e"/>
     <use xlink:href="#m1ebb70d3e8" x="53.87625" y="85.78812" style="fill: #26828e; stroke: #26828e"/>
     <use xlink:href="#m1ebb70d3e8" x="62.41875" y="83.033061" style="fill: #26828e; stroke: #26828e"/>
     <use xlink:href="#m1ebb70d3e8" x="70.96125" y="76.60591" style="fill: #26828e; stroke: #26828e"/>
     <use xlink:href="#m1ebb70d3e8" x="79.50375" y="69.089029" style="fill: #26828e; stroke: #26828e"/>
    </g>
   </g>
   <g id="line2d_15">
    <path d="M 45.33375 93.406151 
L 53.87625 96.1608 
L 62.41875 91.124459 
L 70.96125 86.911332 
L 79.50375 81.336238 
L 88.04625 73.840495 
" clip-path="url(#pa3d733d4a6)" style="fill: none; stroke: #1f9e89; stroke-width: 2; stroke-linecap: square"/>
    <defs>
     <path id="m4ce79273db" d="M 0 2 
C 0.530406 2 1.03916 1.789267 1.414214 1.414214 
C 1.789267 1.03916 2 0.530406 2 0 
C 2 -0.530406 1.789267 -1.03916 1.414214 -1.414214 
C 1.03916 -1.789267 0.530406 -2 0 -2 
C -0.530406 -2 -1.03916 -1.789267 -1.414214 -1.414214 
C -1.789267 -1.03916 -2 -0.530406 -2 0 
C -2 0.530406 -1.789267 1.03916 -1.414214 1.414214 
C -1.03916 1.789267 -0.530406 2 0 2 
z
" style="stroke: #1f9e89"/>
    </defs>
    <g clip-path="url(#pa3d733d4a6)">
     <use xlink:href="#m4ce79273db" x="45.33375" y="93.406151" style="fill: #1f9e89; stroke: #1f9e89"/>
     <use xlink:href="#m4ce79273db" x="53.87625" y="96.1608" style="fill: #1f9e89; stroke: #1f9e89"/>
     <use xlink:href="#m4ce79273db" x="62.41875" y="91.124459" style="fill: #1f9e89; stroke: #1f9e89"/>
     <use xlink:href="#m4ce79273db" x="70.96125" y="86.911332" style="fill: #1f9e89; stroke: #1f9e89"/>
     <use xlink:href="#m4ce79273db" x="79.50375" y="81.336238" style="fill: #1f9e89; stroke: #1f9e89"/>
     <use xlink:href="#m4ce79273db" x="88.04625" y="73.840495" style="fill: #1f9e89; stroke: #1f9e89"/>
    </g>
   </g>
   <g id="line2d_16">
    <path d="M 45.33375 102.604033 
L 53.87625 106.13963 
L 62.41875 104.378677 
L 70.96125 95.981067 
L 79.50375 92.803386 
L 88.04625 84.959356 
L 96.58875 77.166928 
" clip-path="url(#pa3d733d4a6)" style="fill: none; stroke: #35b779; stroke-width: 2; stroke-linecap: square"/>
    <defs>
     <path id="m4064f41cc5" d="M 0 2 
C 0.530406 2 1.03916 1.789267 1.414214 1.414214 
C 1.789267 1.03916 2 0.530406 2 0 
C 2 -0.530406 1.789267 -1.03916 1.414214 -1.414214 
C 1.03916 -1.789267 0.530406 -2 0 -2 
C -0.530406 -2 -1.03916 -1.789267 -1.414214 -1.414214 
C -1.789267 -1.03916 -2 -0.530406 -2 0 
C -2 0.530406 -1.789267 1.03916 -1.414214 1.414214 
C -1.03916 1.789267 -0.530406 2 0 2 
z
" style="stroke: #35b779"/>
    </defs>
    <g clip-path="url(#pa3d733d4a6)">
     <use xlink:href="#m4064f41cc5" x="45.33375" y="102.604033" style="fill: #35b779; stroke: #35b779"/>
     <use xlink:href="#m4064f41cc5" x="53.87625" y="106.13963" style="fill: #35b779; stroke: #35b779"/>
     <use xlink:href="#m4064f41cc5" x="62.41875" y="104.378677" style="fill: #35b779; stroke: #35b779"/>
     <use xlink:href="#m4064f41cc5" x="70.96125" y="95.981067" style="fill: #35b779; stroke: #35b779"/>
     <use xlink:href="#m4064f41cc5" x="79.50375" y="92.803386" style="fill: #35b779; stroke: #35b779"/>
     <use xlink:href="#m4064f41cc5" x="88.04625" y="84.959356" style="fill: #35b779; stroke: #35b779"/>
     <use xlink:href="#m4064f41cc5" x="96.58875" y="77.166928" style="fill: #35b779; stroke: #35b779"/>
    </g>
   </g>
   <g id="line2d_17">
    <path d="M 45.33375 110.494147 
L 53.87625 113.729539 
L 62.41875 110.793844 
L 70.96125 108.836858 
L 79.50375 100.205427 
L 88.04625 98.033639 
L 96.58875 91.909991 
L 105.13125 79.055234 
" clip-path="url(#pa3d733d4a6)" style="fill: none; stroke: #6ece58; stroke-width: 2; stroke-linecap: square"/>
    <defs>
     <path id="mc12e21e2ad" d="M 0 2 
C 0.530406 2 1.03916 1.789267 1.414214 1.414214 
C 1.789267 1.03916 2 0.530406 2 0 
C 2 -0.530406 1.789267 -1.03916 1.414214 -1.414214 
C 1.03916 -1.789267 0.530406 -2 0 -2 
C -0.530406 -2 -1.03916 -1.789267 -1.414214 -1.414214 
C -1.789267 -1.03916 -2 -0.530406 -2 0 
C -2 0.530406 -1.789267 1.03916 -1.414214 1.414214 
C -1.03916 1.789267 -0.530406 2 0 2 
z
" style="stroke: #6ece58"/>
    </defs>
    <g clip-path="url(#pa3d733d4a6)">
     <use xlink:href="#mc12e21e2ad" x="45.33375" y="110.494147" style="fill: #6ece58; stroke: #6ece58"/>
     <use xlink:href="#mc12e21e2ad" x="53.87625" y="113.729539" style="fill: #6ece58; stroke: #6ece58"/>
     <use xlink:href="#mc12e21e2ad" x="62.41875" y="110.793844" style="fill: #6ece58; stroke: #6ece58"/>
     <use xlink:href="#mc12e21e2ad" x="70.96125" y="108.836858" style="fill: #6ece58; stroke: #6ece58"/>
     <use xlink:href="#mc12e21e2ad" x="79.50375" y="100.205427" style="fill: #6ece58; stroke: #6ece58"/>
     <use xlink:href="#mc12e21e2ad" x="88.04625" y="98.033639" style="fill: #6ece58; stroke: #6ece58"/>
     <use xlink:href="#mc12e21e2ad" x="96.58875" y="91.909991" style="fill: #6ece58; stroke: #6ece58"/>
     <use xlink:href="#mc12e21e2ad" x="105.13125" y="79.055234" style="fill: #6ece58; stroke: #6ece58"/>
    </g>
   </g>
   <g id="line2d_18">
    <path d="M 45.33375 100.980689 
L 53.87625 100.566015 
L 62.41875 105.102055 
L 70.96125 101.946976 
L 79.50375 98.009496 
L 88.04625 94.469214 
L 96.58875 88.473179 
L 105.13125 82.242002 
L 113.67375 74.101479 
" clip-path="url(#pa3d733d4a6)" style="fill: none; stroke: #b5de2b; stroke-width: 2; stroke-linecap: square"/>
    <defs>
     <path id="m9fab7f6e15" d="M 0 2 
C 0.530406 2 1.03916 1.789267 1.414214 1.414214 
C 1.789267 1.03916 2 0.530406 2 0 
C 2 -0.530406 1.789267 -1.03916 1.414214 -1.414214 
C 1.03916 -1.789267 0.530406 -2 0 -2 
C -0.530406 -2 -1.03916 -1.789267 -1.414214 -1.414214 
C -1.789267 -1.03916 -2 -0.530406 -2 0 
C -2 0.530406 -1.789267 1.03916 -1.414214 1.414214 
C -1.03916 1.789267 -0.530406 2 0 2 
z
" style="stroke: #b5de2b"/>
    </defs>
    <g clip-path="url(#pa3d733d4a6)">
     <use xlink:href="#m9fab7f6e15" x="45.33375" y="100.980689" style="fill: #b5de2b; stroke: #b5de2b"/>
     <use xlink:href="#m9fab7f6e15" x="53.87625" y="100.566015" style="fill: #b5de2b; stroke: #b5de2b"/>
     <use xlink:href="#m9fab7f6e15" x="62.41875" y="105.102055" style="fill: #b5de2b; stroke: #b5de2b"/>
     <use xlink:href="#m9fab7f6e15" x="70.96125" y="101.946976" style="fill: #b5de2b; stroke: #b5de2b"/>
     <use xlink:href="#m9fab7f6e15" x="79.50375" y="98.009496" style="fill: #b5de2b; stroke: #b5de2b"/>
     <use xlink:href="#m9fab7f6e15" x="88.04625" y="94.469214" style="fill: #b5de2b; stroke: #b5de2b"/>
     <use xlink:href="#m9fab7f6e15" x="96.58875" y="88.473179" style="fill: #b5de2b; stroke: #b5de2b"/>
     <use xlink:href="#m9fab7f6e15" x="105.13125" y="82.242002" style="fill: #b5de2b; stroke: #b5de2b"/>
     <use xlink:href="#m9fab7f6e15" x="113.67375" y="74.101479" style="fill: #b5de2b; stroke: #b5de2b"/>
    </g>
   </g>
   <g id="line2d_19">
    <path d="M 45.33375 138.359472 
L 53.87625 137.371047 
L 62.41875 142.47 
L 70.96125 139.119959 
L 79.50375 140.992811 
L 88.04625 136.412626 
L 96.58875 127.385785 
L 105.13125 120.273184 
L 113.67375 122.255915 
L 122.21625 94.671037 
" clip-path="url(#pa3d733d4a6)" style="fill: none; stroke: #fde725; stroke-width: 2; stroke-linecap: square"/>
    <defs>
     <path id="mc3b3279ca4" d="M 0 2 
C 0.530406 2 1.03916 1.789267 1.414214 1.414214 
C 1.789267 1.03916 2 0.530406 2 0 
C 2 -0.530406 1.789267 -1.03916 1.414214 -1.414214 
C 1.03916 -1.789267 0.530406 -2 0 -2 
C -0.530406 -2 -1.03916 -1.789267 -1.414214 -1.414214 
C -1.789267 -1.03916 -2 -0.530406 -2 0 
C -2 0.530406 -1.789267 1.03916 -1.414214 1.414214 
C -1.03916 1.789267 -0.530406 2 0 2 
z
" style="stroke: #fde725"/>
    </defs>
    <g clip-path="url(#pa3d733d4a6)">
     <use xlink:href="#mc3b3279ca4" x="45.33375" y="138.359472" style="fill: #fde725; stroke: #fde725"/>
     <use xlink:href="#mc3b3279ca4" x="53.87625" y="137.371047" style="fill: #fde725; stroke: #fde725"/>
     <use xlink:href="#mc3b3279ca4" x="62.41875" y="142.47" style="fill: #fde725; stroke: #fde725"/>
     <use xlink:href="#mc3b3279ca4" x="70.96125" y="139.119959" style="fill: #fde725; stroke: #fde725"/>
     <use xlink:href="#mc3b3279ca4" x="79.50375" y="140.992811" style="fill: #fde725; stroke: #fde725"/>
     <use xlink:href="#mc3b3279ca4" x="88.04625" y="136.412626" style="fill: #fde725; stroke: #fde725"/>
     <use xlink:href="#mc3b3279ca4" x="96.58875" y="127.385785" style="fill: #fde725; stroke: #fde725"/>
     <use xlink:href="#mc3b3279ca4" x="105.13125" y="120.273184" style="fill: #fde725; stroke: #fde725"/>
     <use xlink:href="#mc3b3279ca4" x="113.67375" y="122.255915" style="fill: #fde725; stroke: #fde725"/>
     <use xlink:href="#mc3b3279ca4" x="122.21625" y="94.671037" style="fill: #fde725; stroke: #fde725"/>
    </g>
   </g>
   <g id="patch_3">
    <path d="M 32.52 148.74 
L 32.52 10.8 
" style="fill: none; stroke: #000000; stroke-width: 0.75; stroke-linejoin: miter; stroke-linecap: square"/>
   </g>
   <g id="patch_4">
    <path d="M 32.52 148.74 
L 169.2 148.74 
" style="fill: none; stroke: #000000; stroke-width: 0.75; stroke-linejoin: miter; stroke-linecap: square"/>
   </g>
  </g>
 </g>
 <defs>
  <clipPath id="pa3d733d4a6">
   <rect x="32.52" y="10.8" width="136.68" height="137.94"/>
  </clipPath>
 </defs>
</svg>
